SplineFontDB: 3.0
FontName: Aenniway-Regular
FullName: Aenniway Regular
FamilyName: Aenniway
Weight: Book
Copyright: Anna-Lisa Wehmann & Christoph Pfeiffer
Version: 1.5.01
ItalicAngle: -11.9
UnderlinePosition: -153
UnderlineWidth: 51
Ascent: 819
Descent: 205
InvalidEm: 0
LayerCount: 2
Layer: 0 1 "Back" 1
Layer: 1 1 "Zeichen" 0
XUID: [1021 862 158305084 7697856]
StyleMap: 0x0040
FSType: 0
OS2Version: 4
OS2_WeightWidthSlopeOnly: 0
OS2_UseTypoMetrics: 0
CreationTime: 1502261341
ModificationTime: 1505593364
PfmFamily: 65
TTFWeight: 400
TTFWidth: 5
LineGap: 92
VLineGap: 0
Panose: 3 0 5 3 0 0 0 0 0 0
OS2TypoAscent: 819
OS2TypoAOffset: 0
OS2TypoDescent: -205
OS2TypoDOffset: 0
OS2TypoLinegap: 92
OS2WinAscent: 818
OS2WinAOffset: 0
OS2WinDescent: 205
OS2WinDOffset: 0
HheadAscent: 818
HheadAOffset: 0
HheadDescent: -205
HheadDOffset: 0
OS2SubXSize: 666
OS2SubYSize: 717
OS2SubXOff: 0
OS2SubYOff: 143
OS2SupXSize: 666
OS2SupYSize: 717
OS2SupXOff: 0
OS2SupYOff: 492
OS2StrikeYSize: 50
OS2StrikeYPos: 264
OS2CapHeight: 699
OS2XHeight: 363
OS2Vendor: 'CLGR'
OS2CodePages: 00000001.00000000
OS2UnicodeRanges: 00000003.00000000.00000000.00000000
Lookup: 4 0 1 "'liga' Standard Ligatures in Latin lookup 0" { "'liga' Standard Ligatures in Latin lookup 0 subtable"  } ['liga' ('DFLT' <'dflt' > 'latn' <'dflt' > ) ]

StartChar: .notdef
Encoding: 1114112 -1 0
Width: 372
VWidth: 1004
Flags: W
LayerCount: 2
Fore
SplineSet
34 -20 m 1,0,-1
 34 662 l 1,1,-1
 305 662 l 1,2,-1
 305 -20 l 1,3,-1
 34 -20 l 1,0,-1
68 14 m 1,4,-1
 271 14 l 1,5,-1
 271 628 l 1,6,-1
 68 628 l 1,7,-1
 68 14 l 1,4,-1
EndSplineSet
Validated: 1
EndChar

StartChar: exclam
Encoding: 33 33 5
Width: 220
VWidth: 968
Flags: W
LayerCount: 2
Fore
SplineSet
114 668 m 1,0,1
 120 668 120 668 122 658 c 128,-1,2
 124 648 124 648 128 640 c 0,3,4
 135 630 135 630 135 626 c 128,-1,5
 135 622 135 622 135 622 c 128,-1,6
 135 622 135 622 135 621 c 0,7,8
 135.058823529 620.470588235 135.058823529 620.470588235 135.058823529 619.553633218 c 0,9,10
 135.058823529 604.882352941 135.058823529 604.882352941 120 491 c 0,11,12
 104 370 104 370 104 304 c 0,13,14
 104 205 104 205 114 198 c 0,15,16
 118 195 118 195 118 190.5 c 128,-1,17
 118 186 118 186 115 178 c 128,-1,18
 112 170 112 170 108 170 c 128,-1,19
 104 170 104 170 90 184 c 128,-1,20
 76 198 76 198 72 224 c 0,21,22
 67 256 67 256 67 307 c 0,23,24
 67 383.677004662 67 383.677004662 82.252819192 523.571431759 c 0,25,26
 98 668 98 668 114 668 c 1,0,1
57.7421875 29.9482421875 m 0,27,28
 57.7421875 46.837890625 57.7421875 46.837890625 81.4474271815 46.837890625 c 128,-1,29
 105.152666863 46.837890625 105.152666863 46.837890625 117.830239681 30.0266207278 c 0,30,31
 130.266335593 13.5355646059 130.266335593 13.5355646059 130.266335593 7.4594814329 c 0,32,33
 130.266335593 7.34149956944 130.266335593 7.34149956944 130.261646735 7.22744452811 c 0,34,35
 130.015480969 1.23953822561 130.015480969 1.23953822561 120.419331028 1.23953822561 c 128,-1,36
 110.823181088 1.23953822561 110.823181088 1.23953822561 110.220181437 1.2470703125 c 0,37,38
 62.050311578 1.2470703125 62.050311578 1.2470703125 57.974609375 27.103515625 c 0,39,40
 57.7421875 28.5813679245 57.7421875 28.5813679245 57.7421875 29.9482421875 c 0,27,28
EndSplineSet
Validated: 1
EndChar

StartChar: comma
Encoding: 44 44 6
Width: 142
VWidth: 968
Flags: W
LayerCount: 2
Fore
SplineSet
46 -1 m 4,0,1
 57 38 57 38 67 49 c 4,2,3
 76 59 76 59 88 59 c 4,4,5
 97 59 97 59 97 42 c 4,6,7
 97 35 97 35 92 15 c 4,8,9
 91 11 91 11 71 -39 c 4,10,11
 67 -49 67 -49 64 -54 c 132,-1,12
 61 -59 61 -59 58 -65 c 4,13,14
 58 -65 58 -65 51 -72 c 4,15,16
 48 -75 48 -75 45 -75 c 4,17,18
 33 -75 33 -75 34 -51 c 4,19,20
 34 -43 34 -43 46 -1 c 4,0,1
EndSplineSet
Validated: 1
EndChar

StartChar: period
Encoding: 46 46 7
Width: 181
VWidth: 968
Flags: W
LayerCount: 2
Fore
SplineSet
45 20 m 4,0,1
 44 24 44 24 44 27 c 4,2,3
 44 34 44 34 45 36 c 4,4,5
 48 42 48 42 52 45 c 4,6,7
 55 47 55 47 65 51 c 4,8,9
 76 55 76 55 84 55 c 4,10,11
 90 55 90 55 92 54 c 4,12,13
 100 50 100 50 105 41 c 132,-1,14
 110 32 110 32 110 26 c 4,15,16
 111 25 111 25 110 23 c 4,17,18
 101 5 101 5 87 2 c 4,19,20
 82 1 82 1 78 0 c 4,21,22
 71 -0 71 -0 71 -0 c 4,23,24
 57 -1 57 -1 50 6 c 4,25,26
 48 8 48 8 48 8 c 4,27,28
 47 10 47 10 47 12 c 4,29,30
 46 14 46 14 45.5 15.5 c 132,-1,31
 45 17 45 17 45 20 c 4,0,1
EndSplineSet
Validated: 1
EndChar

StartChar: question
Encoding: 63 63 8
Width: 387
VWidth: 968
Flags: W
LayerCount: 2
Fore
SplineSet
150.474609375 28.2177734375 m 0,0,1
 150.080216574 33.8931820391 150.080216574 33.8931820391 150.69140625 35.748046875 c 0,2,3
 152.153771201 37.3779011706 152.153771201 37.3779011706 156.489257812 42.0625 c 2,4,-1
 169.185546875 45.3525390625 l 1,5,-1
 194.453125 43.5703125 l 1,6,-1
 208.370117188 36.4541015625 l 2,7,8
 209 33.5898583256 209 33.5898583256 209 21.5 c 0,9,10
 209 7 209 7 185.5 7 c 0,11,12
 157.538774901 7 157.538774901 7 154.263671875 8.896484375 c 0,13,14
 151.735960271 10.3187583258 151.735960271 10.3187583258 151.184570312 12.55859375 c 0,15,16
 150.119857215 15.9319151732 150.119857215 15.9319151732 149.983398438 18.4423828125 c 0,17,18
 150.984098623 23.2594015545 150.984098623 23.2594015545 150.474609375 28.2177734375 c 0,0,1
241.556640625 667.498046875 m 0,19,20
 286.533949644 667.973981786 286.533949644 667.973981786 311.624023438 647.415039062 c 0,21,22
 328.369198961 634.300480676 328.369198961 634.300480676 331.911132812 607.172851562 c 0,23,24
 331.9506641 579.587333717 331.9506641 579.587333717 318.93359375 554.08984375 c 0,25,26
 305.077530681 524.844176593 305.077530681 524.844176593 277.47265625 492.51171875 c 0,27,28
 256.813017331 467.71458657 256.813017331 467.71458657 222.595703125 433.103515625 c 0,29,30
 199.739347385 409.630370848 199.739347385 409.630370848 182.69140625 388.328125 c 0,31,32
 158.852123158 357.490825707 158.852123158 357.490825707 148.592773438 331.583007812 c 0,33,34
 134.607221256 296.347349296 134.607221256 296.347349296 143.131835938 267.096679688 c 0,35,36
 148.064680118 247.983192701 148.064680118 247.983192701 168.024414062 239.079101562 c 0,37,38
 182.366382793 231.999532012 182.366382793 231.999532012 214.940429688 231.995117188 c 0,39,40
 233.848800897 231.999514483 233.848800897 231.999514483 250.666015625 236.12109375 c 0,41,42
 278.028320312 244.301269531 278.028320312 244.301269531 304.555664062 252.110351562 c 0,43,44
 307.991198239 252.925051637 307.991198239 252.925051637 310.241210938 252.631835938 c 128,-1,45
 312.464377145 252.342222719 312.464377145 252.342222719 313.38671875 251.817382812 c 0,46,47
 317.421056119 249.513009735 317.421056119 249.513009735 316.583984375 235.030273438 c 0,48,49
 316.69305366 232.90145522 316.69305366 232.90145522 316.506835938 231.986328125 c 0,50,51
 294.524825859 213.355546532 294.524825859 213.355546532 260.331054688 204.907226562 c 0,52,53
 228.151483688 196.996525352 228.151483688 196.996525352 184.932617188 196.754882812 c 0,54,55
 160.40548504 196.988892422 160.40548504 196.988892422 143.670898438 203.869140625 c 0,56,57
 129.472432866 209.726574121 129.472432866 209.726574121 120.748046875 221.5546875 c 0,58,59
 102.966607997 245.36948165 102.966607997 245.36948165 102.395507812 284.439453125 c 0,60,61
 102.015896223 306.194568281 102.015896223 306.194568281 108.4765625 331.848632812 c 0,62,63
 113.488682903 353.953142689 113.488682903 353.953142689 136.528320312 383.7734375 c 0,64,65
 164.189531445 420.261072309 164.189531445 420.261072309 215.935546875 467.53125 c 0,66,67
 251.380443752 499.426676504 251.380443752 499.426676504 275.62890625 537.186523438 c 0,68,69
 294.858382549 567.753142618 294.858382549 567.753142618 296.307617188 588.397460938 c 0,70,71
 297.132950824 598.276409809 297.132950824 598.276409809 293.446289062 606.135742188 c 0,72,73
 286.532526163 620.662560799 286.532526163 620.662560799 273.087890625 630.140625 c 0,74,75
 258.268716325 641.017831901 258.268716325 641.017831901 231.13671875 640.823242188 c 0,76,77
 217.142567506 641.010925691 217.142567506 641.010925691 201.424804688 636.912109375 c 0,78,79
 154.730470433 625.649957075 154.730470433 625.649957075 108.68359375 605.408203125 c 0,80,81
 63.3566880469 585.482921543 63.3566880469 585.482921543 55.4716796875 582.297851562 c 0,82,83
 51.2611705997 580.596519566 51.2611705997 580.596519566 42.078125 589.100585938 c 0,84,85
 37.5479018225 593.475978703 37.5479018225 593.475978703 36.5380859375 600.248046875 c 1,86,87
 47.6868498826 611.634847317 47.6868498826 611.634847317 65.349609375 621.055664062 c 0,88,89
 87.8752207501 633.590407733 87.8752207501 633.590407733 121.809570312 645.392578125 c 0,90,91
 152.789962071 656.211987822 152.789962071 656.211987822 181.247070312 661.315429688 c 0,92,93
 212.673911058 667.010098575 212.673911058 667.010098575 241.556640625 667.498046875 c 0,19,20
304.555664062 252.110351562 m 1,94,-1
 304.555664062 252.110351562 l 1,94,-1
331.911132812 607.172851562 m 1,95,-1
 331.911132812 607.172851562 l 1,95,-1
317.360351562 231.400390625 m 1025,96,-1
304.297851562 253.077148438 m 1025,97,-1
332.91015625 607.239257812 m 1025,98,-1
303.782226562 255.010742188 m 1025,99,-1
303.264648438 256.943359375 m 1025,100,-1
EndSplineSet
Validated: 2081
EndChar

StartChar: A
Encoding: 65 65 9
Width: 508
VWidth: 1084
Flags: W
LayerCount: 2
Fore
SplineSet
128.348632812 193.103515625 m 2,0,-1
 125.296875 205.497070312 l 1,1,-1
 128.495117188 213.3515625 l 1,2,-1
 130.061523438 214.314453125 l 1,3,4
 206.117868151 219.523041874 206.117868151 219.523041874 260.776367188 231.930664062 c 1,5,6
 287.856391621 266.332013666 287.856391621 266.332013666 288.83835206 272.411612302 c 0,7,8
 295.515388464 313.751059155 295.515388464 313.751059155 299.708866107 352.191447546 c 0,9,10
 321.398958495 551.018208198 321.398958495 551.018208198 390.530273438 652.953125 c 0,11,12
 421.830442502 698.132784496 421.830442502 698.132784496 446.546568907 698.252915686 c 128,-1,13
 471.262695312 698.373046875 471.262695312 698.373046875 471.262695312 648 c 0,14,15
 470.599344467 599.957790256 470.599344467 599.957790256 460.737660514 565.011121691 c 0,16,17
 436.032839486 477.465100482 436.032839486 477.465100482 414.509095524 431.777960397 c 0,18,19
 378.119464132 354.535906692 378.119464132 354.535906692 328.485351562 265.000976562 c 1,20,21
 327.490255286 252.87540664 327.490255286 252.87540664 326.833007812 242.635742188 c 1,22,23
 345.926804492 246.094470187 345.926804492 246.094470187 380.370117188 253.012695312 c 2,24,-1
 444.23828125 265.841796875 l 2,25,26
 470.592526273 271.137695312 470.592526273 271.137695312 472.84375 271.137695312 c 0,27,28
 517.1484375 267.875 517.1484375 267.875 517.1484375 259.873046875 c 0,29,30
 513.62545256 254.127244847 513.62545256 254.127244847 324.083007812 208.857421875 c 1,31,32
 322.228515625 170.249212655 322.228515625 170.249212655 322.228515625 125.237737343 c 128,-1,33
 322.228515625 80.2262620317 322.228515625 80.2262620317 323.192871094 42.1575821693 c 128,-1,34
 324.157226562 4.0889023069 324.157226562 4.0889023069 320.276367188 2.220703125 c 1,35,-1
 304.24609375 -0.0771484375 l 1,36,37
 296.09968688 -0.0771484375 296.09968688 -0.0771484375 294.501953125 5.041015625 c 1,38,39
 293.41015625 15.455078125 293.41015625 15.455078125 292.0546875 34.453125 c 128,-1,40
 290.700195312 53.3720703125 290.700195312 53.3720703125 289.69140625 64.169921875 c 0,41,42
 286.9219688 93.7628755661 286.9219688 93.7628755661 278.264695337 116.779875283 c 128,-1,43
 269.607421875 139.796875 269.607421875 139.796875 243.737304688 154.6953125 c 1,44,45
 186.968540182 88.8065770511 186.968540182 88.8065770511 169.855363841 72.9330736818 c 0,46,47
 70.0182466051 -19.671875 70.0182466051 -19.671875 7.2109375 -19.671875 c 0,48,49
 -15.4453095995 -19.671875 -15.4453095995 -19.671875 -37.7734375 2.40625 c 0,50,51
 -38.451171875 4.640625 -38.451171875 4.640625 -37.67578125 5.3115234375 c 0,52,53
 -33.6318359375 6.64453125 -33.6318359375 6.64453125 -31.052734375 6.64453125 c 2,54,-1
 -15.4111328125 5.98046875 l 1,55,56
 72.1022487844 5.98046875 72.1022487844 5.98046875 192.561523438 149.66015625 c 0,57,58
 201.255859375 160.029296875 201.255859375 160.029296875 211.66796875 172.700195312 c 1,59,60
 175.082565049 190.400390625 175.082565049 190.400390625 133.998046875 190.400390625 c 0,61,62
 128.348632812 190.400390625 128.348632812 190.400390625 128.348632812 193.103515625 c 2,0,-1
331.1484375 337.482421875 m 1,63,64
 338.836277319 352.761428078 338.836277319 352.761428078 355.036302722 384.155616383 c 128,-1,65
 371.236328125 415.549804688 371.236328125 415.549804688 388.146839547 450.760257691 c 128,-1,66
 405.05735097 485.970710695 405.05735097 485.970710695 425.384144235 554.011191089 c 128,-1,67
 445.7109375 622.051671483 445.7109375 622.051671483 445.7109375 643.901340364 c 0,68,69
 445.7109375 667.780273438 445.7109375 667.780273438 438.415039062 667.780273438 c 0,70,71
 430.084631737 667.780273438 430.084631737 667.780273438 421.301593212 653.298339844 c 0,72,73
 374.839535719 576.68926778 374.839535719 576.68926778 356.732421875 491.321289062 c 0,74,75
 336.564207281 396.273280207 336.564207281 396.273280207 331.1484375 337.482421875 c 1,63,64
231.297851562 195.374023438 m 1,76,-1
 237.383789062 201.420898438 l 1,77,-1
 225.61328125 200.141601562 l 2,78,79
 220.801757812 199.650390625 220.801757812 199.650390625 217.436523438 199.297851562 c 1,80,81
 225.91015625 197.44140625 225.91015625 197.44140625 231.297851562 195.374023438 c 1,76,-1
289.626953125 203.27734375 m 1,82,-1
 282.268554688 202.329101562 l 1,83,-1
 262.353515625 178.412109375 l 1,84,85
 278.1368253 166.332929786 278.1368253 166.332929786 288.014648438 153.62109375 c 1,86,87
 288.202148438 163.022460938 288.202148438 163.022460938 288.655273438 174.709960938 c 0,88,89
 289.425128471 194.566911438 289.425128471 194.566911438 289.626953125 203.27734375 c 1,82,-1
EndSplineSet
Validated: 33
EndChar

StartChar: B
Encoding: 66 66 10
Width: 550
VWidth: 875
Flags: W
LayerCount: 2
Fore
SplineSet
183.280273438 277.162109375 m 0,0,1
 149.69140625 121.482910156 149.69140625 121.482910156 142.291992188 83.2998046875 c 0,2,3
 142.173930132 82.6871583442 142.173930132 82.6871583442 142.670898438 82.3115234375 c 0,4,5
 163.593862899 66.5078055044 163.593862899 66.5078055044 196.46484375 55.1337890625 c 128,-1,6
 229.317570915 43.7676102019 229.317570915 43.7676102019 259.791992188 42.001953125 c 0,7,8
 307.797864021 39.2205536067 307.797864021 39.2205536067 356.1875 54.244140625 c 128,-1,9
 404.607645685 69.2770465446 404.607645685 69.2770465446 438.51171875 99.2509765625 c 0,10,11
 463.850089557 124.586417682 463.850089557 124.586417682 463.848632812 149 c 128,-1,12
 463.850078477 173.590754576 463.850078477 173.590754576 423.33203125 195.875976562 c 0,13,14
 405.330964513 203.726536666 405.330964513 203.726536666 303.0859375 228.971679688 c 0,15,16
 235.127441406 245.474609375 235.127441406 245.474609375 184.797851562 277.79296875 c 0,17,18
 183.887830475 278.377588358 183.887830475 278.377588358 183.280273438 277.162109375 c 0,0,1
311.849609375 678 m 0,19,20
 466.805288107 678 466.805288107 678 466.849609375 609.0390625 c 1,21,22
 461.844596525 546.500755375 461.844596525 546.500755375 321.249023438 442.798828125 c 0,23,24
 227.103905797 370.687362277 227.103905797 370.687362277 209.008789062 342.541015625 c 2,25,-1
 208.970703125 342.477539062 l 2,26,27
 208.289262437 341.222331216 208.289262437 341.222331216 205.705078125 336.736328125 c 128,-1,28
 203.093328016 332.206251977 203.093328016 332.206251977 202.453125 330.768554688 c 128,-1,29
 201.808844788 329.322068746 201.808844788 329.322068746 200.708984375 325.705078125 c 0,30,31
 199.535918744 321.844375179 199.535918744 321.844375179 200.310546875 319.513671875 c 0,32,33
 201.021368075 317.385490331 201.021368075 317.385490331 202.825195312 314.315429688 c 128,-1,34
 204.665055435 311.185785639 204.665055435 311.185785639 208.20703125 308.233398438 c 0,35,36
 251.400529767 272.071706043 251.400529767 272.071706043 319.642578125 258.021484375 c 0,37,38
 385.597441403 244.030792524 385.597441403 244.030792524 427.544921875 231.047851562 c 0,39,40
 502.849609375 206.275516988 502.849609375 206.275516988 502.849609375 144 c 2,41,-1
 502.856445312 143.1171875 l 1,42,43
 496.90790654 92.5465276735 496.90790654 92.5465276735 435.2578125 46.8056640625 c 0,44,45
 373.525107696 2 373.525107696 2 258.849609375 2 c 2,46,-1
 249.849609375 2.0009765625 l 2,47,48
 217.029924521 1.99951061267 217.029924521 1.99951061267 179.185546875 15.94140625 c 0,49,50
 146.813648035 27.1239200821 146.813648035 27.1239200821 116.631835938 46.25 c 0,51,52
 62.8895114898 80.3070157728 62.8895114898 80.3070157728 49.6591796875 119.861328125 c 0,53,54
 44.3536535871 135.730162659 44.3536535871 135.730162659 54.86328125 175.51171875 c 1,55,-1
 58.2587890625 183.018554688 l 2,56,57
 58.7979917337 181.867318652 58.7979917337 181.867318652 59.330078125 180.462890625 c 0,58,59
 60.4453795046 177.514990174 60.4453795046 177.514990174 61.12109375 176.317382812 c 0,60,61
 65.768253572 168.066916569 65.768253572 168.066916569 73.0135117204 154.194759429 c 128,-1,62
 80.2587698687 140.322602288 80.2587698687 140.322602288 84.130775389 133.405704438 c 128,-1,63
 88.0027809094 126.488806589 88.0027809094 126.488806589 94.4796982438 117.921199858 c 128,-1,64
 100.956615578 109.353593128 100.956615578 109.353593128 108.177734375 103.4296875 c 0,65,66
 109.013811237 102.744288227 109.013811237 102.744288227 109.631835938 103.630859375 c 0,67,68
 208.462890625 581.169921875 208.462890625 581.169921875 212.831054688 603.810546875 c 0,69,70
 213.490127116 607.224058073 213.490127116 607.224058073 216.404296875 609.16796875 c 0,71,72
 222.211039493 614 222.211039493 614 229.848632812 614 c 0,73,74
 247.849609375 614 247.849609375 614 247.849609375 597 c 0,75,76
 247.849609375 592.11240505 247.849609375 592.11240505 237.87109375 548.208984375 c 0,77,78
 237.116699219 544.431152344 237.116699219 544.431152344 224.993164062 486.63671875 c 128,-1,79
 212.864257812 428.814941406 212.864257812 428.814941406 208.275390625 401.287109375 c 0,80,81
 208.098851597 400.220519415 208.098851597 400.220519415 209.17578125 400.126953125 c 0,82,83
 209.574422238 400.092484167 209.574422238 400.092484167 209.885742188 400.340820312 c 0,84,85
 232.486816406 418.374511719 232.486816406 418.374511719 275.78515625 455.34765625 c 128,-1,86
 319.060806218 492.301173482 319.060806218 492.301173482 333.500976562 504.241210938 c 0,87,88
 425.851022779 586.552313055 425.851022779 586.552313055 425.849609375 609 c 0,89,90
 425.849609375 625.75325587 425.849609375 625.75325587 383.129882812 637.959960938 c 0,91,92
 343.00032283 650 343.00032283 650 287.849609375 650 c 128,-1,93
 232.723144531 650 232.723144531 650 169.6328125 635.975585938 c 1,94,95
 116.505371094 619.940429688 116.505371094 619.940429688 63.955078125 597.418945312 c 128,-1,96
 11.416011811 574.901365281 11.416011811 574.901365281 5.40234375 571.89453125 c 0,97,98
 -16.261660897 561.066619047 -16.261660897 561.066619047 -40.08984375 563.201171875 c 0,99,100
 -59.4834211358 564.937801697 -59.4834211358 564.937801697 -68.455078125 572.158203125 c 0,101,102
 -68.5724803302 572.252825798 -68.5724803302 572.252825798 -68.8955078125 572.555664062 c 1,103,104
 69.3069165804 639.700246953 69.3069165804 639.700246953 182.053710938 665.020507812 c 0,105,106
 249.94655203 678 249.94655203 678 311.849609375 678 c 0,19,20
EndSplineSet
Validated: 33
EndChar

StartChar: C
Encoding: 67 67 11
Width: 466
VWidth: 875
Flags: W
LayerCount: 2
Fore
SplineSet
327.59417435 666.287076004 m 4,0,1
 352.363013864 660.592665441 352.363013864 660.592665441 369.538585553 649.748992462 c 4,2,3
 378.141059604 644.319980786 378.141059604 644.319980786 387.373981537 636.307295926 c 132,-1,4
 396.60690347 628.294611067 396.60690347 628.294611067 406.488428392 617.690531301 c 6,5,-1
 406.581121883 617.574962782 l 6,6,7
 408.309916425 615.058030267 408.309916425 615.058030267 409.078245543 613.402419325 c 132,-1,8
 409.846574661 611.746808384 409.846574661 611.746808384 409.672031315 610.520881888 c 4,9,10
 409.344733654 608.177008316 409.344733654 608.177008316 401.390872935 609.506400342 c 4,11,12
 397.468764144 610.160110396 397.468764144 610.160110396 391.64169434 611.851385437 c 132,-1,13
 385.814624536 613.542660477 385.814624536 613.542660477 377.749846156 616.315211878 c 132,-1,14
 369.685067777 619.087763279 369.685067777 619.087763279 359.248011244 622.982063052 c 4,15,16
 351.702943203 625.797886847 351.702943203 625.797886847 345.845114808 627.823112867 c 132,-1,17
 339.987286413 629.848338886 339.987286413 629.848338886 336.333568813 630.927950159 c 132,-1,18
 332.679851214 632.007561431 332.679851214 632.007561431 331.012525242 632.237165636 c 4,19,20
 262.070313765 625.916040544 262.070313765 625.916040544 154.849697137 481.578623691 c 4,21,22
 101.923485671 408.810565309 101.923485671 408.810565309 78.2504947273 328.222126456 c 4,23,24
 68.5034751927 295.032871048 68.5034751927 295.032871048 66.3419255356 263.48332696 c 132,-1,25
 64.1803758785 231.933782872 64.1803758785 231.933782872 69.5982615903 202.037522594 c 4,26,27
 79.7374665562 146.033308533 79.7374665562 146.033308533 100.388337389 108.669086771 c 132,-1,28
 121.039208222 71.3048650101 121.039208222 71.3048650101 152.146976534 52.5102256591 c 4,29,30
 193.550372802 27.4971210137 193.550372802 27.4971210137 256.171019577 50.3378997944 c 4,31,32
 260.694958028 51.9879265336 260.694958028 51.9879265336 265.398382321 54.0095432325 c 132,-1,33
 270.101806614 56.0311599313 270.101806614 56.0311599313 274.983579332 58.4242430145 c 4,34,35
 284.70352239 63.1901505784 284.70352239 63.1901505784 294.417010961 69.0156156915 c 132,-1,36
 304.082048226 74.8166910093 304.082048226 74.8166910093 313.397472997 80.9156850184 c 132,-1,37
 322.699570799 87.0071951993 322.699570799 87.0071951993 332.959197786 94.2909928964 c 132,-1,38
 343.2940748 101.628111841 343.2940748 101.628111841 351.887355221 107.863113531 c 132,-1,39
 360.353204748 114.005428042 360.353204748 114.005428042 371.15374526 121.769101687 c 4,40,41
 381.717593028 129.360355689 381.717593028 129.360355689 389.716726459 134.845256036 c 4,42,43
 392.172897487 136.529363903 392.172897487 136.529363903 395.279545892 138.965722315 c 132,-1,44
 398.317013913 141.346794515 398.317013913 141.346794515 400.700306907 143.305022953 c 132,-1,45
 402.996470778 145.19073266 402.996470778 145.19073266 405.968986652 147.354300622 c 132,-1,46
 408.924596561 149.506400501 408.924596561 149.506400501 411.500334094 151.003193517 c 4,47,48
 416.920776318 154.154404827 416.920776318 154.154404827 427.990874484 158.639779263 c 4,49,50
 432.334265259 160.398602084 432.334265259 160.398602084 435.560227874 161.72470824 c 4,51,52
 436.560780876 162.136007413 436.560780876 162.136007413 436.892311743 161.106269289 c 4,53,54
 436.899903774 160.462246587 436.899903774 160.462246587 436.807236409 160.301160418 c 4,55,56
 435.441653575 157.927331114 435.441653575 157.927331114 433.018679829 153.929282407 c 6,57,-1
 431.232547017 150.964438657 l 5,58,59
 383.492677454 90.1465925757 383.492677454 90.1465925757 318.790830755 44.9291224201 c 4,60,61
 273.536821091 13.4448240449 273.536821091 13.4448240449 226.337572079 5.01749551485 c 4,62,63
 215.757293841 2.28462587783 215.757293841 2.28462587783 205.207274563 1.50856308942 c 4,64,65
 174.901610307 -0.724501381448 174.901610307 -0.724501381448 149.501125083 10.6346393056 c 4,66,67
 115.507776951 24.6144792377 115.507776951 24.6144792377 88.9376615007 56.1268451554 c 132,-1,68
 62.2669969742 87.7559704209 62.2669969742 87.7559704209 47.1646875652 127.547489964 c 132,-1,69
 32.0354892575 167.407900119 32.0354892575 167.407900119 27.7808338414 211.959758352 c 6,70,-1
 27.4235961435 216.821127337 l 6,71,72
 22.5933190754 282.447688925 22.5933190754 282.447688925 40.4655724567 344.713403447 c 4,73,74
 64.4851081588 428.392046281 64.4851081588 428.392046281 117.882000661 501.986664088 c 4,75,76
 188.973872738 599.972455715 188.973872738 599.972455715 265.699921776 646.183798133 c 4,77,78
 285.317909297 657.998301889 285.317909297 657.998301889 300.743984318 663.04088664 c 132,-1,79
 316.170059339 668.083471391 316.170059339 668.083471391 327.59417435 666.287076004 c 4,0,1
405.756835938 617.008789062 m 1029,80,-1
406.5390625 617.63671875 m 1029,81,-1
432.041015625 150.331054688 m 1029,82,-1
407.3359375 618.27734375 m 1029,83,-1
EndSplineSet
Validated: 33
EndChar

StartChar: D
Encoding: 68 68 12
Width: 674
VWidth: 875
Flags: W
LayerCount: 2
Fore
SplineSet
324.940429688 670.169921875 m 4,0,1
 481.740234375 670.169921875 481.740234375 670.169921875 568.959960938 553.549804688 c 4,2,3
 637.559570312 463.389648438 637.559570312 463.389648438 637.559570312 354.610351562 c 4,4,5
 637.559570312 231.129882812 637.559570312 231.129882812 554.259765625 157.629882812 c 4,6,7
 518 125.290039062 518 125.290039062 490.559570312 111.5703125 c 4,8,9
 408.240234375 70.41015625 408.240234375 70.41015625 313.1796875 40.0302734375 c 132,-1,10
 218.120117188 9.650390625 218.120117188 9.650390625 143.639648438 2.7900390625 c 4,11,12
 125.01953125 0.830078125 125.01953125 0.830078125 111.299804688 0.830078125 c 4,13,14
 82.8798828125 0.830078125 82.8798828125 0.830078125 82.8798828125 24.349609375 c 4,15,16
 82.8798828125 29.25 82.8798828125 29.25 90.23046875 32.6796875 c 132,-1,17
 97.580078125 36.1103515625 97.580078125 36.1103515625 114.240234375 40.0302734375 c 132,-1,18
 130.900390625 43.9501953125 130.900390625 43.9501953125 132.860351562 44.9296875 c 4,19,20
 153.658203125 51.1630859375 153.658203125 51.1630859375 193.370117188 57.40234375 c 132,-1,21
 233.08203125 63.640625 233.08203125 63.640625 248.990234375 67.4697265625 c 4,22,23
 313.201171875 82.9248046875 313.201171875 82.9248046875 357.76953125 98.830078125 c 4,24,25
 444.176757812 129.666015625 444.176757812 129.666015625 474.389648438 148.809570312 c 4,26,27
 523.879882812 180.169921875 523.879882812 180.169921875 558.1796875 222.309570312 c 132,-1,28
 592.48046875 264.450195312 592.48046875 264.450195312 592.48046875 349.709960938 c 4,29,30
 592.48046875 370.290039062 592.48046875 370.290039062 589.540039062 393.809570312 c 4,31,32
 583.66015625 456.530273438 583.66015625 456.530273438 542.5 512.879882812 c 4,33,34
 493.900390625 579.415039062 493.900390625 579.415039062 441.559570312 602.549804688 c 4,35,36
 371.98046875 632.9296875 371.98046875 632.9296875 309.259765625 629.009765625 c 4,37,38
 181.860351562 620.190429688 181.860351562 620.190429688 75.0400390625 546.690429688 c 4,39,40
 29.9599609375 514.349609375 29.9599609375 514.349609375 17.2197265625 514.349609375 c 4,41,42
 6.4404296875 514.349609375 6.4404296875 514.349609375 6.4404296875 522.190429688 c 4,43,44
 6.4404296875 536.889648438 6.4404296875 536.889648438 32.900390625 564.330078125 c 4,45,46
 86.7998046875 624.110351562 86.7998046875 624.110351562 212.240234375 655.469726562 c 4,47,48
 276.919921875 670.169921875 276.919921875 670.169921875 324.940429688 670.169921875 c 4,0,1
287.700195312 511.41015625 m 4,49,50
 296.51953125 531.990234375 296.51953125 531.990234375 301.419921875 531.990234375 c 4,51,52
 305.33984375 531.990234375 305.33984375 531.990234375 308.280273438 520.23046875 c 132,-1,53
 311.219726562 508.469726562 311.219726562 508.469726562 311.219726562 493.76953125 c 4,54,55
 311.219726562 468.290039062 311.219726562 468.290039062 301.419921875 438.889648438 c 6,56,-1
 300.440429688 434.969726562 l 5,57,58
 230.860351562 217.41015625 230.860351562 217.41015625 222.040039062 95.8896484375 c 4,59,60
 221.059570312 88.0498046875 221.059570312 88.0498046875 220.5703125 85.1103515625 c 132,-1,61
 220.080078125 82.169921875 220.080078125 82.169921875 219.099609375 80.2099609375 c 6,62,-1
 218.120117188 80.2099609375 l 6,63,64
 216.16015625 80.2099609375 216.16015625 80.2099609375 215.1796875 82.169921875 c 4,65,66
 212.240234375 86.08984375 212.240234375 86.08984375 207.33984375 94.91015625 c 4,67,68
 193.620117188 119.41015625 193.620117188 119.41015625 193.620117188 159.58984375 c 6,69,-1
 193.620117188 167.4296875 l 5,70,71
 204.400390625 268.370117188 204.400390625 268.370117188 249.48046875 412.4296875 c 4,72,73
 278.879882812 494.75 278.879882812 494.75 287.700195312 511.41015625 c 4,49,50
EndSplineSet
Validated: 33
EndChar

StartChar: E
Encoding: 69 69 13
Width: 467
VWidth: 875
Flags: W
LayerCount: 2
Fore
SplineSet
136.959960938 578.719726562 m 0,0,1
 143.835347276 601.311567835 143.835347276 601.311567835 213.45703125 638.110351562 c 0,2,3
 291.237316817 677.000494346 291.237316817 677.000494346 336 676.999023438 c 0,4,5
 369.126065318 677.000491206 369.126065318 677.000491206 404.65625 652.75390625 c 0,6,7
 424.303710938 637.47270613 424.303710938 637.47270613 424.303710938 633.84375 c 0,8,9
 424.303710938 633.40409216 424.303710938 633.40409216 422.854492188 633.365234375 c 0,10,11
 420.090565487 633.365234375 420.090565487 633.365234375 401.120117188 636.900390625 c 0,12,13
 375.907064196 640.956066473 375.907064196 640.956066473 347.999023438 641 c 0,14,15
 322.834186422 641 322.834186422 641 280.176757812 626.446289062 c 0,16,17
 277.483917839 625.1488325 277.483917839 625.1488325 265.224609375 620.067382812 c 128,-1,18
 252.918250577 614.968176173 252.918250577 614.968176173 242.971679688 610.143554688 c 128,-1,19
 232.908959966 605.260632128 232.908959966 605.260632128 229.298828125 601.712890625 c 2,20,-1
 229.04296875 601.291992188 l 1,21,22
 211.046196094 542.302489304 211.046196094 542.302489304 188.0546875 474.327148438 c 2,23,-1
 150.451171875 365.930664062 l 2,24,25
 150.09694228 364.908353781 150.09694228 364.908353781 151.143554688 364.634765625 c 0,26,27
 151.429273509 364.560039164 151.429273509 364.560039164 151.708984375 364.65234375 c 0,28,29
 195.839219967 379.164932193 195.839219967 379.164932193 276.819335938 395.178710938 c 0,30,31
 287.288386052 396.981445312 287.288386052 396.981445312 294.03125 396.981445312 c 0,32,33
 295.66273329 396.981445312 295.66273329 396.981445312 297.084960938 396.875 c 0,34,35
 301.143554688 396.568377105 301.143554688 396.568377105 301.143554688 394.950195312 c 0,36,37
 301.143554688 394.030945076 301.143554688 394.030945076 300.166992188 392.565429688 c 0,38,39
 296.816180634 387.536934959 296.816180634 387.536934959 281.55859375 378.8984375 c 0,40,41
 277.540459315 377.150959655 277.540459315 377.150959655 220.465820312 354.215820312 c 128,-1,42
 163.338873002 331.258946811 163.338873002 331.258946811 133.505859375 315.076171875 c 0,43,44
 133.155456701 314.886122967 133.155456701 314.886122967 133.03125 314.505859375 c 0,45,46
 113.535644531 254.395996094 113.535644531 254.395996094 103.5390625 219.776367188 c 0,47,48
 85 155.210045903 85 155.210045903 85 120 c 0,49,50
 85 48.0666386231 85 48.0666386231 128.92578125 45.0029296875 c 0,51,52
 131.03523763 44.845703125 131.03523763 44.845703125 133.233398438 44.845703125 c 0,53,54
 166.069388422 44.845703125 166.069388422 44.845703125 213.37109375 80.3701171875 c 0,55,56
 233.713976518 95.6480969356 233.713976518 95.6480969356 266.715820312 131.149414062 c 0,57,58
 271.921875 136.749511719 271.921875 136.749511719 278.534179688 144.088867188 c 128,-1,59
 285.145019531 151.424804688 285.145019531 151.424804688 288.489257812 155.090820312 c 128,-1,60
 291.821777344 158.744140625 291.821777344 158.744140625 295.583007812 162.529296875 c 128,-1,61
 299.282761547 166.253725311 299.282761547 166.253725311 301.493164062 167.67578125 c 128,-1,62
 303.547507616 169 303.547507616 169 305 169 c 0,63,64
 312 169 312 169 312 160 c 0,65,66
 312 148.349740312 312 148.349740312 284.213867188 113.618164062 c 0,67,68
 257.259481582 78.6778902601 257.259481582 78.6778902601 229.327148438 52.7392578125 c 0,69,70
 173.611248197 2 173.611248197 2 128 2 c 128,-1,71
 82.5679224377 2 82.5679224377 2 54.86328125 48.50390625 c 0,72,73
 41 72.2714158153 41 72.2714158153 41 103 c 0,74,75
 41 204.818146471 41 204.818146471 146.93359375 483.640625 c 0,76,77
 158.617840587 514.000920428 158.617840587 514.000920428 178.715820312 577.580078125 c 0,78,79
 179.043495208 578.612806307 179.043495208 578.612806307 177.98828125 578.85546875 c 0,80,81
 177.65047762 578.935125501 177.65047762 578.935125501 177.3359375 578.786132812 c 0,82,83
 173.852955405 577.14091231 173.852955405 577.14091231 160.006835938 569.391601562 c 0,84,85
 146.43822389 561.800262131 146.43822389 561.800262131 138.595703125 558.680664062 c 0,86,87
 134.587890625 558.845980743 134.587890625 558.845980743 134.587890625 565.217773438 c 0,88,89
 134.587890625 570.222107868 134.587890625 570.222107868 136.959960938 578.719726562 c 0,0,1
404.65625 652.75390625 m 1,90,-1
 404.65625 652.75390625 l 1,90,-1
EndSplineSet
Validated: 33
EndChar

StartChar: F
Encoding: 70 70 14
Width: 490
VWidth: 875
Flags: W
LayerCount: 2
Fore
SplineSet
540 675.596679688 m 4,0,1
 549.556653721 676.069386824 549.556653721 676.069386824 558.203051895 676.069386824 c 0,2,3
 629.866615406 676.069386824 629.866615406 676.069386824 639 643.596679688 c 4,4,5
 640 636.595703125 640 636.595703125 640 631.596679688 c 4,6,7
 640 622.596679688 640 622.596679688 634 622.596679688 c 4,8,9
 627 622.596679688 627 622.596679688 614 631.596679688 c 4,10,11
 598.929881929 641.284612733 598.929881929 641.284612733 556.534824497 641.284612733 c 0,12,13
 545.237574236 641.284612733 545.237574236 641.284612733 532 640.596679688 c 4,14,15
 491.942382812 638.514648438 491.942382812 638.514648438 428.306640625 629.215820312 c 132,-1,16
 364.671875 619.916992188 364.671875 619.916992188 324 608.596679688 c 4,17,18
 323 606.595703125 323 606.595703125 316 586.596679688 c 4,19,20
 310.161132812 570.415039062 310.161132812 570.415039062 289.103515625 511.19921875 c 132,-1,21
 268.045898438 451.983398438 268.045898438 451.983398438 256 419.596679688 c 5,22,23
 331.731445312 439.719726562 331.731445312 439.719726562 388.296875 447.884765625 c 4,24,25
 406.111565485 450.456134129 406.111565485 450.456134129 419.759391276 450.456134129 c 0,26,27
 442.010510081 450.456134129 442.010510081 450.456134129 453.185546875 443.62109375 c 4,28,29
 456.178118709 441.790534788 456.178118709 441.790534788 456.178118709 440.025718354 c 0,30,31
 456.178118709 436.691423199 456.178118709 436.691423199 445.49609375 433.591796875 c 4,32,33
 443.834960938 433.110351562 443.834960938 433.110351562 441.926757812 432.65234375 c 4,34,35
 435.642578125 430.927734375 435.642578125 430.927734375 374.372070312 414.8125 c 132,-1,36
 313.1015625 398.697265625 313.1015625 398.697265625 284 389.596679688 c 4,37,38
 252 379.595703125 252 379.595703125 238 371.596679688 c 5,39,40
 216.221679688 320.947265625 216.221679688 320.947265625 187 257.596679688 c 4,41,42
 114 95.5966796875 114 95.5966796875 114 52.5966796875 c 4,43,44
 114 44.595703125 114 44.595703125 118 36.5966796875 c 4,45,46
 122 29.595703125 122 29.595703125 122 24.5966796875 c 4,47,48
 122 11.783203125 122 11.783203125 113.813476562 6.3251953125 c 4,49,50
 105.220703125 0.5966796875 105.220703125 0.5966796875 93 0.5966796875 c 4,51,52
 70 0.5966796875 70 0.5966796875 70 46.5966796875 c 5,53,54
 75.552734375 94.13671875 75.552734375 94.13671875 93.6064453125 143.14453125 c 132,-1,55
 111.659179688 192.15234375 111.659179688 192.15234375 143.021484375 256.810546875 c 132,-1,56
 174.383789062 321.467773438 174.383789062 321.467773438 186 349.596679688 c 5,57,58
 168.193359375 340.173828125 168.193359375 340.173828125 113 313.596679688 c 4,59,60
 51.9296875 283.596679688 51.9296875 283.596679688 37 283.596679688 c 6,61,-1
 34 283.596679688 l 5,62,-1
 33 283.596679688 l 6,63,64
 25 287.595703125 25 287.595703125 25 298.096679688 c 4,65,66
 25 306.596679688 25 306.596679688 50 322.596679688 c 4,67,68
 75 337.596679688 75 337.596679688 134 366.596679688 c 4,69,70
 186.798828125 392.084960938 186.798828125 392.084960938 207 403.596679688 c 5,71,72
 257.923828125 536.315429688 257.923828125 536.315429688 277.852539062 595.994140625 c 5,73,74
 220.0234375 577.500976562 220.0234375 577.500976562 169 558.596679688 c 4,75,76
 82 525.596679688 82 525.596679688 58 525.596679688 c 4,77,78
 52 525.596679688 52 525.596679688 48 531.596679688 c 4,79,80
 46 534.596679688 46 534.596679688 46 537.596679688 c 4,81,82
 46 547.595703125 46 547.595703125 64 558.596679688 c 4,83,84
 76 565.595703125 76 565.595703125 99 572.596679688 c 4,85,86
 195.58203125 603.38671875 195.58203125 603.38671875 250.990234375 619.73828125 c 132,-1,87
 306.397460938 636.088867188 306.397460938 636.088867188 390.091796875 653.975585938 c 132,-1,88
 473.786132812 671.862304688 473.786132812 671.862304688 540 675.596679688 c 4,0,1
EndSplineSet
Validated: 1
EndChar

StartChar: G
Encoding: 71 71 15
Width: 541
VWidth: 965
Flags: W
LayerCount: 2
Fore
SplineSet
383.723632812 656.514648438 m 4,0,1
 411.051757812 670.68359375 411.051757812 670.68359375 438.341796875 670.68359375 c 4,2,3
 480.435546875 670.68359375 480.435546875 670.68359375 493.469726562 629.575195312 c 4,4,5
 497.500976562 619.490234375 497.500976562 619.490234375 497.501953125 612.543945312 c 4,6,7
 497.501953125 603.244140625 497.501953125 603.244140625 490.235351562 602.3359375 c 4,8,9
 488.918945312 601.323242188 488.918945312 601.323242188 488.322265625 601.323242188 c 4,10,11
 479.532226562 601.323242188 479.532226562 601.323242188 464.537109375 614.310546875 c 4,12,13
 448.969726562 629.862304688 448.969726562 629.862304688 429.215820312 630.901367188 c 4,14,15
 382.8515625 630.903320312 382.8515625 630.903320312 305.030273438 556.153320312 c 4,16,17
 210.98828125 463.0625 210.98828125 463.0625 152.848632812 345.756835938 c 4,18,19
 91.986328125 222.959960938 91.986328125 222.959960938 88.4833984375 133.166992188 c 4,20,21
 88.2255859375 93.21875 88.2255859375 93.21875 112.248046875 69.685546875 c 4,22,23
 142.823242188 39.732421875 142.823242188 39.732421875 181.451171875 45.4345703125 c 4,24,25
 219.705078125 51.0810546875 219.705078125 51.0810546875 257.59375 100.90625 c 4,26,27
 287.665039062 140.451171875 287.665039062 140.451171875 300.870117188 158.821289062 c 132,-1,28
 314.087890625 177.2109375 314.087890625 177.2109375 335.076171875 213.171875 c 132,-1,29
 356.0703125 249.142578125 356.0703125 249.142578125 375.016601562 291.856445312 c 4,30,31
 402.506835938 354.98046875 402.506835938 354.98046875 422.831054688 381.40234375 c 4,32,33
 428.6875 390.184570312 428.6875 390.184570312 436.302734375 390.182617188 c 6,34,-1
 438.233398438 390.18359375 l 6,35,36
 447.079101562 388.11328125 447.079101562 388.11328125 452.868164062 381.359375 c 4,37,38
 455.682617188 378.540039062 455.682617188 378.540039062 455.682617188 373.86328125 c 4,39,40
 455.682617188 370.206054688 455.682617188 370.206054688 454.959960938 369.483398438 c 6,41,-1
 454.73828125 369.149414062 l 5,42,43
 427.193359375 301.818359375 427.193359375 301.818359375 413.921875 265.0703125 c 132,-1,44
 400.639648438 228.28515625 400.639648438 228.28515625 388.897460938 175.697265625 c 4,45,46
 374.109375 109.477539062 374.109375 109.477539062 377.146484375 74.9140625 c 4,47,48
 378.942382812 54.4697265625 378.942382812 54.4697265625 392.528320312 23.591796875 c 4,49,50
 402.642578125 4.369140625 402.642578125 4.369140625 402.642578125 -2.5166015625 c 6,51,-1
 402.642578125 -4.556640625 l 6,52,53
 404.639648438 -10.119140625 404.639648438 -10.119140625 396.858398438 -11.0498046875 c 4,54,55
 379.915039062 -11.5400390625 379.915039062 -11.5400390625 365.724609375 7.2666015625 c 4,56,57
 344.953125 36.478515625 344.953125 36.478515625 339.391601562 74.1328125 c 4,58,59
 337.7421875 81.142578125 337.7421875 81.142578125 338.436523438 93.2080078125 c 132,-1,60
 339.137695312 105.377929688 339.137695312 105.377929688 340.146484375 112.66796875 c 132,-1,61
 341.15625 119.983398438 341.15625 119.983398438 343.052734375 131.884765625 c 132,-1,62
 344.951171875 143.81640625 344.951171875 143.81640625 345.671875 150.305664062 c 4,63,64
 345.793945312 151.403320312 345.793945312 151.403320312 344.690429688 151.436523438 c 4,65,66
 338.55078125 143.856445312 338.55078125 143.856445312 323.961914062 122.2265625 c 132,-1,67
 309.38671875 100.615234375 309.38671875 100.615234375 304.416015625 93.9765625 c 4,68,69
 290.680664062 75.6611328125 290.680664062 75.6611328125 268.278320312 51.73046875 c 132,-1,70
 245.95703125 27.888671875 245.95703125 27.888671875 222.651367188 15.728515625 c 132,-1,71
 199.409179688 3.603515625 199.409179688 3.603515625 176.202148438 3.603515625 c 4,72,73
 124.734375 3.603515625 124.734375 3.603515625 85.0556640625 38.0478515625 c 4,74,75
 16.61328125 92.7578125 16.61328125 92.7578125 69.05078125 254.204101562 c 4,76,77
 104.522460938 359.78515625 104.522460938 359.78515625 170.922851562 456.926757812 c 4,78,79
 268.693359375 599.5078125 268.693359375 599.5078125 383.723632812 656.514648438 c 4,0,1
396.858398438 -11.0498046875 m 5,80,-1
 396.858398438 -11.0498046875 l 5,80,-1
464.537109375 614.310546875 m 5,81,-1
 464.537109375 614.310546875 l 5,81,-1
EndSplineSet
Validated: 33
EndChar

StartChar: H
Encoding: 72 72 16
Width: 635
VWidth: 965
Flags: W
LayerCount: 2
Fore
SplineSet
325.033203125 633 m 0,0,1
 342.028493017 633 342.028493017 633 342.034179688 595.024414062 c 0,2,3
 339.58922706 545.527673867 339.58922706 545.527673867 330.96484375 495.515625 c 128,-1,4
 322.334689929 445.474203727 322.334689929 445.474203727 315.180664062 417.928710938 c 128,-1,5
 308.021972656 390.366210938 308.021972656 390.366210938 291.0703125 330.271484375 c 0,6,7
 290.776710322 329.231031657 290.776710322 329.231031657 291.837890625 329.01953125 c 0,8,9
 313.288574219 338.693847656 313.288574219 338.693847656 347.4375 353.229492188 c 128,-1,10
 381.629093932 367.784220069 381.629093932 367.784220069 410.477539062 382.104492188 c 0,11,12
 410.831069367 382.279019806 410.831069367 382.279019806 410.96875 382.647460938 c 0,13,14
 434.490233388 445.183901076 434.490233388 445.183901076 434.9765625 446.666992188 c 0,15,16
 482.896921905 573.455574871 482.896921905 573.455574871 530.7578125 623.310546875 c 0,17,18
 577.466396225 673 577.466396225 673 649.033203125 673 c 0,19,20
 687.721812959 673 687.721812959 673 719.459960938 651.180664062 c 0,21,22
 750.033203125 629.484278123 750.033203125 629.484278123 750.033203125 596 c 128,-1,23
 750.033203125 562.414545224 750.033203125 562.414545224 712.333984375 524.713867188 c 0,24,25
 622.170859691 438.170579812 622.170859691 438.170579812 443.997070312 352.41015625 c 0,26,27
 443.583371903 352.20943591 443.583371903 352.20943591 443.46484375 351.766601562 c 0,28,29
 405.414482476 208.9762645 405.414482476 208.9762645 405.033203125 149 c 0,30,31
 405.033203125 73.2448976524 405.033203125 73.2448976524 434.396484375 51.2275390625 c 0,32,33
 437.000072164 48.816646189 437.000072164 48.816646189 446.930664062 42.0146484375 c 128,-1,34
 456.759354812 35.2831296354 456.759354812 35.2831296354 463.918945312 29.203125 c 0,35,36
 470.759000147 23.3947080656 470.759000147 23.3947080656 471.033203125 19.9638671875 c 0,37,38
 471.015694004 12.630463831 471.015694004 12.630463831 463.6328125 8.9189453125 c 0,39,40
 460.15920286 7.6240234375 460.15920286 7.6240234375 456.33984375 7.6240234375 c 0,41,42
 454.320946478 7.6240234375 454.320946478 7.6240234375 452.201171875 7.986328125 c 0,43,44
 374.736566497 21.2125990349 374.736566497 21.2125990349 370.03125 107.0546875 c 0,45,46
 369.428224994 118.066129528 369.428224994 118.066129528 369.4296875 129.80859375 c 0,47,48
 369.4296875 179.108471815 369.4296875 179.108471815 380.0234375 241.854492188 c 0,49,50
 385.493327921 285.751167641 385.493327921 285.751167641 397.057617188 334.65234375 c 0,51,52
 397.305958937 335.704576942 397.305958937 335.704576942 396.237304688 335.870117188 c 0,53,54
 377.687011719 328.240722656 377.687011719 328.240722656 333.793945312 308.66796875 c 128,-1,55
 289.899902344 289.09765625 289.899902344 289.09765625 282.6328125 285.916015625 c 0,56,57
 282.226234901 285.738517195 282.226234901 285.738517195 282.0859375 285.319335938 c 0,58,59
 271.359824373 253.465808603 271.359824373 253.465808603 251.071289062 181.270507812 c 0,60,61
 236.462402344 129.296386719 236.462402344 129.296386719 212.745117188 73.619140625 c 0,62,63
 189.118755381 18.1621909607 189.118755381 18.1621909607 172.470703125 6.826171875 c 0,64,65
 162.444044942 0 162.444044942 0 158.033203125 0 c 0,66,67
 127.395906282 0 127.395906282 0 96.671875 25.76953125 c 0,68,69
 35.9979723161 75.5023582463 35.9979723161 75.5023582463 31.03125 141.056640625 c 0,70,71
 31 141.891015625 31 141.891015625 31 142.743164062 c 0,72,73
 31 167.797439815 31 167.797439815 58.783203125 201.337890625 c 0,74,75
 97.241663327 242.222108629 97.241663327 242.222108629 178.4609375 281.095703125 c 0,76,77
 193.563476562 288.235351562 193.563476562 288.235351562 209.375 294.986328125 c 128,-1,78
 225.202636719 301.746582031 225.202636719 301.746582031 234.178710938 305.608398438 c 128,-1,79
 243.223608542 309.500115596 243.223608542 309.500115596 247.5546875 312.146484375 c 0,80,81
 247.875078124 312.342363003 247.875078124 312.342363003 247.987304688 312.701171875 c 0,82,83
 267.946919487 376.553193685 267.946919487 376.553193685 285.895507812 461.626953125 c 128,-1,84
 303.853143124 546.743653439 303.853143124 546.743653439 305.033203125 597.989257812 c 0,85,86
 305.033203125 633 305.033203125 633 325.033203125 633 c 0,0,1
58.783203125 201.337890625 m 1,87,-1
 58.783203125 201.337890625 l 1,87,-1
463.6328125 8.9189453125 m 1,88,-1
 463.6328125 8.9189453125 l 1,88,-1
471.033203125 19.9638671875 m 1,89,-1
 471.033203125 19.9638671875 l 1,89,-1
342.034179688 595.024414062 m 1,90,-1
 342.034179688 595.024414062 l 1,90,-1
458.2265625 400.5390625 m 0,91,92
 532.229003906 428.920410156 532.229003906 428.920410156 619.583984375 487.165039062 c 0,93,94
 661.511277637 514.510456128 661.511277637 514.510456128 688.772460938 545.326171875 c 0,95,96
 715.483398438 573.779094973 715.483398438 573.779094973 715.483398438 596.399414062 c 0,97,98
 715.483398438 613.267051355 715.483398438 613.267051355 700.701171875 626.744140625 c 0,99,100
 683.411004449 642 683.411004449 642 643.533203125 642 c 128,-1,101
 603.635639194 642 603.635639194 642 568.350585938 608.731445312 c 0,102,103
 497.825643141 543.596832169 497.825643141 543.596832169 456.908203125 401.75 c 0,104,105
 456.60814043 400.709905383 456.60814043 400.709905383 457.66796875 400.493164062 c 0,106,107
 457.953748915 400.43484158 457.953748915 400.43484158 458.2265625 400.5390625 c 0,91,92
234.77734375 266.966796875 m 0,108,109
 163.189414442 247.953038164 163.189414442 247.953038164 103.389648438 198.765625 c 0,110,111
 68.033203125 168.459679992 68.033203125 168.459679992 68.033203125 137 c 0,112,113
 68.033203125 109.952883296 68.033203125 109.952883296 98.25390625 72.373046875 c 0,114,115
 107.265337072 61.1672361593 107.265337072 61.1672361593 121.266601562 50.154296875 c 128,-1,116
 135.4467268 39 135.4467268 39 142.033203125 39 c 0,117,118
 155.522081307 39 155.522081307 39 162.822265625 48.3857421875 c 0,119,120
 181.882363999 80.8660862055 181.882363999 80.8660862055 196.859375 121.739257812 c 128,-1,121
 211.826233806 162.58114928 211.826233806 162.58114928 219.017578125 191.21484375 c 128,-1,122
 226.205566406 219.833496094 226.205566406 219.833496094 236.01171875 265.791015625 c 0,123,124
 236.237755961 266.849531347 236.237755961 266.849531347 234.77734375 266.966796875 c 0,108,109
EndSplineSet
Validated: 1
EndChar

StartChar: I
Encoding: 73 73 17
Width: 301
VWidth: 965
Flags: W
LayerCount: 2
Fore
SplineSet
114.8515625 132.858398438 m 0,0,1
 119.294433594 168.229980469 119.294433594 168.229980469 122.501953125 196.954101562 c 0,2,3
 125.679299584 225.392823361 125.679299584 225.392823361 150.462890625 335.415039062 c 0,4,5
 175.366699219 445.988769531 175.366699219 445.988769531 192.809570312 553.430664062 c 0,6,7
 207.928605444 646.566608039 207.928605444 646.566608039 211.076171875 659.288085938 c 0,8,9
 212.034849956 659.686896019 212.034849956 659.686896019 213.673828125 659.96484375 c 0,10,11
 215.725471912 660.312358183 215.725471912 660.312358183 217.302734375 660.4296875 c 0,12,13
 219.291422086 660.57418391 219.291422086 660.57418391 222.266601562 660.778320312 c 0,14,15
 225.57086981 661.009263792 225.57086981 661.009263792 227.6640625 661.19140625 c 0,16,17
 228.235381155 661.239257812 228.235381155 661.239257812 228.776367188 661.239257812 c 0,18,19
 229.638183594 661.239257812 229.638183594 661.239257812 230.45703125 661.122070312 c 0,20,21
 231.742071821 660.939315383 231.742071821 660.939315383 232.751953125 660.521484375 c 128,-1,22
 233.739683532 660.117942601 233.739683532 660.117942601 234.56640625 659.501953125 c 0,23,24
 236.084409064 658.367178919 236.084409064 658.367178919 237.020507812 656.254882812 c 0,25,26
 238.636248912 652.612804911 238.636248912 652.612804911 238.637695312 641.662109375 c 0,27,28
 238.636224811 599.182252155 238.636224811 599.182252155 212.137695312 465.859375 c 0,29,30
 177.895507812 293.564453125 177.895507812 293.564453125 164.224609375 209.698242188 c 0,31,32
 150.500976562 125.480510883 150.500976562 125.480510883 150.500976562 96.85546875 c 0,33,34
 150.500976562 50.8523922472 150.500976562 50.8523922472 152.875 22.9404296875 c 0,35,36
 153.055664062 20.9604098412 153.055664062 20.9604098412 153.055664062 19.1708984375 c 0,37,38
 153.055664062 10.3742035667 153.055664062 10.3742035667 148.801757812 6.515625 c 0,39,40
 146.694560346 4.60107705426 146.694560346 4.60107705426 143.098632812 3.5498046875 c 128,-1,41
 139.337198373 2.45012606101 139.337198373 2.45012606101 133.963867188 2.4384765625 c 0,42,43
 112.465982692 2.4384765625 112.465982692 2.4384765625 111.495117188 18.16796875 c 0,44,45
 111.337719725 36.5531476383 111.337719725 36.5531476383 110.90625 67.4697265625 c 0,46,47
 110.871604148 70.180764516 110.871604148 70.180764516 110.870117188 72.931640625 c 0,48,49
 110.870117188 101.107910156 110.870117188 101.107910156 114.8515625 132.858398438 c 0,0,1
111.495117188 18.16796875 m 1,50,-1
 111.495117188 18.16796875 l 1,50,-1
110.49609375 18.1328125 m 1025,51,-1
109.497070312 18.0986328125 m 1025,52,-1
107.497070312 18.03125 m 1025,53,-1
106.497070312 17.998046875 m 1025,54,-1
EndSplineSet
Validated: 1
EndChar

StartChar: J
Encoding: 74 74 18
Width: 392
VWidth: 965
Flags: W
LayerCount: 2
Fore
SplineSet
251.400390625 624.079101562 m 0,0,1
 251.400390625 643.263767744 251.400390625 643.263767744 252.516601562 646.614257812 c 0,2,3
 257.29734409 663.82421875 257.29734409 663.82421875 269.30859375 663.82421875 c 0,4,5
 271.297125482 663.82421875 271.297125482 663.82421875 273.506835938 663.377929688 c 0,6,7
 287.6796875 661.358058738 287.6796875 661.358058738 287.6796875 649.16796875 c 0,8,9
 287.6796875 646.480941495 287.6796875 646.480941495 287.041992188 643.291015625 c 0,10,11
 286 638.086517294 286 638.086517294 286 618.579101562 c 2,12,-1
 285.995117188 618.40625 l 2,13,14
 284.963867188 600.643882979 284.963867188 600.643882979 284.963867188 579.815429688 c 0,15,16
 284.963867188 486.44092497 284.963867188 486.44092497 308.060546875 314.638671875 c 128,-1,17
 331.134765625 143.000282241 331.134765625 143.000282241 331.134765625 46.1865234375 c 0,18,19
 331.134765625 -17.7961065339 331.134765625 -17.7961065339 321.07421875 -48.8828125 c 0,20,21
 292.927990255 -119.102985305 292.927990255 -119.102985305 231.919921875 -119.145507812 c 1,22,-1
 217.611328125 -118.08203125 l 2,23,24
 170.692634837 -111.729633011 170.692634837 -111.729633011 129.034179688 -86.517578125 c 128,-1,25
 87.3413660147 -61.2829162896 87.3413660147 -61.2829162896 60.3974609375 -24.2333984375 c 128,-1,26
 33.599609375 12.617830306 33.599609375 12.617830306 33.599609375 41.521484375 c 0,27,28
 33.599609375 101.417015514 33.599609375 101.417015514 86.404296875 115.018554688 c 0,29,30
 92.7497201405 116.655005951 92.7497201405 116.655005951 98.0537109375 116.678710938 c 2,31,-1
 102.715820312 115.984375 l 1,32,33
 116.057617188 107.700412945 116.057617188 107.700412945 116.057617188 102.33984375 c 0,34,35
 116.057617188 99.7763224482 116.057617188 99.7763224482 112.604492188 97.4111328125 c 0,36,37
 72 74 72 74 73.7109375 44.861328125 c 24,38,-1
 73.7451171875 44.4150390625 l 1,39,40
 83.5566232571 -6.9416971381 83.5566232571 -6.9416971381 131.227539062 -43.623046875 c 128,-1,41
 178.817746821 -80.2403905077 178.817746821 -80.2403905077 228.032226562 -81.3212890625 c 0,42,43
 249.909385966 -81.3212890625 249.909385966 -81.3212890625 267.752929688 -64.5283203125 c 0,44,45
 297.599609375 -36.6704660835 297.599609375 -36.6704660835 297.599609375 83.9794921875 c 0,46,47
 297.599609375 139.830308485 297.599609375 139.830308485 291.670898438 175.499023438 c 0,48,49
 285.773410609 210.967654793 285.773410609 210.967654793 267.922851562 349.819335938 c 0,50,51
 251.400390625 496.319368671 251.400390625 496.319368671 251.400390625 624.079101562 c 0,0,1
98.0537109375 116.678710938 m 1,52,-1
 98.0537109375 116.678710938 l 1,52,-1
217.611328125 -118.08203125 m 1,53,-1
 217.611328125 -118.08203125 l 1,53,-1
231.919921875 -119.145507812 m 1,54,-1
 231.919921875 -119.145507812 l 1,54,-1
321.07421875 -48.8828125 m 1,55,-1
 321.07421875 -48.8828125 l 1,55,-1
EndSplineSet
Validated: 33
EndChar

StartChar: K
Encoding: 75 75 19
Width: 505
VWidth: 965
Flags: W
LayerCount: 2
Fore
SplineSet
134.931640625 344.65625 m 1,0,1
 150.635742188 331.966796875 150.635742188 331.966796875 177 283.78515625 c 1,2,3
 252.401367188 348.810546875 252.401367188 348.810546875 299.409179688 419.774414062 c 0,4,5
 301.401367188 422.8125 301.401367188 422.8125 305.844726562 428.693359375 c 0,6,7
 391.76171875 544.390625 391.76171875 544.390625 423.602539062 656.599609375 c 0,8,9
 425.400390625 663.805664062 425.400390625 663.805664062 427.1875 670.465820312 c 0,10,11
 431.067382812 690.201171875 431.067382812 690.201171875 450.043945312 685.395507812 c 0,12,13
 455.526367188 684.00390625 455.526367188 684.00390625 460.463867188 678.408203125 c 128,-1,14
 465.401367188 672.8125 465.401367188 672.8125 463.21875 662.459960938 c 0,15,16
 440.172851562 582.247070312 440.172851562 582.247070312 393.287109375 505.028320312 c 0,17,18
 312.1328125 371.375 312.1328125 371.375 248.075195312 305.783203125 c 0,19,20
 216.579101562 273.643554688 216.579101562 273.643554688 193.354492188 253.486328125 c 1,21,22
 260.40234375 127.811523438 260.40234375 127.811523438 308.70703125 81.1611328125 c 0,23,24
 317.400390625 72.8115234375 317.400390625 72.8115234375 319.794921875 69.6923828125 c 0,25,26
 388.40234375 5.810546875 388.40234375 5.810546875 448.1640625 -7.8134765625 c 0,27,28
 454.401367188 -9.189453125 454.401367188 -9.189453125 458.852539062 -11.875 c 0,29,30
 474.40234375 -20.189453125 474.40234375 -20.189453125 466.447265625 -35.939453125 c 0,31,32
 462.96484375 -41.9951171875 462.96484375 -41.9951171875 451.987304688 -41.9951171875 c 0,33,34
 440.756835938 -41.9951171875 440.756835938 -41.9951171875 421.682617188 -35.6572265625 c 0,35,36
 349.401367188 -10.189453125 349.401367188 -10.189453125 295.69921875 46.83984375 c 2,37,-1
 272.345703125 71.6708984375 l 1,38,39
 223.400390625 126.810546875 223.400390625 126.810546875 166.306640625 232.03125 c 1,40,41
 124.400390625 200.810546875 124.400390625 200.810546875 96.287109375 200.274414062 c 1,42,43
 67.7841796875 100.678710938 67.7841796875 100.678710938 55.59375 35.8759765625 c 1,44,45
 69.7958984375 23.23828125 69.7958984375 23.23828125 57.25390625 10.1953125 c 0,46,47
 49.7158203125 2.3564453125 49.7158203125 2.3564453125 40.09375 2.3564453125 c 0,48,49
 33.7060546875 2.3564453125 33.7060546875 2.3564453125 26.4013671875 5.810546875 c 128,-1,50
 19.068359375 9.2783203125 19.068359375 9.2783203125 20.544921875 17.109375 c 128,-1,51
 22.0224609375 24.94140625 22.0224609375 24.94140625 26.1669921875 49.373046875 c 128,-1,52
 30.3125 73.8046875 30.3125 73.8046875 33.126953125 87.5185546875 c 0,53,54
 41.7783203125 129.672851562 41.7783203125 129.672851562 65.0751953125 207.793945312 c 1,55,56
 40.818359375 224.81640625 40.818359375 224.81640625 40.818359375 261.012695312 c 0,57,58
 40.818359375 302.999023438 40.818359375 302.999023438 72.5947265625 339.283203125 c 0,59,60
 88.40234375 356.810546875 88.40234375 356.810546875 105.528320312 357.4296875 c 1,61,62
 130.401367188 463.810546875 130.401367188 463.810546875 132.901367188 514.810546875 c 0,63,64
 134.565429688 548.764648438 134.565429688 548.764648438 134.565429688 573.166015625 c 0,65,66
 134.565429688 622.553710938 134.565429688 622.553710938 127.748046875 632.81640625 c 0,67,68
 119.555664062 646.762695312 119.555664062 646.762695312 126.397460938 654.622070312 c 128,-1,69
 133.239257812 662.481445312 133.239257812 662.481445312 144.658203125 662.9140625 c 0,70,71
 168.944335938 661.306640625 168.944335938 661.306640625 168.944335938 582.055664062 c 0,72,73
 168.944335938 557.721679688 168.944335938 557.721679688 166.654296875 526.06640625 c 0,74,75
 161.401367188 455.810546875 161.401367188 455.810546875 134.931640625 344.65625 c 1,0,1
92.87109375 306.392578125 m 1,76,77
 79.7724609375 287.603515625 79.7724609375 287.603515625 78.68359375 276.323242188 c 0,78,79
 76.8994140625 257.827148438 76.8994140625 257.827148438 77.7080078125 250.764648438 c 1,80,81
 85.1943359375 276.776367188 85.1943359375 276.776367188 92.87109375 306.392578125 c 1,76,77
124.43359375 302.453125 m 1,82,83
 115.848632812 269.025390625 115.848632812 269.025390625 107.20703125 238.522460938 c 1,84,85
 125.958984375 244.732421875 125.958984375 244.732421875 149.719726562 261.84765625 c 1,86,87
 134.255859375 288.856445312 134.255859375 288.856445312 124.43359375 302.453125 c 1,82,83
EndSplineSet
Validated: 1
EndChar

StartChar: L
Encoding: 76 76 20
Width: 487
VWidth: 965
Flags: W
LayerCount: 2
Fore
SplineSet
110.57421875 261.684570312 m 0,0,1
 106.829101562 259.854492188 106.829101562 259.854492188 102.681640625 254.9765625 c 0,2,3
 95.0576171875 246.014648438 95.0576171875 246.014648438 85.8291015625 223.895507812 c 0,4,5
 77.9970703125 205.119140625 77.9970703125 205.119140625 69.021484375 176.913085938 c 0,6,7
 60.1728515625 149.149414062 60.1728515625 149.149414062 54.6318359375 127.413085938 c 0,8,9
 42.3798828125 79.36328125 42.3798828125 79.36328125 46.2861328125 60.7763671875 c 0,10,11
 46.736328125 58.5732421875 46.736328125 58.5732421875 48.7919921875 59.451171875 c 0,12,13
 59.94140625 65.1767578125 59.94140625 65.1767578125 78.1533203125 91.6337890625 c 0,14,15
 92.78515625 111.572265625 92.78515625 111.572265625 107.015625 136.26171875 c 0,16,17
 120.188476562 159.111328125 120.188476562 159.111328125 133.022460938 186.038085938 c 0,18,19
 141.03125 202.838867188 141.03125 202.838867188 141.060546875 203.026367188 c 2,20,-1
 138.98046875 208.674804688 l 2,21,22
 120.9140625 259.62109375 120.9140625 259.62109375 114.012695312 261.326171875 c 0,23,24
 113.887695312 261.640625 113.887695312 261.640625 112.954101562 261.888671875 c 0,25,26
 110.888671875 261.73046875 110.888671875 261.73046875 110.57421875 261.684570312 c 0,0,1
322.412109375 629.209960938 m 0,27,28
 323 631 323 631 324.375976562 634.4921875 c 0,29,30
 326 638 326 638 326.590820312 640.556640625 c 128,-1,31
 327 643 327 643 327.930664062 645.69921875 c 0,32,33
 328 648 328 648 327.713867188 649.939453125 c 0,34,35
 327 651 327 651 324.81640625 651.575195312 c 0,36,37
 319 652 319 652 301.126953125 641.69140625 c 1,38,39
 298 647 298 647 304.080078125 654.708007812 c 0,40,41
 311 664 311 664 321.978515625 669.77734375 c 0,42,43
 337 679 337 679 348.2265625 675.703125 c 0,44,45
 356 674 356 674 361.642578125 668.438476562 c 0,46,47
 366 664 366 664 366.8984375 659.21484375 c 0,48,49
 368 654 368 654 366.75390625 650.791992188 c 0,50,51
 352 611 352 611 338.776367188 574.590820312 c 0,52,53
 323 532 323 532 307.7265625 492.444335938 c 0,54,55
 294 456 294 456 280.1015625 421.861328125 c 0,56,57
 264 382 264 382 249.5390625 347.021484375 c 0,58,59
 237 317 237 317 224.896484375 289.625 c 0,60,61
 203 239 203 239 182.690429688 198.909179688 c 1,62,63
 188 179 188 179 194.506835938 161.875976562 c 0,64,65
 216 104 216 104 249.400390625 76.4169921875 c 0,66,67
 258 69 258 69 268.467773438 62.892578125 c 0,68,69
 279 57 279 57 289.62890625 51.255859375 c 0,70,71
 300 46 300 46 311.979492188 41.8701171875 c 0,72,73
 347 30 347 30 378.528320312 30.060546875 c 0,74,75
 410 31 410 31 429.817382812 36.146484375 c 0,76,77
 433 37 433 37 432.252929688 34.3994140625 c 0,78,79
 430 26 430 26 424.750976562 20.1630859375 c 0,80,81
 420 14 420 14 411.033203125 10.19921875 c 0,82,83
 394 2 394 2 378.627929688 1.16796875 c 0,84,85
 337 1 337 1 301.915039062 10.861328125 c 0,86,87
 267 21 267 21 237.33984375 43.041015625 c 0,88,89
 223 54 223 54 210.28515625 67.01953125 c 0,90,91
 191 87 191 87 177.391601562 111.767578125 c 0,92,93
 166 132 166 132 159.13671875 154.243164062 c 1,94,95
 129 102 129 102 124.881835938 95.005859375 c 4,96,97
 91 38 91 38 53.6201171875 6.810546875 c 4,98,99
 42.3879789255 -2.98770139609 42.3879789255 -2.98770139609 33.173828125 -3.03515625 c 0,100,101
 29 -3 29 -3 25.453125 -0.3125 c 0,102,103
 22 2 22 2 20.3408203125 7.2568359375 c 0,104,105
 15 25 15 25 16.8212890625 64.517578125 c 0,106,107
 18 86 18 86 28.0576171875 130.663085938 c 0,108,109
 33 151 33 151 39.8291015625 177.001953125 c 0,110,111
 49 211 49 211 67.3525390625 248.755859375 c 0,112,113
 85 285 85 285 96.0908203125 301.2109375 c 0,114,115
 107 318 107 318 124.328125 310.127929688 c 0,116,117
 129 308 129 308 134.459960938 302.915039062 c 0,118,119
 137 300 137 300 139.4609375 296.887695312 c 0,120,121
 143 293 143 293 146.243164062 286.547851562 c 0,122,123
 150 281 150 281 151.541992188 275.912109375 c 0,124,125
 154 271 154 271 156.352539062 264.413085938 c 0,126,127
 159 258 159 258 160.685546875 254.228515625 c 2,128,-1
 162.064453125 250.185546875 l 2,129,130
 163 246 163 246 163.727539062 246.021484375 c 0,131,132
 176 271 176 271 188.522460938 296.079101562 c 128,-1,133
 201 321 201 321 212.306640625 346.76953125 c 0,134,135
 229 384 229 384 245.352539062 422.265625 c 0,136,137
 260 458 260 458 274.251953125 494.041992188 c 0,138,139
 290 534 290 534 304.06640625 575.052734375 c 0,140,141
 313 602 313 602 322.412109375 629.209960938 c 0,27,28
EndSplineSet
Validated: 33
EndChar

StartChar: M
Encoding: 77 77 21
Width: 480
VWidth: 965
Flags: W
LayerCount: 2
Fore
SplineSet
405.262695312 671.630859375 m 4,0,1
 416.56640625 684.729492188 416.56640625 684.729492188 425.204101562 684.729492188 c 4,2,3
 428.98046875 684.729492188 428.98046875 684.729492188 432.943359375 682.032226562 c 5,4,5
 427.444335938 626.245117188 427.444335938 626.245117188 406.633789062 552.069335938 c 4,6,7
 395.233398438 497.678710938 395.233398438 497.678710938 365.750976562 396.223632812 c 132,-1,8
 336.254882812 294.73828125 336.254882812 294.73828125 318.709960938 213.03125 c 4,9,10
 302.719726562 138.564453125 302.719726562 138.564453125 302.71484375 77.056640625 c 4,11,12
 302.71484375 71.0361328125 302.71484375 71.0361328125 302.868164062 65.1416015625 c 4,13,14
 305.283203125 37.974609375 305.283203125 37.974609375 312.276367188 27.30859375 c 4,15,16
 319.848632812 15.7607421875 319.848632812 15.7607421875 334.638671875 17.0751953125 c 4,17,18
 344.856445312 17.9833984375 344.856445312 17.9833984375 344.856445312 14.3359375 c 4,19,20
 344.856445312 3.517578125 344.856445312 3.517578125 323.802734375 1.6435546875 c 4,21,22
 319.732421875 1.283203125 319.732421875 1.283203125 315.965820312 1.283203125 c 4,23,24
 297.46875 1.283203125 297.46875 1.283203125 285.754882812 9.94921875 c 4,25,26
 269.110351562 22.263671875 269.110351562 22.263671875 268.83984375 53.740234375 c 4,27,28
 268.80078125 58.3896484375 268.80078125 58.3896484375 268.799804688 62.9619140625 c 4,29,30
 268.799804688 139.751953125 268.799804688 139.751953125 280.08984375 194.760742188 c 4,31,32
 292.056640625 253.055664062 292.056640625 253.055664062 332.509765625 391.939453125 c 4,33,34
 332.811523438 392.979492188 332.811523438 392.979492188 331.752929688 393.198242188 c 4,35,36
 331.004882812 393.353515625 331.004882812 393.353515625 330.658203125 392.673828125 c 4,37,38
 314.6328125 361.213867188 314.6328125 361.213867188 301.942382812 339.884765625 c 132,-1,39
 289.26171875 318.572265625 289.26171875 318.572265625 270.43359375 293.60546875 c 132,-1,40
 251.678710938 268.735351562 251.678710938 268.735351562 230.365234375 255.452148438 c 132,-1,41
 209.11328125 242.208007812 209.11328125 242.208007812 186.170898438 241.318359375 c 4,42,43
 185.053710938 241.275390625 185.053710938 241.275390625 183.977539062 241.275390625 c 4,44,45
 166.728515625 241.275390625 166.728515625 241.275390625 153.193359375 252.073242188 c 4,46,47
 138.717773438 263.622070312 138.717773438 263.622070312 130.486328125 283.319335938 c 132,-1,48
 122.184570312 303.185546875 122.184570312 303.185546875 117.9296875 319.461914062 c 132,-1,49
 113.67578125 335.744140625 113.67578125 335.744140625 111.20703125 353.297851562 c 4,50,51
 111.056640625 354.370117188 111.056640625 354.370117188 110 354.134765625 c 4,52,53
 109.381835938 353.998046875 109.381835938 353.998046875 109.241210938 353.379882812 c 4,54,55
 77.623046875 213.9296875 77.623046875 213.9296875 62.92578125 20.5634765625 c 5,56,57
 57.06640625 1.4951171875 57.06640625 1.4951171875 44.28125 0.357421875 c 4,58,59
 43.373046875 0.275390625 43.373046875 0.275390625 42.5244140625 0.27734375 c 4,60,61
 29.5146484375 0.27734375 29.5146484375 0.27734375 27.6533203125 21.1953125 c 4,62,63
 27 28.5595703125 27 28.5595703125 27 37.9404296875 c 4,64,65
 34.9521484375 219.795898438 34.9521484375 219.795898438 93.9794921875 452.103515625 c 4,66,67
 120.486328125 555.454101562 120.486328125 555.454101562 129.737304688 609.372070312 c 4,68,69
 138.608398438 661.047851562 138.608398438 661.047851562 152.028320312 663.427734375 c 4,70,71
 164.291015625 665.602539062 164.291015625 665.602539062 165.087890625 656.659179688 c 4,72,73
 166.317382812 642.8203125 166.317382812 642.8203125 166.317382812 625.784179688 c 4,74,75
 166.317382812 576.2109375 166.317382812 576.2109375 155.905273438 499.51171875 c 4,76,77
 144.647460938 416.608398438 144.647460938 416.608398438 144.647460938 374.615234375 c 4,78,79
 144.647460938 364.041015625 144.647460938 364.041015625 145.362304688 355.9921875 c 4,80,81
 153.752929688 273.217773438 153.752929688 273.217773438 188.008789062 273.217773438 c 4,82,83
 201.24609375 273.217773438 201.24609375 273.217773438 218.1796875 285.680664062 c 4,84,85
 264.181640625 319.546875 264.181640625 319.546875 310.16796875 414.552734375 c 4,86,87
 339.350585938 480.6953125 339.350585938 480.6953125 362.072265625 557.3671875 c 4,88,89
 384.65625 633.5625 384.65625 633.5625 405.262695312 671.630859375 c 4,0,1
EndSplineSet
Validated: 1
EndChar

StartChar: N
Encoding: 78 78 22
Width: 581
VWidth: 965
Flags: W
LayerCount: 2
Fore
SplineSet
400.600585938 27.181640625 m 0,0,1
 376.721679688 -0.3623046875 376.721679688 -0.3623046875 353.012695312 -0.3623046875 c 0,2,3
 348.815429688 -0.3623046875 348.815429688 -0.3623046875 344.62109375 0.501953125 c 0,4,5
 316.750976562 6.2431640625 316.750976562 6.2431640625 292.056640625 37.6826171875 c 128,-1,6
 267.362304688 69.12109375 267.362304688 69.12109375 248.848632812 113.130859375 c 128,-1,7
 230.333984375 157.139648438 230.333984375 157.139648438 214.353515625 211.774414062 c 0,8,9
 185.9296875 308.962890625 185.9296875 308.962890625 172.2890625 406.619140625 c 1,10,11
 82.099609375 154.759765625 82.099609375 154.759765625 70.1181640625 26.9345703125 c 0,12,13
 65.697265625 -20.25 65.697265625 -20.25 47.0849609375 -21.9423828125 c 0,14,15
 46.6628895339 -21.9808779242 46.6628895339 -21.9808779242 46.2312301951 -21.9808779242 c 0,16,17
 41.143816559 -21.9808779242 41.143816559 -21.9808779242 34.724609375 -16.6337890625 c 0,18,19
 27.7626953125 -10.8330078125 27.7626953125 -10.8330078125 27.7626953125 8.6904296875 c 128,-1,20
 27.7626953125 28.21484375 27.7626953125 28.21484375 41.3505859375 98.21484375 c 128,-1,21
 54.9384765625 168.21484375 54.9384765625 168.21484375 107.819335938 326.8671875 c 0,22,23
 159.612639264 482.258575432 159.612639264 482.258575432 159.612639264 533.072178002 c 0,24,25
 159.612639264 534.138204199 159.612639264 534.138204199 159.58984375 535.158203125 c 0,26,27
 159.879882812 538.454101562 159.879882812 538.454101562 159.879882812 541.775390625 c 0,28,29
 159.879882812 558.784179688 159.879882812 558.784179688 152.280273438 576.505859375 c 0,30,31
 146.623046875 589.700195312 146.623046875 589.700195312 138.413085938 589.700195312 c 0,32,33
 133.44140625 589.700195312 133.44140625 589.700195312 127.53515625 584.864257812 c 0,34,35
 125.249023438 581.99609375 125.249023438 581.99609375 121.326171875 576.18359375 c 0,36,37
 119.868419955 574.023638702 119.868419955 574.023638702 118.996608266 574.023638702 c 0,38,39
 117.69945272 574.023638702 117.69945272 574.023638702 117.69945272 578.805351103 c 0,40,41
 117.69945272 579.458205597 117.69945272 579.458205597 117.723632812 580.200195312 c 0,42,43
 118.734375 611.088867188 118.734375 611.088867188 133.650390625 632.361328125 c 128,-1,44
 148.56640625 653.6328125 148.56640625 653.6328125 159.829101562 654.978515625 c 0,45,46
 160.226290875 655.014630678 160.226290875 655.014630678 160.621566461 655.014630678 c 0,47,48
 170.348184198 655.014630678 170.348184198 655.014630678 178.916015625 633.146484375 c 0,49,50
 187.83203125 610.390625 187.83203125 610.390625 204.131835938 457.462890625 c 1,51,52
 210.124023438 356.298828125 210.124023438 356.298828125 239.05078125 254.752929688 c 128,-1,53
 267.9765625 153.208007812 267.9765625 153.208007812 300.297851562 95.6923828125 c 0,54,55
 330.83203125 41.353515625 330.83203125 41.353515625 350.315429688 41.353515625 c 0,56,57
 351.454101562 41.353515625 351.454101562 41.353515625 352.555664062 41.5390625 c 0,58,59
 380.828125 48.1328125 380.828125 48.1328125 399.349609375 100.657226562 c 0,60,61
 421.169921875 162.532226562 421.169921875 162.532226562 429.278320312 214.725585938 c 128,-1,62
 437.385742188 266.91796875 437.385742188 266.91796875 441.838867188 297.813476562 c 128,-1,63
 446.291015625 328.708984375 446.291015625 328.708984375 450.909179688 377.122070312 c 0,64,65
 457.58203125 447.069335938 457.58203125 447.069335938 461.470703125 495.916992188 c 0,66,67
 472.025390625 628.510742188 472.025390625 628.510742188 476.447265625 637.672851562 c 128,-1,68
 480.870117188 646.8359375 480.870117188 646.8359375 484.375976562 650.750976562 c 128,-1,69
 487.883789062 654.66796875 487.883789062 654.66796875 490.36328125 656.852539062 c 128,-1,70
 492.84375 659.037109375 492.84375 659.037109375 497.600585938 660.735351562 c 128,-1,71
 502.359375 662.431640625 502.359375 662.431640625 504.29296875 662.91796875 c 128,-1,72
 506.228515625 663.404296875 506.228515625 663.404296875 512.518554688 664.416992188 c 128,-1,73
 518.80859375 665.4296875 518.80859375 665.4296875 524.374023438 666.45703125 c 128,-1,74
 529.939453125 667.484375 529.939453125 667.484375 534.004882812 667.670898438 c 1,75,76
 532.499023438 666.047851562 532.499023438 666.047851562 530.147460938 664.056640625 c 0,77,78
 507.346679688 644.71875 507.346679688 644.71875 506.442382812 634.842773438 c 128,-1,79
 505.5390625 624.965820312 505.5390625 624.965820312 498.95703125 539.689453125 c 128,-1,80
 492.375 454.415039062 492.375 454.415039062 486.57421875 392.540039062 c 0,81,82
 469.450195312 209.873046875 469.450195312 209.873046875 440.215820312 102.052734375 c 0,83,84
 428.708984375 59.6015625 428.708984375 59.6015625 400.600585938 27.181640625 c 0,0,1
EndSplineSet
Validated: 1
EndChar

StartChar: O
Encoding: 79 79 23
Width: 437
VWidth: 965
Flags: W
LayerCount: 2
Fore
SplineSet
263 673 m 0,0,1
 345.444335938 673 345.444335938 673 386.15625 607.463867188 c 0,2,3
 399.043945312 587.6328125 399.043945312 587.6328125 403.010742188 561.85546875 c 0,4,5
 418.829101562 446.588867188 418.829101562 446.588867188 381.775390625 301.134765625 c 0,6,7
 357.0625 206.20703125 357.0625 206.20703125 307.143554688 123.516601562 c 0,8,9
 275.223632812 70.646484375 275.223632812 70.646484375 246.33984375 44.7509765625 c 0,10,11
 196.622070312 0.9990234375 196.622070312 0.9990234375 161 1.0009765625 c 0,12,13
 126.3515625 0.9990234375 126.3515625 0.9990234375 96.640625 24.767578125 c 0,14,15
 41.96875 72.482421875 41.96875 72.482421875 31.9970703125 210.077148438 c 0,16,17
 31 223.05078125 31 223.05078125 31 236 c 0,18,19
 31 371.689453125 31 371.689453125 133.8203125 521.427734375 c 0,20,21
 172.678710938 576.228515625 172.678710938 576.228515625 213.47265625 598.119140625 c 2,22,-1
 213.5546875 598.16796875 l 2,23,24
 231.303710938 610 231.303710938 610 244.5 610 c 128,-1,25
 257.768554688 610 257.768554688 610 264.579101562 607.092773438 c 0,26,27
 278.301757812 600.221679688 278.301757812 600.221679688 287.142578125 585.485351562 c 0,28,29
 290 580.723632812 290 580.723632812 290 573 c 0,30,31
 290 558.208984375 290 558.208984375 279.0859375 533.40625 c 0,32,33
 263.350585938 498 263.350585938 498 255.015625 498 c 0,34,35
 254 498.923828125 254 498.923828125 254 505.000976562 c 128,-1,36
 254 510.919921875 254 510.919921875 255.985351562 522.828125 c 0,37,38
 260 544.911132812 260 544.911132812 260 556 c 2,39,-1
 260 559 l 2,40,41
 258.89453125 569 258.89453125 569 244 569 c 2,42,-1
 240.000976562 569 l 2,43,44
 221.556640625 567.9765625 221.556640625 567.9765625 193.786132812 539.701171875 c 128,-1,45
 166.19921875 511.61328125 166.19921875 511.61328125 147.134765625 478.502929688 c 0,46,47
 72 349.267578125 72 349.267578125 72 242.5 c 0,48,49
 72 188.896484375 72 188.896484375 78.51953125 156.80078125 c 128,-1,50
 85.05078125 124.65234375 85.05078125 124.65234375 103.118164062 91.5283203125 c 0,51,52
 126.3515625 48.0908203125 126.3515625 48.0908203125 151.833007812 44.013671875 c 0,53,54
 180.30078125 38.9306640625 180.30078125 38.9306640625 223.65625 77.24609375 c 0,55,56
 275.491210938 122.38671875 275.491210938 122.38671875 317.884765625 223.280273438 c 0,57,58
 350.698242188 301.375976562 350.698242188 301.375976562 363.995117188 426.90234375 c 0,59,60
 368.999023438 477.935546875 368.999023438 477.935546875 369 513 c 2,61,-1
 369 527.013671875 l 2,62,63
 366.982421875 596.612304688 366.982421875 596.612304688 309.48046875 626.876953125 c 0,64,65
 288.265625 639 288.265625 639 254.5 639 c 128,-1,66
 220.69140625 639 220.69140625 639 209.436523438 631.326171875 c 128,-1,67
 198.305664062 623.736328125 198.305664062 623.736328125 193.20703125 617.110351562 c 128,-1,68
 188.131835938 610.512695312 188.131835938 610.512695312 186.081054688 605.393554688 c 0,69,70
 176.225585938 583.891601562 176.225585938 583.891601562 171.981445312 576.841796875 c 1,71,72
 171 579.266601562 171 579.266601562 171 584 c 0,73,74
 171 590.893554688 171 590.893554688 173.977539062 604.790039062 c 2,75,-1
 179.975585938 632.780273438 l 2,76,77
 183.866210938 649.314453125 183.866210938 649.314453125 207.447265625 661.10546875 c 0,78,79
 231.23828125 673 231.23828125 673 263 673 c 0,0,1
186.081054688 605.393554688 m 1,80,-1
 186.081054688 605.393554688 l 1,80,-1
264.579101562 607.092773438 m 1,81,-1
 264.579101562 607.092773438 l 1,81,-1
EndSplineSet
Validated: 33
EndChar

StartChar: P
Encoding: 80 80 24
Width: 551
VWidth: 965
Flags: W
LayerCount: 2
Fore
SplineSet
131.526367188 47.2333984375 m 4,0,1
 130.48828125 1.697265625 130.48828125 1.697265625 110.015625 0.66015625 c 4,2,3
 98.49609375 0.68359375 98.49609375 0.68359375 93.3349609375 11.9013671875 c 4,4,5
 87.814453125 23.908203125 87.814453125 23.908203125 87.8134765625 45.439453125 c 4,6,7
 87.8134765625 87.59375 87.8134765625 87.59375 95.2724609375 116.966796875 c 4,8,9
 99.7109375 133.063476562 99.7109375 133.063476562 105.266601562 149.349609375 c 132,-1,10
 110.821289062 165.63671875 110.821289062 165.63671875 118.111328125 185.41796875 c 132,-1,11
 125.401367188 205.19921875 125.401367188 205.19921875 129.3125 216.610351562 c 5,12,13
 76.23828125 226.740234375 76.23828125 226.740234375 55.4677734375 241.133789062 c 4,14,15
 45.3388671875 248.15234375 45.3388671875 248.15234375 48.19921875 270.483398438 c 4,16,17
 50.34765625 277.9296875 50.34765625 277.9296875 53.666015625 277.813476562 c 4,18,19
 102.3515625 256.076171875 102.3515625 256.076171875 142.29296875 252.389648438 c 5,20,21
 145.846679688 259.04296875 145.846679688 259.04296875 160.577148438 292.430664062 c 4,22,23
 226.278320312 436.345703125 226.278320312 436.345703125 236.912109375 489.236328125 c 4,24,25
 237.421875 491.768554688 237.421875 491.768554688 238.358398438 496.477539062 c 4,26,27
 241.135742188 510.446289062 241.135742188 510.446289062 242.626953125 517.017578125 c 132,-1,28
 244.1015625 523.509765625 244.1015625 523.509765625 246.614257812 531.65625 c 4,29,30
 249.01953125 539.455078125 249.01953125 539.455078125 251.58984375 542.336914062 c 4,31,32
 253.85546875 544.876953125 253.85546875 544.876953125 256.701171875 544.876953125 c 4,33,34
 264.771484375 544.876953125 264.771484375 544.876953125 272.333007812 528.379882812 c 4,35,36
 275.8359375 520.73828125 275.8359375 520.73828125 277.611328125 513.962890625 c 132,-1,37
 279.364257812 507.267578125 279.364257812 507.267578125 279.364257812 501.326171875 c 4,38,39
 273.5859375 475.029296875 273.5859375 475.029296875 265.719726562 448.974609375 c 132,-1,40
 257.853515625 422.918945312 257.853515625 422.918945312 246.841796875 394.71484375 c 132,-1,41
 235.830078125 366.510742188 235.830078125 366.510742188 228.1015625 348.014648438 c 132,-1,42
 220.373046875 329.518554688 220.373046875 329.518554688 205.909179688 296.810546875 c 132,-1,43
 191.4453125 264.1015625 191.4453125 264.1015625 185.634765625 250.569335938 c 5,44,45
 272.109375 255.521484375 272.109375 255.521484375 368.124023438 302.094726562 c 4,46,47
 387.322265625 311.409179688 387.322265625 311.409179688 404.427734375 321.76953125 c 132,-1,48
 421.552734375 332.142578125 421.552734375 332.142578125 436.59375 343.55859375 c 132,-1,49
 451.634765625 354.975585938 451.634765625 354.975585938 464.634765625 367.46484375 c 132,-1,50
 477.642578125 379.962890625 477.642578125 379.962890625 488.565429688 393.482421875 c 4,51,52
 523.956054688 439.40234375 523.956054688 439.40234375 525.499023438 492.111328125 c 132,-1,53
 527.041992188 544.8203125 527.041992188 544.8203125 492.866210938 584.098632812 c 4,54,55
 464.383789062 615.89453125 464.383789062 615.89453125 413.666015625 626.436523438 c 4,56,57
 399.0859375 629.466796875 399.0859375 629.466796875 383.556640625 630.983398438 c 4,58,59
 316.196289062 636.404296875 316.196289062 636.404296875 256.393554688 621.604492188 c 4,60,61
 210.512695312 609.955078125 210.512695312 609.955078125 186.04296875 602.065429688 c 132,-1,62
 161.572265625 594.174804688 161.572265625 594.174804688 128.390625 575.3828125 c 132,-1,63
 95.2099609375 556.58984375 95.2099609375 556.58984375 68.8212890625 528.974609375 c 4,64,65
 65.7158203125 525.092773438 65.7158203125 525.092773438 64.146484375 521.684570312 c 132,-1,66
 62.498046875 518.1015625 62.498046875 518.1015625 62.498046875 514.952148438 c 4,67,68
 62.498046875 512.6953125 62.498046875 512.6953125 63.4912109375 509.895507812 c 4,69,70
 63.685546875 509.341796875 63.685546875 509.341796875 64.1494140625 508.983398438 c 4,71,72
 65.27734375 508.109375 65.27734375 508.109375 67.490234375 506.506835938 c 132,-1,73
 69.6015625 504.979492188 69.6015625 504.979492188 73.125 502.487304688 c 132,-1,74
 76.58203125 500.043945312 76.58203125 500.043945312 81.078125 496.90234375 c 4,75,76
 82.943359375 495.600585938 82.943359375 495.600585938 87.212890625 492.747070312 c 132,-1,77
 91.46875 489.8984375 91.46875 489.8984375 92.9404296875 488.774414062 c 132,-1,78
 94.4130859375 487.651367188 94.4130859375 487.651367188 96.7373046875 485.594726562 c 4,79,80
 98.7939453125 483.771484375 98.7939453125 483.771484375 99.43359375 482.381835938 c 4,81,82
 99.939453125 481.2890625 99.939453125 481.2890625 100.077148438 479.631835938 c 4,83,84
 99.9013671875 477.50390625 99.9013671875 477.50390625 97.7412109375 476.890625 c 132,-1,85
 95.580078125 476.27734375 95.580078125 476.27734375 89.7158203125 477.985351562 c 132,-1,86
 83.8505859375 479.693359375 83.8505859375 479.693359375 74.697265625 484.252929688 c 4,87,88
 64.57421875 489.139648438 64.57421875 489.139648438 58.2548828125 492.1171875 c 132,-1,89
 51.9443359375 495.091796875 51.9443359375 495.091796875 50.44140625 495.700195312 c 4,90,91
 46.9921875 497.091796875 46.9921875 497.091796875 43.3876953125 498.873046875 c 4,92,93
 40.787109375 500.158203125 40.787109375 500.158203125 38.66015625 502.8828125 c 4,94,95
 36.345703125 505.849609375 36.345703125 505.849609375 33.2958984375 511.28515625 c 4,96,97
 26.873046875 522.73046875 26.873046875 522.73046875 32.966796875 528.81640625 c 4,98,99
 37.3876953125 533.2265625 37.3876953125 533.2265625 53.189453125 550.530273438 c 4,100,101
 87.642578125 588.255859375 87.642578125 588.255859375 132.049804688 614.220703125 c 132,-1,102
 176.484375 640.19921875 176.484375 640.19921875 230.734375 654.359375 c 4,103,104
 260.69140625 662.178710938 260.69140625 662.178710938 288.231445312 666.08984375 c 132,-1,105
 315.751953125 669.998046875 315.751953125 669.998046875 340.909179688 670 c 4,106,107
 354.50390625 669.998046875 354.50390625 669.998046875 367.390625 668.854492188 c 4,108,109
 412.116210938 666.32421875 412.116210938 666.32421875 446.87109375 654.346679688 c 132,-1,110
 481.625 642.369140625 481.625 642.369140625 502.716796875 625.506835938 c 132,-1,111
 523.807617188 608.643554688 523.807617188 608.643554688 537.823242188 585.649414062 c 132,-1,112
 551.837890625 562.654296875 551.837890625 562.654296875 557.5859375 541.103515625 c 132,-1,113
 563.334960938 519.552734375 563.334960938 519.552734375 564.901367188 495.184570312 c 4,114,115
 565.46484375 433.91796875 565.46484375 433.91796875 522.490234375 380.776367188 c 132,-1,116
 479.515625 327.634765625 479.515625 327.634765625 419.918945312 291.349609375 c 4,117,118
 361.184570312 255.672851562 361.184570312 255.672851562 295.159179688 234.96875 c 132,-1,119
 229.133789062 214.263671875 229.133789062 214.263671875 170.403320312 214.104492188 c 5,120,121
 131.041992188 103.891601562 131.041992188 103.891601562 131.526367188 47.2333984375 c 4,0,1
EndSplineSet
Validated: 33
EndChar

StartChar: Q
Encoding: 81 81 25
Width: 526
VWidth: 965
Flags: W
LayerCount: 2
Fore
SplineSet
71.9892578125 253.231445312 m 4,0,1
 70.869140625 240.258789062 70.869140625 240.258789062 70.869140625 227.306640625 c 4,2,3
 70.869140625 185.233398438 70.869140625 185.233398438 82.701171875 143.557617188 c 4,4,5
 98.2109375 88.9208984375 98.2109375 88.9208984375 131.778320312 62.2158203125 c 4,6,7
 163.5390625 38.59765625 163.5390625 38.59765625 196.168945312 38.59765625 c 4,8,9
 218.041992188 38.59765625 218.041992188 38.59765625 240.3671875 49.201171875 c 4,10,11
 265.821289062 60.7783203125 265.821289062 60.7783203125 299.326171875 83.470703125 c 6,12,-1
 299.447265625 83.5673828125 l 6,13,14
 301.059570312 85.072265625 301.059570312 85.072265625 309.530273438 91.771484375 c 132,-1,15
 318.048828125 98.5068359375 318.048828125 98.5068359375 325.669921875 105.171875 c 132,-1,16
 333.377929688 111.916015625 333.377929688 111.916015625 335.825195312 115.755859375 c 4,17,18
 336.124023438 116.2265625 336.124023438 116.2265625 335.881835938 116.727539062 c 4,19,20
 309.629882812 171.13671875 309.629882812 171.13671875 287.6796875 239.953125 c 4,21,22
 285.422851562 247.057617188 285.422851562 247.057617188 283.822265625 252.98046875 c 132,-1,23
 282.228515625 258.874023438 282.228515625 258.874023438 281.344726562 263.481445312 c 132,-1,24
 280.474609375 267.993164062 280.474609375 267.993164062 280.265625 271.31640625 c 4,25,26
 280.13671875 273.376953125 280.13671875 273.376953125 280.13671875 275.28515625 c 4,27,28
 280.13671875 282.208007812 280.13671875 282.208007812 281.838867188 287.092773438 c 4,29,30
 283.80078125 292.721679688 283.80078125 292.721679688 288.790039062 295.717773438 c 4,31,32
 289.588867188 295.270507812 289.588867188 295.270507812 289.688476562 296.45703125 c 6,33,-1
 290.485351562 297.255859375 l 5,34,-1
 293.325195312 297.517578125 l 5,35,-1
 294.326171875 297.551757812 l 6,36,37
 301.099609375 297.551757812 301.099609375 297.551757812 307.165039062 291.159179688 c 5,38,39
 338.612304688 181.068359375 338.612304688 181.068359375 364.662109375 145.227539062 c 4,40,41
 365.362304688 144.264648438 365.362304688 144.264648438 366.189453125 145.12109375 c 4,42,43
 421.108398438 201.938476562 421.108398438 201.938476562 445.8046875 293.157226562 c 4,44,45
 467.557617188 373.498046875 467.557617188 373.498046875 467.5625 446.965820312 c 4,46,47
 467.5625 456.796875 467.5625 456.796875 467.171875 466.515625 c 4,48,49
 463.330078125 540.3515625 463.330078125 540.3515625 425.375976562 587.173828125 c 4,50,51
 390.833007812 629.78515625 390.833007812 629.78515625 337.1484375 629.78515625 c 4,52,53
 331.661132812 629.78515625 331.661132812 629.78515625 325.984375 629.340820312 c 4,54,55
 278.587890625 626.516601562 278.587890625 626.516601562 231.963867188 587.216796875 c 132,-1,56
 185.452148438 548.013671875 185.452148438 548.013671875 152.265625 491.365234375 c 132,-1,57
 119.103515625 434.7734375 119.103515625 434.7734375 97.2705078125 370.913085938 c 132,-1,58
 75.4248046875 307.01953125 75.4248046875 307.01953125 71.9892578125 253.231445312 c 4,0,1
502.220703125 490.205078125 m 4,59,60
 502.802734375 475.864257812 502.802734375 475.864257812 502.67578125 462.7421875 c 4,61,62
 502.802734375 365.290039062 502.802734375 365.290039062 476.994140625 273.185546875 c 4,63,64
 449.00390625 172.591796875 449.00390625 172.591796875 384.256835938 107.935546875 c 4,65,66
 383.717773438 107.396484375 383.717773438 107.396484375 384.094726562 106.733398438 c 4,67,68
 403.017578125 73.47265625 403.017578125 73.47265625 419.118164062 55.28515625 c 4,69,70
 435.560546875 36.984375 435.560546875 36.984375 467.743164062 21.3955078125 c 4,71,72
 499.595703125 6.443359375 499.595703125 6.443359375 548.928710938 -0.5244140625 c 4,73,-1
 550.302734375 -0.501953125 l 6,74,75
 551.961914062 -0.443359375 551.961914062 -0.443359375 553.375976562 -0.3984375 c 4,76,77
 559.309570312 -0.4453125 559.309570312 -0.4453125 561.081054688 -1.892578125 c 4,78,79
 563.494140625 -3.0029296875 563.494140625 -3.0029296875 563.130859375 -6.2900390625 c 4,80,81
 563.09765625 -6.58203125 563.09765625 -6.58203125 563.23046875 -6.8466796875 c 4,82,83
 563.075195312 -7.4443359375 563.075195312 -7.4443359375 563.040039062 -7.767578125 c 4,84,85
 561.408203125 -22.818359375 561.408203125 -22.818359375 533.090820312 -22.34765625 c 4,86,87
 474.66015625 -20.9951171875 474.66015625 -20.9951171875 428.268554688 3.8505859375 c 4,88,89
 385.930664062 26.7841796875 385.930664062 26.7841796875 356.359375 76.810546875 c 4,90,91
 355.7578125 77.8291015625 355.7578125 77.8291015625 354.853515625 77.06640625 c 4,92,93
 271.123046875 6.4287109375 271.123046875 6.4287109375 201.31640625 1.2783203125 c 4,94,95
 194.05859375 0.57421875 194.05859375 0.57421875 186.53125 0.744140625 c 4,96,97
 156.623046875 0.5537109375 156.623046875 0.5537109375 142.936523438 8.0673828125 c 4,98,99
 91.6064453125 35.958984375 91.6064453125 35.958984375 63.6513671875 85.51171875 c 132,-1,100
 35.697265625 135.063476562 35.697265625 135.063476562 31.0712890625 206.166015625 c 4,101,102
 31.3349609375 207.387695312 31.3349609375 207.387695312 31.0537109375 208.93359375 c 4,103,104
 31.4130859375 298.344726562 31.4130859375 298.344726562 58.2763671875 383.686523438 c 4,105,106
 86.205078125 469.568359375 86.205078125 469.568359375 129.536132812 531.155273438 c 4,107,108
 173.241210938 591.810546875 173.241210938 591.810546875 227.954101562 629.831054688 c 4,109,110
 277.934570312 663.823242188 277.934570312 663.823242188 335.516601562 668.484375 c 4,111,112
 341.145507812 668.959960938 341.145507812 668.959960938 346.706054688 668.942382812 c 4,113,114
 387.8203125 668.959960938 387.8203125 668.959960938 422.560546875 643.084960938 c 4,115,116
 461.836914062 613.44921875 461.836914062 613.44921875 481.150390625 572.345703125 c 4,117,118
 500.850585938 530.544921875 500.850585938 530.544921875 502.220703125 490.205078125 c 4,59,60
EndSplineSet
Validated: 33
EndChar

StartChar: R
Encoding: 82 82 26
Width: 583
VWidth: 965
Flags: W
LayerCount: 2
Fore
SplineSet
147.154296875 279.640625 m 5,0,1
 148.05078125 282.532226562 148.05078125 282.532226562 149.315429688 286.548828125 c 132,-1,2
 150.579101562 290.564453125 150.579101562 290.564453125 152.216796875 295.723632812 c 132,-1,3
 153.854492188 300.8828125 153.854492188 300.8828125 155.862304688 307.173828125 c 132,-1,4
 157.870117188 313.465820312 157.870117188 313.465820312 160.26171875 320.930664062 c 4,5,6
 170.022460938 351.40234375 170.022460938 351.40234375 174.934570312 367.849609375 c 5,7,8
 170.14453125 367.391601562 170.14453125 367.391601562 165.58984375 365.782226562 c 132,-1,9
 161.036132812 364.172851562 161.036132812 364.172851562 156.66015625 361.390625 c 132,-1,10
 152.28515625 358.607421875 152.28515625 358.607421875 148.038085938 354.620117188 c 4,11,12
 138.821289062 345.966796875 138.821289062 345.966796875 134.151367188 329.283203125 c 4,13,14
 130.172851562 315.0625 130.172851562 315.0625 133.026367188 303.875976562 c 4,15,16
 134.205078125 299.252929688 134.205078125 299.252929688 136.235351562 294.930664062 c 132,-1,17
 138.265625 290.607421875 138.265625 290.607421875 141.001953125 286.79296875 c 132,-1,18
 143.73828125 282.978515625 143.73828125 282.978515625 147.154296875 279.640625 c 5,0,1
204.607421875 361.346679688 m 5,19,20
 201.733398438 351.370117188 201.733398438 351.370117188 197.712890625 338.595703125 c 132,-1,21
 193.692382812 325.8203125 193.692382812 325.8203125 188.48828125 310.125976562 c 4,22,23
 178.215820312 279.1484375 178.215820312 279.1484375 173.8515625 264.19921875 c 5,24,25
 213.92578125 246.883789062 213.92578125 246.883789062 251.459960938 266.079101562 c 5,26,27
 250 270.409179688 250 270.409179688 248.16015625 276.833984375 c 132,-1,28
 246.3203125 283.258789062 246.3203125 283.258789062 243.8515625 292.608398438 c 4,29,30
 238.743164062 311.962890625 238.743164062 311.962890625 234.92578125 323.790039062 c 132,-1,31
 231.1484375 335.493164062 231.1484375 335.493164062 222.783203125 347.189453125 c 4,32,33
 218.831054688 352.71484375 218.831054688 352.71484375 214.272460938 356.232421875 c 132,-1,34
 209.71484375 359.750976562 209.71484375 359.750976562 204.607421875 361.346679688 c 5,19,20
101.485351562 20.037109375 m 4,35,36
 100.99609375 17.5888671875 100.99609375 17.5888671875 100.495117188 15.3369140625 c 132,-1,37
 99.994140625 13.083984375 99.994140625 13.083984375 99.5 11.10546875 c 4,38,39
 96.173828125 5.4775390625 96.173828125 5.4775390625 76.9013671875 2.4345703125 c 4,40,41
 65.8359375 1.326171875 65.8359375 1.326171875 65.8359375 16.298828125 c 6,42,-1
 65.837890625 16.3623046875 l 6,43,44
 66.8349609375 32.3134765625 66.8349609375 32.3134765625 91.1181640625 114.576171875 c 4,45,46
 100.634765625 146.81640625 100.634765625 146.81640625 116.474609375 192.692382812 c 4,47,48
 131.625 236.56640625 131.625 236.56640625 134.102539062 244.177734375 c 5,49,50
 125.150390625 252.435546875 125.150390625 252.435546875 120.133789062 257.607421875 c 4,51,52
 117.51171875 260.310546875 117.51171875 260.310546875 115.322265625 263.0234375 c 132,-1,53
 113.133789062 265.735351562 113.133789062 265.735351562 111.376953125 268.459960938 c 4,54,55
 107.873046875 273.897460938 107.873046875 273.897460938 106.307617188 277.719726562 c 4,56,57
 105.532226562 279.616210938 105.532226562 279.616210938 104.513671875 282.497070312 c 132,-1,58
 103.495117188 285.377929688 103.495117188 285.377929688 102.224609375 289.26953125 c 4,59,60
 94.92578125 311.620117188 94.92578125 311.620117188 101.60546875 336.168945312 c 4,61,62
 107.969726562 359.565429688 107.969726562 359.565429688 127.669921875 379.245117188 c 4,63,64
 140.096679688 391.659179688 140.096679688 391.659179688 161.170898438 399.493164062 c 4,65,66
 162.905273438 400.138671875 162.905273438 400.138671875 165.299804688 400.649414062 c 132,-1,67
 167.693359375 401.16015625 167.693359375 401.16015625 170.791992188 401.5546875 c 4,68,69
 176.893554688 402.331054688 176.893554688 402.331054688 181.298828125 402.764648438 c 6,70,-1
 185.176757812 403.359375 l 5,71,-1
 190.709960938 429.318359375 l 6,72,73
 191.7890625 435.896484375 191.7890625 435.896484375 192.516601562 441.284179688 c 132,-1,74
 193.243164062 446.671875 193.243164062 446.671875 193.616210938 450.858398438 c 4,75,76
 193.866210938 453.66015625 193.866210938 453.66015625 194.157226562 457.372070312 c 132,-1,77
 194.44921875 461.083007812 194.44921875 461.083007812 194.783203125 465.70703125 c 132,-1,78
 195.1171875 470.331054688 195.1171875 470.331054688 195.4921875 475.861328125 c 4,79,80
 196.62109375 492.470703125 196.62109375 492.470703125 197.483398438 502.37890625 c 4,81,82
 199.513671875 515.084960938 199.513671875 515.084960938 201.141601562 517.370117188 c 4,83,84
 202.93359375 519.884765625 202.93359375 519.884765625 210.3671875 519.884765625 c 132,-1,85
 217.623046875 519.884765625 217.623046875 519.884765625 220.520507812 519.234375 c 4,86,87
 223.758789062 518.5078125 223.758789062 518.5078125 225.890625 514.52734375 c 132,-1,88
 227.930664062 510.71484375 227.930664062 510.71484375 227.6484375 502.51171875 c 4,89,90
 227.008789062 483.907226562 227.008789062 483.907226562 223.979492188 457.884765625 c 132,-1,91
 220.950195312 431.862304688 220.950195312 431.862304688 215.55859375 398.55859375 c 5,92,93
 231.1875 394.545898438 231.1875 394.545898438 244.010742188 377.633789062 c 4,94,95
 253.64453125 364.926757812 253.64453125 364.926757812 261.565429688 342.82421875 c 132,-1,96
 269.448242188 320.825195312 269.448242188 320.825195312 274.627929688 300.21484375 c 4,97,98
 275.729492188 295.833007812 275.729492188 295.833007812 276.696289062 292.098632812 c 132,-1,99
 277.663085938 288.36328125 277.663085938 288.36328125 278.41015625 285.59375 c 132,-1,100
 279.157226562 282.82421875 279.157226562 282.82421875 279.71484375 280.883789062 c 132,-1,101
 280.272460938 278.942382812 280.272460938 278.942382812 280.6171875 277.912109375 c 5,102,103
 293.107421875 284.287109375 293.107421875 284.287109375 304.782226562 291.1328125 c 132,-1,104
 316.45703125 297.978515625 316.45703125 297.978515625 327.358398438 305.323242188 c 132,-1,105
 338.258789062 312.66796875 338.258789062 312.66796875 348.383789062 320.50390625 c 132,-1,106
 358.5078125 328.340820312 358.5078125 328.340820312 367.90625 336.709960938 c 132,-1,107
 377.305664062 345.080078125 377.305664062 345.080078125 385.96484375 353.9609375 c 132,-1,108
 394.625 362.841796875 394.625 362.841796875 402.607421875 372.2890625 c 4,109,110
 450.87109375 429.418945312 450.87109375 429.418945312 453.837890625 502.297851562 c 5,111,112
 451.860351562 569.732421875 451.860351562 569.732421875 417.537109375 603.557617188 c 132,-1,113
 383.213867188 637.381835938 383.213867188 637.381835938 316.275390625 637.873046875 c 4,114,115
 220.6015625 637.873046875 220.6015625 637.873046875 117.9140625 560.858398438 c 4,116,117
 99.2109375 548.060546875 99.2109375 548.060546875 71.5986328125 515.522460938 c 4,118,119
 49.8349609375 485.84375 49.8349609375 485.84375 36.96484375 469.013671875 c 132,-1,120
 24.07421875 452.158203125 24.07421875 452.158203125 16.1318359375 443.22265625 c 4,121,-1
 5.1650390625 434.233398438 l 6,122,123
 3.4814453125 432.586914062 3.4814453125 432.586914062 2.2900390625 433.775390625 c 4,124,125
 1.4990234375 434.56640625 1.4990234375 434.56640625 1.4990234375 437.954101562 c 4,126,127
 1.4990234375 487.828125 1.4990234375 487.828125 57.1865234375 550.477539062 c 4,128,129
 106.807617188 605.059570312 106.807617188 605.059570312 180.2265625 641.768554688 c 4,130,131
 214.96875 658.643554688 214.96875 658.643554688 247.740234375 667.084960938 c 132,-1,132
 280.51171875 675.526367188 280.51171875 675.526367188 311.326171875 675.526367188 c 6,133,-1
 318.270507812 675.526367188 l 6,134,135
 329.543945312 675.1953125 329.543945312 675.1953125 340.534179688 673.924804688 c 132,-1,136
 351.524414062 672.655273438 351.524414062 672.655273438 362.231445312 670.447265625 c 132,-1,137
 372.9375 668.240234375 372.9375 668.240234375 383.37109375 665.092773438 c 4,138,139
 409.29296875 657.77734375 409.29296875 657.77734375 430.0546875 640.961914062 c 4,140,141
 450.9296875 623.451171875 450.9296875 623.451171875 463.596679688 602.04296875 c 4,142,143
 469.981445312 591.010742188 469.981445312 591.010742188 474.888671875 579.31640625 c 132,-1,144
 479.794921875 567.622070312 479.794921875 567.622070312 483.22265625 555.26953125 c 4,145,146
 490.077148438 530.5625 490.077148438 530.5625 490.500976562 505.268554688 c 4,147,148
 490.500976562 452.571289062 490.500976562 452.571289062 465.655273438 400.892578125 c 4,149,150
 424.53125 315.83984375 424.53125 315.83984375 291.7578125 245.583984375 c 5,151,152
 320.963867188 173.008789062 320.963867188 173.008789062 349.481445312 121.419921875 c 132,-1,153
 377.998046875 69.8310546875 377.998046875 69.8310546875 406.33984375 38.2197265625 c 4,154,155
 418.991210938 24.107421875 418.991210938 24.107421875 437.4921875 19.7724609375 c 4,156,157
 439.669921875 19.26171875 439.669921875 19.26171875 443.794921875 18.6865234375 c 132,-1,158
 447.920898438 18.111328125 447.920898438 18.111328125 453.90234375 17.4892578125 c 4,159,160
 472.479492188 15.556640625 472.479492188 15.556640625 474.46484375 12.8134765625 c 4,161,162
 477.077148438 9.2001953125 477.077148438 9.2001953125 465.7578125 4.060546875 c 4,163,164
 464.7890625 3.62109375 464.7890625 3.62109375 463.66796875 3.1396484375 c 6,165,-1
 461.236328125 2.1259765625 l 6,166,167
 436.749023438 -7.8056640625 436.749023438 -7.8056640625 418.91796875 -2.482421875 c 4,168,169
 392.958984375 5.5048828125 392.958984375 5.5048828125 376.952148438 20.51171875 c 132,-1,170
 361.024414062 35.4453125 361.024414062 35.4453125 336.204101562 74.1640625 c 4,171,172
 301.049804688 132.911132812 301.049804688 132.911132812 261.153320312 233.998046875 c 5,173,174
 232.237304688 222.604492188 232.237304688 222.604492188 209.991210938 222.323242188 c 132,-1,175
 187.795898438 222.041992188 187.795898438 222.041992188 163.002929688 230.763671875 c 5,176,177
 120.828125 108.251953125 120.828125 108.251953125 103.471679688 29.96484375 c 4,178,179
 102.4765625 24.0029296875 102.4765625 24.0029296875 101.485351562 20.037109375 c 4,35,36
EndSplineSet
Validated: 33
EndChar

StartChar: S
Encoding: 83 83 27
Width: 457
VWidth: 965
Flags: W
LayerCount: 2
Fore
SplineSet
117.3515625 237.993164062 m 2,0,1
 115.1484375 237.993164062 115.1484375 237.993164062 113.318359375 234.370117188 c 0,2,3
 105.870117188 219.469726562 105.870117188 219.469726562 105.870117188 203.438476562 c 0,4,5
 105.870117188 194.483398438 105.870117188 194.483398438 108.188476562 185.208007812 c 0,6,7
 115.61328125 151.796875 115.61328125 151.796875 130.625 134.282226562 c 0,8,9
 131.272460938 133.526367188 131.272460938 133.526367188 132.038085938 134.1640625 c 0,10,11
 138.141601562 139.249023438 138.141601562 139.249023438 144.2265625 145.334960938 c 0,12,13
 148.301757812 149.413085938 148.301757812 149.413085938 150.852539062 152.473632812 c 128,-1,14
 153.454101562 155.591796875 153.454101562 155.591796875 154.515625 157.71875 c 0,15,16
 154.850585938 158.389648438 154.850585938 158.389648438 154.305664062 158.904296875 c 0,17,18
 140.329101562 172.103515625 140.329101562 172.103515625 130.275390625 190.942382812 c 0,19,20
 122.284179688 207.939453125 122.284179688 207.939453125 120.279296875 232.990234375 c 0,21,22
 119.135742188 237.2265625 119.135742188 237.2265625 118.330078125 237.78125 c 2,23,-1
 117.3515625 237.993164062 l 2,0,1
318.435546875 307.233398438 m 0,24,25
 304.619140625 288.23828125 304.619140625 288.23828125 268.977539062 244.149414062 c 0,26,27
 249.795898438 220.423828125 249.795898438 220.423828125 223.538085938 189.118164062 c 0,28,29
 223.356445312 188.90234375 223.356445312 188.90234375 223.310546875 188.600585938 c 0,30,31
 222.5625 187.009765625 222.5625 187.009765625 215.477539062 179.040039062 c 2,32,-1
 215.391601562 178.9296875 l 2,33,34
 213.403320312 175.947265625 213.403320312 175.947265625 210.416015625 172.461914062 c 0,35,36
 204.325195312 165.358398438 204.325195312 165.358398438 203.271484375 163.779296875 c 0,37,38
 202.655273438 162.853515625 202.655273438 162.853515625 203.635742188 162.329101562 c 0,39,40
 229.977539062 148.237304688 229.977539062 148.237304688 284.815429688 148.237304688 c 0,41,42
 300.653320312 148.237304688 300.653320312 148.237304688 318.9609375 149.416015625 c 0,43,44
 320.893554688 148.412109375 320.893554688 148.412109375 320.893554688 147.616210938 c 0,45,46
 320.893554688 146.553710938 320.893554688 146.553710938 318.302734375 144.94140625 c 0,47,48
 294.893554688 136.28125 294.893554688 136.28125 280.388671875 132.392578125 c 0,49,50
 266.90625 128.779296875 266.90625 128.779296875 242.750976562 128.779296875 c 0,51,52
 241.021484375 128.779296875 241.021484375 128.779296875 239.237304688 128.797851562 c 0,53,54
 212.56640625 129.075195312 212.56640625 129.075195312 185.264648438 138.918945312 c 0,55,56
 184.615234375 139.154296875 184.615234375 139.154296875 184.162109375 138.634765625 c 0,57,58
 171.784179688 124.48828125 171.784179688 124.48828125 151.8828125 104.33984375 c 0,59,60
 151.270507812 103.719726562 151.270507812 103.719726562 151.79296875 103.024414062 c 0,61,62
 204.727539062 32.4462890625 204.727539062 32.4462890625 249.717773438 32.447265625 c 0,63,64
 261.216796875 32.447265625 261.216796875 32.447265625 272.169921875 37.046875 c 0,65,66
 326.318359375 59.5234375 326.318359375 59.5234375 327.33203125 194.529296875 c 0,67,68
 327.33203125 210.720703125 327.33203125 210.720703125 326.3203125 228.92578125 c 128,-1,69
 325.313476562 247.07421875 325.313476562 247.07421875 323.793945312 266.319335938 c 0,70,71
 321.633789062 293.66796875 321.633789062 293.66796875 320.256835938 306.745117188 c 0,72,73
 320.141601562 307.831054688 320.141601562 307.831054688 319.068359375 307.6328125 c 0,74,75
 318.672851562 307.55859375 318.672851562 307.55859375 318.435546875 307.233398438 c 0,24,25
398.032226562 636.909179688 m 0,76,77
 334.360351562 636.909179688 334.360351562 636.909179688 334.360351562 512.049804688 c 0,78,79
 334.360351562 508.96875 334.360351562 508.96875 334.40234375 505.602539062 c 0,80,81
 334.40234375 452.006835938 334.40234375 452.006835938 340.469726562 401.458984375 c 0,82,83
 340.600585938 400.375 340.600585938 400.375 341.671875 400.588867188 c 0,84,85
 385.494140625 459.037109375 385.494140625 459.037109375 407.047851562 507.227539062 c 0,86,87
 425.751953125 549.04296875 425.751953125 549.04296875 425.751953125 592.587890625 c 0,88,89
 425.751953125 599.356445312 425.751953125 599.356445312 425.299804688 606.1796875 c 0,90,91
 424.268554688 620.095703125 424.268554688 620.095703125 419.0546875 627.396484375 c 0,92,93
 410.924804688 636.909179688 410.924804688 636.909179688 398.032226562 636.909179688 c 0,76,77
306.116210938 403.713867188 m 0,94,95
 304.104492188 430.907226562 304.104492188 430.907226562 302.077148438 451.671875 c 128,-1,96
 300.061523438 472.346679688 300.061523438 472.346679688 299.049804688 496.561523438 c 0,97,98
 298.715820312 504.618164062 298.715820312 504.618164062 298.715820312 512.393554688 c 0,99,100
 298.715820312 527.948242188 298.715820312 527.948242188 300.05859375 542.380859375 c 0,101,102
 302.337890625 566.881835938 302.337890625 566.881835938 307.092773438 582.088867188 c 0,103,104
 319.0078125 626.774414062 319.0078125 626.774414062 347.115234375 649.837890625 c 0,105,106
 374.62890625 672.413085938 374.62890625 672.413085938 404.337890625 672.413085938 c 0,107,108
 404.97265625 672.413085938 404.97265625 672.413085938 405.55078125 672.403320312 c 0,109,110
 407.311523438 672.375976562 407.311523438 672.375976562 409.047851562 672.264648438 c 0,111,112
 438.322265625 668.62109375 438.322265625 668.62109375 448.143554688 649.5625 c 0,113,114
 458.107421875 630.22265625 458.107421875 630.22265625 459.13671875 597.509765625 c 0,115,116
 458.9140625 576.682617188 458.9140625 576.682617188 453.889648438 553.413085938 c 0,117,118
 440.276367188 490.375 440.276367188 490.375 385.374023438 405.026367188 c 0,119,120
 356.850585938 361.03125 356.850585938 361.03125 350.701171875 350.581054688 c 1,121,122
 352.484375 330.815429688 352.484375 330.815429688 353.594726562 316.158203125 c 0,123,124
 355.616210938 289.391601562 355.616210938 289.391601562 356.625 276.26171875 c 128,-1,125
 357.6328125 263.16796875 357.6328125 263.16796875 359.1484375 234.875 c 0,126,127
 360.056640625 217.927734375 360.056640625 217.927734375 360.056640625 204.9921875 c 0,128,129
 360.056640625 196.369140625 360.056640625 196.369140625 359.654296875 189.5390625 c 0,130,131
 359.65234375 180.4453125 359.65234375 180.4453125 358.646484375 169.879882812 c 128,-1,132
 357.634765625 159.239257812 357.634765625 159.239257812 356.625976562 146.140625 c 0,133,134
 350.171875 84.408203125 350.171875 84.408203125 330.95703125 48.7841796875 c 0,135,136
 320.432617188 29.271484375 320.432617188 29.271484375 303.27734375 17.9296875 c 0,137,138
 277.880859375 1.1416015625 277.880859375 1.1416015625 252.5703125 0.609375 c 0,139,140
 251.786132812 0.5927734375 251.786132812 0.5927734375 250.995117188 0.5927734375 c 0,141,142
 224.86328125 0.5927734375 224.86328125 0.5927734375 191.823242188 18.5625 c 0,143,144
 161.650390625 34.974609375 161.650390625 34.974609375 126.087890625 75.009765625 c 0,145,146
 125.35546875 75.833984375 125.35546875 75.833984375 124.598632812 75.033203125 c 0,147,148
 90.3056640625 38.7236328125 90.3056640625 38.7236328125 65.103515625 18.5615234375 c 0,149,150
 40.9599609375 -1.5556640625 40.9599609375 -1.5556640625 6.7548828125 -16.646484375 c 1,151,-1
 5.97265625 -16.5771484375 l 2,152,153
 4.2109375 -16.896484375 4.2109375 -16.896484375 2.703125 -16.896484375 c 0,154,155
 -4.466796875 -16.896484375 -4.466796875 -16.896484375 -5.9873046875 -9.2919921875 c 0,156,157
 -6.3037109375 -8.580078125 -6.3037109375 -8.580078125 -6.3037109375 -8.2568359375 c 128,-1,158
 -6.3037109375 -7.7578125 -6.3037109375 -7.7578125 -5.515625 -7.3642578125 c 0,159,160
 11.9521484375 14.0693359375 11.9521484375 14.0693359375 52.306640625 53.4169921875 c 0,161,162
 90.716796875 90.814453125 90.716796875 90.814453125 105.889648438 108.01171875 c 0,163,164
 106.37890625 108.56640625 106.37890625 108.56640625 105.998046875 109.19921875 c 0,165,166
 99.9599609375 119.26171875 99.9599609375 119.26171875 95.4306640625 128.321289062 c 128,-1,167
 90.9150390625 137.352539062 90.9150390625 137.352539062 87.3955078125 146.903320312 c 128,-1,168
 83.8740234375 156.461914062 83.8740234375 156.461914062 80.853515625 166.5234375 c 0,169,170
 76.6025390625 182.518554688 76.6025390625 182.518554688 76.6025390625 197.5078125 c 0,171,172
 76.6025390625 214.155273438 76.6025390625 214.155273438 81.84765625 229.553710938 c 0,173,174
 93.4384765625 263.583984375 93.4384765625 263.583984375 122.784179688 284.534179688 c 0,175,176
 125.075195312 285.329101562 125.075195312 285.329101562 126.877929688 285.329101562 c 0,177,178
 131.34765625 285.329101562 131.34765625 285.329101562 134.565429688 280.866210938 c 0,179,180
 136.544921875 276.896484375 136.544921875 276.896484375 138.53515625 271.923828125 c 128,-1,181
 140.528320312 266.940429688 140.528320312 266.940429688 142.530273438 258.931640625 c 0,182,183
 152.8359375 214.91796875 152.8359375 214.91796875 160.811523438 200.095703125 c 0,184,185
 169.176757812 185.756835938 169.176757812 185.756835938 174.286132812 182.563476562 c 0,186,187
 175.056640625 182.081054688 175.056640625 182.081054688 175.6171875 182.796875 c 0,188,189
 270.56640625 304.005859375 270.56640625 304.005859375 309.9765625 359.5859375 c 0,190,191
 310.198242188 359.900390625 310.198242188 359.900390625 310.15625 360.28125 c 0,192,193
 309.150390625 369.349609375 309.150390625 369.349609375 308.646484375 379.912109375 c 128,-1,194
 308.141601562 390.55078125 308.141601562 390.55078125 306.116210938 403.713867188 c 0,94,95
EndSplineSet
Validated: 33
EndChar

StartChar: T
Encoding: 84 84 28
Width: 580
VWidth: 965
Flags: W
LayerCount: 2
Fore
SplineSet
686.484375 686.9921875 m 4,0,1
 717.092773438 687.299804688 717.092773438 687.299804688 691.5234375 675.271484375 c 4,2,3
 690.4765625 674.779296875 690.4765625 674.779296875 690.12109375 674.603515625 c 4,4,5
 666.0078125 662.682617188 666.0078125 662.682617188 651.087890625 656.92578125 c 4,6,7
 590.087890625 631.92578125 590.087890625 631.92578125 480.087890625 591.92578125 c 4,8,9
 455.372070312 582.938476562 455.372070312 582.938476562 371.384765625 552.986328125 c 5,10,11
 357.80078125 478.986328125 357.80078125 478.986328125 340.759765625 382.845703125 c 5,12,13
 340.953125 332.649414062 340.953125 332.649414062 342.078125 314.6796875 c 4,14,15
 342.107421875 313.201171875 342.107421875 313.201171875 342.735351562 289.344726562 c 132,-1,16
 343.36328125 265.48828125 343.36328125 265.48828125 343.310546875 253.6796875 c 4,17,18
 343.104492188 206.661132812 343.104492188 206.661132812 341.28125 182.328125 c 4,19,20
 335.129882812 106.509765625 335.129882812 106.509765625 322.654296875 62.427734375 c 4,21,22
 311.30859375 22.3369140625 311.30859375 22.3369140625 299.81640625 8.02734375 c 4,23,24
 296.7734375 4.2392578125 296.7734375 4.2392578125 291.389648438 2.0390625 c 132,-1,25
 286.005859375 -0.1611328125 286.005859375 -0.1611328125 279.955078125 -0.0322265625 c 132,-1,26
 273.903320312 0.0966796875 273.903320312 0.0966796875 268.104492188 5.130859375 c 132,-1,27
 262.306640625 10.1650390625 262.306640625 10.1650390625 259.2578125 19.841796875 c 4,28,29
 250.618164062 47.263671875 250.618164062 47.263671875 260.15625 113.92578125 c 4,30,31
 276.138671875 225.629882812 276.138671875 225.629882812 315.462890625 448.33984375 c 5,32,33
 306.864257812 505.278320312 306.864257812 505.278320312 295.361328125 525.4140625 c 5,34,35
 291.348632812 523.822265625 291.348632812 523.822265625 290.045898438 523.002929688 c 132,-1,36
 288.743164062 522.184570312 288.743164062 522.184570312 282.087890625 519.92578125 c 4,37,38
 263.133789062 512.521484375 263.133789062 512.521484375 244.041015625 506.25390625 c 132,-1,39
 224.948242188 499.985351562 224.948242188 499.985351562 205.745117188 494.264648438 c 132,-1,40
 186.54296875 488.543945312 186.54296875 488.543945312 178.587890625 485.92578125 c 4,41,42
 127.728515625 469.186523438 127.728515625 469.186523438 83.587890625 462.42578125 c 4,43,44
 34.0693359375 454.841796875 34.0693359375 454.841796875 -5.912109375 460.92578125 c 4,45,46
 -18.0517578125 462.715820312 -18.0517578125 462.715820312 -32.8251953125 470.274414062 c 132,-1,47
 -47.5986328125 477.83203125 -47.5986328125 477.83203125 -51.912109375 486.92578125 c 4,48,49
 -59.234375 507.01171875 -59.234375 507.01171875 -54.919921875 519.9921875 c 132,-1,50
 -50.6064453125 532.97265625 -50.6064453125 532.97265625 -34.669921875 550.099609375 c 4,51,52
 3.76953125 591.413085938 3.76953125 591.413085938 73.087890625 611.92578125 c 4,53,54
 121.634765625 626.291992188 121.634765625 626.291992188 171.990234375 625.658203125 c 4,55,56
 273.43359375 624.379882812 273.43359375 624.379882812 309.087890625 568.92578125 c 5,57,58
 319.61328125 572.526367188 319.61328125 572.526367188 338.423828125 579.57421875 c 5,59,60
 340.784179688 593.555664062 340.784179688 593.555664062 342.197265625 602.34375 c 4,61,62
 348.169921875 610.802734375 348.169921875 610.802734375 359.897460938 612.279296875 c 132,-1,63
 371.624023438 613.754882812 371.624023438 613.754882812 380.322265625 601.111328125 c 4,64,65
 380.131835938 600.10546875 380.131835938 600.10546875 379.725585938 597.93359375 c 132,-1,66
 379.319335938 595.760742188 379.319335938 595.760742188 379.158203125 594.904296875 c 5,67,68
 397.353515625 601.70703125 397.353515625 601.70703125 410.587890625 606.42578125 c 4,69,70
 584.7109375 666.216796875 584.7109375 666.216796875 628.087890625 678.92578125 c 4,71,72
 648.615234375 684.939453125 648.615234375 684.939453125 683.087890625 686.92578125 c 4,73,74
 684.827148438 686.975585938 684.827148438 686.975585938 686.484375 686.9921875 c 4,0,1
172.3828125 595.416015625 m 4,75,76
 163.987304688 595.422851562 163.987304688 595.422851562 155.56640625 594.8984375 c 4,77,78
 80.580078125 590.231445312 80.580078125 590.231445312 24.087890625 555.92578125 c 4,79,80
 15.021484375 550.419921875 15.021484375 550.419921875 5.923828125 543.202148438 c 132,-1,81
 -3.1748046875 535.984375 -3.1748046875 535.984375 -11.9169921875 526.692382812 c 132,-1,82
 -20.658203125 517.400390625 -20.658203125 517.400390625 -20.298828125 508.967773438 c 132,-1,83
 -19.9384765625 500.534179688 -19.9384765625 500.534179688 -7.912109375 495.92578125 c 4,84,85
 -0.1640625 492.95703125 -0.1640625 492.95703125 7.6005859375 491.19921875 c 132,-1,86
 15.3642578125 489.44140625 15.3642578125 489.44140625 24.59765625 489.38671875 c 132,-1,87
 33.83203125 489.333007812 33.83203125 489.333007812 39.78125 489.328125 c 132,-1,88
 45.73046875 489.32421875 45.73046875 489.32421875 56.9326171875 491.28515625 c 132,-1,89
 68.1357421875 493.247070312 68.1357421875 493.247070312 72.2822265625 494.001953125 c 132,-1,90
 76.427734375 494.756835938 76.427734375 494.756835938 89.611328125 497.740234375 c 132,-1,91
 102.794921875 500.72265625 102.794921875 500.72265625 105.62109375 501.337890625 c 4,92,93
 165.5078125 514.376953125 165.5078125 514.376953125 281.087890625 556.92578125 c 5,94,95
 250.08984375 595.34765625 250.08984375 595.34765625 172.3828125 595.416015625 c 4,75,76
331.357421875 538.53125 m 5,96,97
 324.321289062 535.9296875 324.321289062 535.9296875 319.087890625 533.92578125 c 5,98,99
 323.16015625 522.130859375 323.16015625 522.130859375 326.408203125 510.341796875 c 5,100,101
 329.397460938 527.309570312 329.397460938 527.309570312 331.357421875 538.53125 c 5,96,97
327.46875 307.33203125 m 5,102,103
 309.168945312 202.540039062 309.168945312 202.540039062 303.587890625 165.92578125 c 4,104,105
 283.545898438 34.43359375 283.545898438 34.43359375 291.087890625 32.92578125 c 4,106,107
 295.92578125 32.724609375 295.92578125 32.724609375 301.75390625 48.9267578125 c 132,-1,108
 307.58203125 65.12890625 307.58203125 65.12890625 312.40625 88.74609375 c 132,-1,109
 317.231445312 112.36328125 317.231445312 112.36328125 320.978515625 138.103515625 c 132,-1,110
 324.725585938 163.84375 324.725585938 163.84375 326.087890625 183.42578125 c 4,111,112
 329.864257812 237.717773438 329.864257812 237.717773438 327.46875 307.33203125 c 5,102,103
EndSplineSet
Validated: 33
EndChar

StartChar: U
Encoding: 85 85 29
Width: 489
VWidth: 965
Flags: W
LayerCount: 2
Fore
SplineSet
239.357421875 92.6240234375 m 4,0,1
 206.3828125 42.1337890625 206.3828125 42.1337890625 157.435546875 14.5029296875 c 4,2,3
 131.734375 -0.005859375 131.734375 -0.005859375 111.763671875 -0.005859375 c 4,4,5
 108.708984375 -0.005859375 108.708984375 -0.005859375 105.791015625 0.333984375 c 4,6,7
 77.2392578125 3.65234375 77.2392578125 3.65234375 63.0322265625 26.3271484375 c 4,8,9
 57.541015625 35.095703125 57.541015625 35.095703125 53.46484375 44.4599609375 c 132,-1,10
 49.4091796875 53.7763671875 49.4091796875 53.7763671875 46.9912109375 65.380859375 c 132,-1,11
 44.5302734375 77.173828125 44.5302734375 77.173828125 42.9833984375 85.12890625 c 132,-1,12
 41.45703125 92.9541015625 41.45703125 92.9541015625 40.90234375 107.560546875 c 132,-1,13
 40.34375 122.305664062 40.34375 122.305664062 40.171875 128.19921875 c 4,14,15
 40.0771484375 131.413085938 40.0771484375 131.413085938 40.0771484375 138.10546875 c 4,16,17
 40.0771484375 143.45703125 40.0771484375 143.45703125 40.1396484375 151.189453125 c 4,18,19
 40.27734375 168.284179688 40.27734375 168.284179688 40.2783203125 172.201171875 c 4,20,21
 40.2802734375 218.23046875 40.2802734375 218.23046875 46.9892578125 273.817382812 c 4,22,23
 74.802734375 514.56640625 74.802734375 514.56640625 113.126953125 619.051757812 c 4,24,25
 116.708007812 626.981445312 116.708007812 626.981445312 120.354492188 628.73046875 c 4,26,27
 124.3671875 630.654296875 124.3671875 630.654296875 134.279296875 631.819335938 c 4,28,29
 136.637695312 632.015625 136.637695312 632.015625 138.581054688 632.015625 c 4,30,31
 143.934570312 632.015625 143.934570312 632.015625 145.73046875 630.573242188 c 4,32,33
 148.000976562 628.748046875 148.000976562 628.748046875 148.749023438 621.819335938 c 4,34,35
 147.711914062 616.748046875 147.711914062 616.748046875 135.37890625 565.516601562 c 4,36,37
 126.717773438 532.794921875 126.717773438 532.794921875 98.8505859375 370.40234375 c 4,38,39
 77.6962890625 244.431640625 77.6962890625 244.431640625 76.7353515625 156.85546875 c 4,40,41
 78.470703125 93.73828125 78.470703125 93.73828125 86.44921875 69.7919921875 c 4,42,43
 95.7294921875 44.7353515625 95.7294921875 44.7353515625 113.010742188 42.580078125 c 4,44,45
 115.728515625 42.2412109375 115.728515625 42.2412109375 118.495117188 42.2412109375 c 4,46,47
 140.42578125 42.2412109375 140.42578125 42.2412109375 165.411132812 63.529296875 c 4,48,49
 219.297851562 109.4375 219.297851562 109.4375 260.076171875 212.827148438 c 4,50,51
 289.859375 288.727539062 289.859375 288.727539062 309.087890625 344.963867188 c 132,-1,52
 328.303710938 401.174804688 328.303710938 401.174804688 336.969726562 431.981445312 c 132,-1,53
 345.627929688 462.7578125 345.627929688 462.7578125 362.43359375 528.545898438 c 4,54,55
 379.162109375 594.022460938 379.162109375 594.022460938 395.453125 649.642578125 c 4,56,57
 398.500976562 653.170898438 398.500976562 653.170898438 414.705078125 653.216796875 c 4,58,59
 429.854492188 652.971679688 429.854492188 652.971679688 432.024414062 646.655273438 c 4,60,61
 429.2578125 635.221679688 429.2578125 635.221679688 422.56640625 613.637695312 c 6,62,-1
 422.548828125 613.5703125 l 5,63,64
 394.889648438 495.57421875 394.889648438 495.57421875 374.478515625 356.90234375 c 4,65,66
 371.639648438 335.275390625 371.639648438 335.275390625 365.3359375 290.043945312 c 132,-1,67
 359.013671875 244.650390625 359.013671875 244.650390625 355.717773438 219.408203125 c 132,-1,68
 352.418945312 194.137695312 352.418945312 194.137695312 348.841796875 157.490234375 c 132,-1,69
 345.258789062 120.8046875 345.258789062 120.8046875 343.981445312 90.013671875 c 4,70,71
 343.78515625 84.6748046875 343.78515625 84.6748046875 343.78515625 79.72265625 c 4,72,73
 343.78515625 44.7294921875 343.78515625 44.7294921875 353.626953125 29.06640625 c 4,74,75
 365.163085938 10.7099609375 365.163085938 10.7099609375 382.896484375 10.7099609375 c 4,76,77
 386.5390625 10.7099609375 386.5390625 10.7099609375 390.58984375 11.521484375 c 6,78,-1
 382.852539062 2.822265625 l 6,79,80
 373.862304688 -2.0498046875 373.862304688 -2.0498046875 363.235351562 -2.0498046875 c 4,81,82
 359.989257812 -2.0498046875 359.989257812 -2.0498046875 356.568359375 -1.6015625 c 4,83,84
 329.3828125 4.4384765625 329.3828125 4.4384765625 321.025390625 19.4365234375 c 4,85,86
 313 33.83203125 313 33.83203125 313 60.248046875 c 4,87,88
 313 61.916015625 313 61.916015625 313.033203125 63.673828125 c 4,89,90
 313.907226562 105.063476562 313.907226562 105.063476562 315.908203125 131.755859375 c 4,91,92
 318.78515625 170.10546875 318.78515625 170.10546875 325.022460938 218.087890625 c 4,93,94
 326.840820312 232.0703125 326.840820312 232.0703125 330.712890625 254.145507812 c 132,-1,95
 334.583984375 276.21484375 334.583984375 276.21484375 339.416992188 302.426757812 c 132,-1,96
 344.24609375 328.62109375 344.24609375 328.62109375 346.620117188 342.87109375 c 6,97,-1
 346.657226562 343.302734375 l 6,98,99
 346.658203125 344.967773438 346.658203125 344.967773438 344.875 345.123046875 c 4,100,101
 343.309570312 345.131835938 343.309570312 345.131835938 342.866210938 343.802734375 c 4,102,103
 301.112304688 218.543945312 301.112304688 218.543945312 289.133789062 190.275390625 c 4,104,105
 276.68359375 160.584960938 276.68359375 160.584960938 264.225585938 136.143554688 c 132,-1,106
 251.776367188 111.729492188 251.776367188 111.729492188 239.357421875 92.6240234375 c 4,0,1
356.568359375 -1.6015625 m 5,107,-1
 356.568359375 -1.6015625 l 5,107,-1
113.126953125 619.051757812 m 5,108,-1
 113.126953125 619.051757812 l 5,108,-1
356.3984375 -2.5673828125 m 1029,109,-1
112.21875 619.421875 m 1029,110,-1
EndSplineSet
Validated: 1
EndChar

StartChar: V
Encoding: 86 86 30
Width: 361
VWidth: 965
Flags: W
LayerCount: 2
Fore
SplineSet
341.984375 628.489257812 m 4,0,1
 297.849609375 546.318359375 297.849609375 546.318359375 215.139648438 237.591796875 c 4,2,3
 181.583984375 111.11328125 181.583984375 111.11328125 168.803710938 70.267578125 c 4,4,5
 157.602539062 34.4609375 157.602539062 34.4609375 146.2578125 17.9111328125 c 132,-1,6
 134.9140625 1.361328125 134.9140625 1.361328125 115.775390625 0.763671875 c 4,7,8
 93.6357421875 0.763671875 93.6357421875 0.763671875 73.55859375 61.5146484375 c 132,-1,9
 53.4794921875 122.266601562 53.4794921875 122.266601562 44.2119140625 204.641601562 c 132,-1,10
 34.9443359375 287.016601562 34.9443359375 287.016601562 34.9443359375 398.223632812 c 132,-1,11
 34.9443359375 509.428710938 34.9443359375 509.428710938 35.974609375 543.409179688 c 132,-1,12
 37.0048828125 577.388671875 37.0048828125 577.388671875 37.0048828125 578.419921875 c 4,13,14
 37.0048828125 593.864257812 37.0048828125 593.864257812 46.2705078125 593.864257812 c 4,15,16
 57.59765625 593.864257812 57.59765625 593.864257812 64.8056640625 575.329101562 c 5,17,18
 66.2021484375 530.737304688 66.2021484375 530.737304688 66.998046875 450.524414062 c 132,-1,19
 67.7939453125 370.311523438 67.7939453125 370.311523438 69.220703125 328.94140625 c 132,-1,20
 70.6474609375 287.571289062 70.6474609375 287.571289062 78.328125 224.078125 c 132,-1,21
 86.0078125 160.584960938 86.0078125 160.584960938 100.844726562 100.12890625 c 4,22,23
 111.6640625 57.396484375 111.6640625 57.396484375 119.37890625 57.396484375 c 6,24,-1
 120.409179688 57.396484375 l 6,25,26
 127.602539062 57.396484375 127.602539062 57.396484375 138.943359375 96.5244140625 c 4,27,28
 157.370117188 160.096679688 157.370117188 160.096679688 179.497070312 239.762695312 c 132,-1,29
 201.623046875 319.4296875 201.623046875 319.4296875 215.806640625 369.262695312 c 132,-1,30
 229.993164062 419.096679688 229.993164062 419.096679688 240.3671875 450.223632812 c 4,31,32
 275.892578125 556.794921875 275.892578125 556.794921875 290.822265625 589.74609375 c 4,33,34
 291.950195312 592.209960938 291.950195312 592.209960938 294.12890625 597.017578125 c 4,35,36
 304.26171875 619.364257812 304.26171875 619.364257812 310.1875 630.193359375 c 132,-1,37
 316.112304688 641.020507812 316.112304688 641.020507812 328.87109375 654.379882812 c 132,-1,38
 341.631835938 667.73828125 341.631835938 667.73828125 359.297851562 676.239257812 c 4,39,40
 381.041015625 686.704101562 381.041015625 686.704101562 384.802734375 686.704101562 c 4,41,42
 385.588867188 686.704101562 385.588867188 686.704101562 385.588867188 686.245117188 c 4,43,-1
 385.588867188 686.244140625 l 4,44,45
 385.583984375 684.76171875 385.583984375 684.76171875 376.65234375 674.857421875 c 4,46,47
 352.505859375 648.077148438 352.505859375 648.077148438 341.984375 628.489257812 c 4,0,1
EndSplineSet
Validated: 1
EndChar

StartChar: W
Encoding: 87 87 31
Width: 475
VWidth: 965
Flags: W
LayerCount: 2
Fore
SplineSet
450.0546875 652.100585938 m 4,0,1
 450.0546875 638.840820312 450.0546875 638.840820312 446.484375 617.419921875 c 132,-1,2
 442.9140625 596 442.9140625 596 428.124023438 491.959960938 c 4,3,4
 424.365234375 469.126953125 424.365234375 469.126953125 415.719726562 413.03125 c 132,-1,5
 407.075195312 356.936523438 407.075195312 356.936523438 399.813476562 314.59765625 c 132,-1,6
 392.55078125 272.259765625 392.55078125 272.259765625 384.213867188 232.625976562 c 4,7,8
 356.3046875 99.9677734375 356.3046875 99.9677734375 320.514648438 43.16015625 c 4,9,10
 305.130859375 18.7431640625 305.130859375 18.7431640625 293.122070312 9.1201171875 c 4,11,12
 282.05859375 0.255859375 282.05859375 0.255859375 267.01171875 0.255859375 c 4,13,14
 265.727539062 0.255859375 265.727539062 0.255859375 264.4140625 0.3203125 c 4,15,16
 255.033203125 0.78125 255.033203125 0.78125 246.203125 5.12109375 c 132,-1,17
 237.372070312 9.4609375 237.372070312 9.4609375 231.083984375 15.0400390625 c 132,-1,18
 224.795898438 20.619140625 224.795898438 20.619140625 218.158203125 29.625 c 132,-1,19
 211.518554688 38.6298828125 211.518554688 38.6298828125 207.807617188 44.9287109375 c 132,-1,20
 204.095703125 51.228515625 204.095703125 51.228515625 199.134765625 60.5 c 4,21,22
 185.80078125 85.419921875 185.80078125 85.419921875 177.71484375 125.270507812 c 4,23,24
 175.852539062 134.4453125 175.852539062 134.4453125 174.62890625 145.908203125 c 132,-1,25
 173.404296875 157.37109375 173.404296875 157.37109375 172.463867188 163.208984375 c 132,-1,26
 171.524414062 169.048828125 171.524414062 169.048828125 169.5546875 170.66015625 c 4,27,28
 169.061523438 171.063476562 169.061523438 171.063476562 168.475585938 171.063476562 c 4,29,30
 165.700195312 171.063476562 165.700195312 171.063476562 160.846679688 162.002929688 c 4,31,32
 152.807617188 146.372070312 152.807617188 146.372070312 145.07421875 119.66015625 c 4,33,34
 114.823242188 22.6455078125 114.823242188 22.6455078125 84.908203125 22.6455078125 c 4,35,36
 83.880859375 22.6455078125 83.880859375 22.6455078125 82.8544921875 22.759765625 c 4,37,38
 65.5322265625 24.6904296875 65.5322265625 24.6904296875 50.9765625 56.193359375 c 132,-1,39
 36.4208984375 87.6943359375 36.4208984375 87.6943359375 35.9345703125 132.919921875 c 4,40,41
 35.9345703125 196.161132812 35.9345703125 196.161132812 72.14453125 380.780273438 c 132,-1,42
 108.354492188 565.401367188 108.354492188 565.401367188 114.984375 577.639648438 c 132,-1,43
 121.614257812 589.879882812 121.614257812 589.879882812 127.734375 589.879882812 c 4,44,45
 150.174804688 589.879882812 150.174804688 589.879882812 150.174804688 577.639648438 c 4,46,47
 142.014648438 530.720703125 142.014648438 530.720703125 122.634765625 434.83984375 c 4,48,49
 94.4267578125 301.443359375 94.4267578125 301.443359375 82.5537109375 229.739257812 c 4,50,51
 73.0712890625 172.481445312 73.0712890625 172.481445312 73.0712890625 136.475585938 c 4,52,53
 73.0712890625 127.391601562 73.0712890625 127.391601562 73.6748046875 119.66015625 c 4,54,55
 74.591796875 107.911132812 74.591796875 107.911132812 76.74609375 97.59765625 c 132,-1,56
 78.9013671875 87.283203125 78.9013671875 87.283203125 81.0986328125 81.7919921875 c 132,-1,57
 83.2958984375 76.298828125 83.2958984375 76.298828125 84.89453125 75.7998046875 c 4,58,59
 85.0244140625 75.759765625 85.0244140625 75.759765625 85.1630859375 75.759765625 c 4,60,61
 89.5517578125 75.759765625 89.5517578125 75.759765625 103.0703125 116.0546875 c 4,62,63
 103.240234375 116.561523438 103.240234375 116.561523438 103.254882812 116.600585938 c 4,64,65
 114.3359375 146.8203125 114.3359375 146.8203125 121.104492188 163.520507812 c 4,66,67
 131.608398438 189.438476562 131.608398438 189.438476562 136.9140625 200.240234375 c 4,68,69
 155.352539062 237.775390625 155.352539062 237.775390625 175.674804688 237.98046875 c 4,70,71
 197.956054688 236.657226562 197.956054688 236.657226562 204.234375 192.080078125 c 4,72,73
 216.727539062 92.23046875 216.727539062 92.23046875 246.0546875 53.3603515625 c 4,74,75
 254.98046875 39.080078125 254.98046875 39.080078125 267.474609375 39.080078125 c 4,76,77
 277.735351562 39.080078125 277.735351562 39.080078125 298.07421875 75.7998046875 c 4,78,79
 341.256835938 153.771484375 341.256835938 153.771484375 383.754882812 417.5 c 4,80,81
 387.833984375 446.061523438 387.833984375 446.061523438 398.034179688 513.889648438 c 132,-1,82
 408.234375 581.720703125 408.234375 581.720703125 413.844726562 619.969726562 c 132,-1,83
 419.454101562 658.219726562 419.454101562 658.219726562 420.984375 667.91015625 c 132,-1,84
 422.514648438 677.6015625 422.514648438 677.6015625 427.614257812 681.169921875 c 4,85,86
 430.702148438 681.662109375 430.702148438 681.662109375 433.369140625 681.662109375 c 4,87,88
 436.590820312 681.662109375 436.590820312 681.662109375 439.19921875 680.944335938 c 4,89,90
 443.965820312 679.630859375 443.965820312 679.630859375 446.204101562 677.204101562 c 132,-1,91
 448.442382812 674.776367188 448.442382812 674.776367188 449.537109375 670.658203125 c 132,-1,92
 450.623046875 666.573242188 450.623046875 666.573242188 450.623046875 663.670898438 c 4,93,-1
 450.623046875 663.624023438 l 4,94,95
 450.614257812 660.70703125 450.614257812 660.70703125 450.33203125 656.701171875 c 132,-1,96
 450.0546875 652.762695312 450.0546875 652.762695312 450.0546875 652.122070312 c 4,97,-1
 450.0546875 652.100585938 l 4,0,1
EndSplineSet
Validated: 1
EndChar

StartChar: X
Encoding: 88 88 32
Width: 485
VWidth: 965
Flags: W
LayerCount: 2
Fore
SplineSet
95.9716796875 644.33984375 m 0,0,1
 95.9951171875 644.340820312 95.9951171875 644.340820312 96.01953125 644.340820312 c 0,2,3
 98.91796875 644.340820312 98.91796875 644.340820312 110.275390625 634.0078125 c 0,4,5
 136.323242188 610.303710938 136.323242188 610.303710938 148.83984375 571.7109375 c 0,6,7
 157.899414062 542.431640625 157.899414062 542.431640625 169.637695312 506.025390625 c 128,-1,8
 181.373046875 469.620117188 181.373046875 469.620117188 192.793945312 434.06640625 c 128,-1,9
 204.21484375 398.513671875 204.21484375 398.513671875 213.493164062 368.233398438 c 1,10,11
 243.900390625 406.5390625 243.900390625 406.5390625 289.579101562 451.53515625 c 0,12,13
 333.29296875 494.59375 333.29296875 494.59375 380.9765625 533.7890625 c 0,14,15
 431.673828125 575.463867188 431.673828125 575.463867188 478.315429688 605.647460938 c 0,16,17
 520.459960938 632.918945312 520.459960938 632.918945312 550.08203125 637.509765625 c 0,18,19
 555.192382812 638.301757812 555.192382812 638.301757812 558.37109375 638.301757812 c 0,20,21
 563.608398438 638.301757812 563.608398438 638.301757812 563.608398438 636.153320312 c 0,22,23
 563.608398438 633.290039062 563.608398438 633.290039062 554.30859375 626.610351562 c 0,24,25
 552.915039062 625.610351562 552.915039062 625.610351562 550.4375 623.907226562 c 2,26,-1
 549.310546875 623.129882812 l 2,27,28
 476.690429688 572.779296875 476.690429688 572.779296875 405.548828125 508.435546875 c 0,29,30
 359.200195312 466.515625 359.200195312 466.515625 315.845703125 420.791992188 c 0,31,32
 267.454101562 369.759765625 267.454101562 369.759765625 229.432617188 321.322265625 c 1,33,34
 250.0703125 246.3828125 250.0703125 246.3828125 265.485351562 198.10546875 c 0,35,36
 286.010742188 133.81640625 286.010742188 133.81640625 307.520507812 82.701171875 c 0,37,38
 323.3046875 45.193359375 323.3046875 45.193359375 340.669921875 12.0419921875 c 0,39,40
 340.669921875 4.0390625 340.669921875 4.0390625 325.837890625 0.1767578125 c 0,41,42
 320.604492188 -1.1875 320.604492188 -1.1875 316.208984375 -1.1875 c 0,43,44
 307.526367188 -1.1875 307.526367188 -1.1875 302.106445312 4.130859375 c 0,45,46
 287.771484375 32.3720703125 287.771484375 32.3720703125 274.28515625 64.998046875 c 0,47,48
 254.1953125 113.604492188 254.1953125 113.604492188 232.099609375 182.658203125 c 0,49,50
 225.72265625 202.5859375 225.72265625 202.5859375 214.685546875 238.434570312 c 128,-1,51
 203.646484375 274.284179688 203.646484375 274.284179688 199.26953125 288.166992188 c 1,52,53
 165.026367188 249.333984375 165.026367188 249.333984375 141.46875 215.926757812 c 0,54,55
 116.833007812 180.995117188 116.833007812 180.995117188 101.063476562 147.821289062 c 0,56,57
 96.517578125 138.256835938 96.517578125 138.256835938 92.5751953125 128.750976562 c 128,-1,58
 88.6318359375 119.244140625 88.6318359375 119.244140625 85.1669921875 109.098632812 c 128,-1,59
 81.703125 98.955078125 81.703125 98.955078125 79.1005859375 90.779296875 c 128,-1,60
 76.5 82.603515625 76.5 82.603515625 73.3984375 71.021484375 c 128,-1,61
 70.296875 59.4404296875 70.296875 59.4404296875 68.4052734375 52.05078125 c 128,-1,62
 66.5126953125 44.658203125 66.5126953125 44.658203125 63.142578125 31.09375 c 128,-1,63
 59.7705078125 17.5283203125 59.7705078125 17.5283203125 57.8681640625 10.0634765625 c 0,64,65
 51.4677734375 -0.5947265625 51.4677734375 -0.5947265625 37.103515625 -0.814453125 c 0,66,67
 33.1435546875 -0.58984375 33.1435546875 -0.58984375 28.8115234375 0.744140625 c 128,-1,68
 24.4794921875 2.07421875 24.4794921875 2.07421875 20.943359375 4.84765625 c 128,-1,69
 17.408203125 7.62109375 17.408203125 7.62109375 17.3271484375 11.052734375 c 0,70,71
 40.7509765625 108.870117188 40.7509765625 108.870117188 66.748046875 162.323242188 c 0,72,73
 85.4765625 200.831054688 85.4765625 200.831054688 115.337890625 243.938476562 c 0,74,75
 142.295898438 282.85546875 142.295898438 282.85546875 183.366210938 332.9453125 c 1,76,77
 172.765625 364.82421875 172.765625 364.82421875 135.356445312 490.671875 c 128,-1,78
 97.9462890625 616.51953125 97.9462890625 616.51953125 96.4326171875 625.106445312 c 0,79,80
 94.3251953125 635.2578125 94.3251953125 635.2578125 94.3251953125 640.051757812 c 0,81,82
 94.3251953125 644.287109375 94.3251953125 644.287109375 95.9716796875 644.33984375 c 0,0,1
EndSplineSet
Validated: 1
EndChar

StartChar: Y
Encoding: 89 89 33
Width: 376
VWidth: 965
Flags: W
LayerCount: 2
Fore
SplineSet
147.331054688 140.372070312 m 4,0,1
 145.091796875 89.154296875 145.091796875 89.154296875 159.208984375 46.341796875 c 4,2,3
 167.890625 20.009765625 167.890625 20.009765625 175.045898438 7.7392578125 c 4,4,5
 181.060546875 -2.57421875 181.060546875 -2.57421875 174.358398438 -2.3291015625 c 4,6,7
 169.092773438 -2.13671875 169.092773438 -2.13671875 159.182617188 3.6572265625 c 4,8,9
 153.651367188 6.8916015625 153.651367188 6.8916015625 140.403320312 17.6376953125 c 4,10,11
 123.387695312 34.65234375 123.387695312 34.65234375 118.091796875 67.216796875 c 4,12,13
 112.108398438 104.006835938 112.108398438 104.006835938 112.607421875 147.30078125 c 4,14,15
 113.153320312 194.822265625 113.153320312 194.822265625 127.53515625 266.077148438 c 4,16,17
 135.744140625 306.749023438 135.744140625 306.749023438 149.646484375 357.318359375 c 5,18,19
 116.78125 364.893554688 116.78125 364.893554688 91.9111328125 379.927734375 c 4,20,21
 57.0390625 401.008789062 57.0390625 401.008789062 38.4541015625 436.322265625 c 4,22,23
 22.6171875 465.026367188 22.6171875 465.026367188 22.6171875 514.516601562 c 132,-1,24
 22.6171875 564.006835938 22.6171875 564.006835938 37.4638671875 608.547851562 c 4,25,26
 51.3212890625 652.098632812 51.3212890625 652.098632812 68.1474609375 652.098632812 c 4,27,28
 82.00390625 652.098632812 82.00390625 652.098632812 82.00390625 638.2421875 c 4,29,30
 69.173828125 585.583007812 69.173828125 585.583007812 65.716796875 564.440429688 c 4,31,32
 58.0107421875 517.311523438 58.0107421875 517.311523438 64.44140625 484.645507812 c 4,33,34
 71.84765625 447.017578125 71.84765625 447.017578125 92.3974609375 428.8984375 c 4,35,36
 125.720703125 399.521484375 125.720703125 399.521484375 161.985351562 399.1015625 c 4,37,38
 199.728515625 398.6640625 199.728515625 398.6640625 230.39453125 430.467773438 c 4,39,40
 264.430664062 469.465820312 264.430664062 469.465820312 279.737304688 506.5625 c 4,41,42
 295.833984375 545.571289062 295.833984375 545.571289062 298.770507812 581.823242188 c 4,43,44
 300.525390625 603.4765625 300.525390625 603.4765625 293.822265625 639.231445312 c 4,45,46
 289.86328125 653.088867188 289.86328125 653.088867188 289.86328125 655.068359375 c 4,47,48
 296.364257812 670.672851562 296.364257812 670.672851562 310.6484375 666.946289062 c 4,49,50
 320.10546875 664.478515625 320.10546875 664.478515625 324.442382812 659.698242188 c 132,-1,51
 328.778320312 654.918945312 328.778320312 654.918945312 332.423828125 644.180664062 c 4,52,53
 337.376953125 609.504882812 337.376953125 609.504882812 336.3828125 589.741210938 c 4,54,55
 334.34375 549.200195312 334.34375 549.200195312 323.112304688 513.837890625 c 4,56,57
 310.954101562 475.564453125 310.954101562 475.564453125 289.895507812 443.649414062 c 4,58,59
 265.002929688 405.924804688 265.002929688 405.924804688 237.03125 383.924804688 c 4,60,61
 215.029296875 366.620117188 215.029296875 366.620117188 187.307617188 357.6171875 c 5,62,63
 173.233398438 314.837890625 173.233398438 314.837890625 161.614257812 252.543945312 c 4,64,65
 149.669921875 188.514648438 149.669921875 188.514648438 147.331054688 140.372070312 c 4,0,1
EndSplineSet
Validated: 33
EndChar

StartChar: Z
Encoding: 90 90 34
Width: 593
VWidth: 965
Flags: W
LayerCount: 2
Fore
SplineSet
152.458984375 136.243164062 m 1,0,1
 139.364257812 145.556640625 139.364257812 145.556640625 123.046875 158.637695312 c 0,2,3
 101.796875 175.674804688 101.796875 175.674804688 94.814453125 183.87890625 c 0,4,5
 94.6123046875 184.138671875 94.6123046875 184.138671875 94.34765625 184.415039062 c 1,6,7
 94.13671875 183.657226562 94.13671875 183.657226562 94.060546875 182.696289062 c 0,8,9
 93.6318359375 162.3984375 93.6318359375 162.3984375 92.4609375 144.818359375 c 128,-1,10
 91.291015625 127.23828125 91.291015625 127.23828125 89.3779296875 112.370117188 c 0,11,12
 84.576171875 75.056640625 84.576171875 75.056640625 73.1279296875 44.2451171875 c 1,13,14
 98.966796875 68.47265625 98.966796875 68.47265625 119.349609375 93.0107421875 c 0,15,16
 135.341796875 112.262695312 135.341796875 112.262695312 152.458984375 136.243164062 c 1,0,1
94.060546875 182.696289062 m 1,17,-1
 94.060546875 182.696289062 l 1,17,-1
402.76953125 570.374023438 m 1,18,19
 280.98828125 555.904296875 280.98828125 555.904296875 225.498046875 561.7890625 c 0,20,21
 197.962890625 564.708984375 197.962890625 564.708984375 169.653320312 570.34375 c 128,-1,22
 141.334960938 575.977539062 141.334960938 575.977539062 117.25390625 583.916015625 c 128,-1,23
 93.0712890625 591.887695312 93.0712890625 591.887695312 82.7509765625 600.057617188 c 0,24,25
 75.1904296875 605.817382812 75.1904296875 605.817382812 68.7734375 616.711914062 c 0,26,27
 67.1611328125 619.44921875 67.1611328125 619.44921875 66.041015625 622.09375 c 128,-1,28
 64.919921875 624.73828125 64.919921875 624.73828125 64.28515625 627.313476562 c 128,-1,29
 63.650390625 629.888671875 63.650390625 629.888671875 63.521484375 632.366210938 c 128,-1,30
 63.392578125 634.844726562 63.392578125 634.844726562 63.763671875 637.248046875 c 0,31,32
 68.1015625 650.569335938 68.1015625 650.569335938 82.568359375 647.87109375 c 0,33,34
 86.2646484375 647.180664062 86.2646484375 647.180664062 89.1630859375 643.704101562 c 0,35,36
 90.078125 642.60546875 90.078125 642.60546875 90.9609375 641.352539062 c 128,-1,37
 91.84375 640.099609375 91.84375 640.099609375 92.69140625 638.700195312 c 128,-1,38
 93.5390625 637.30078125 93.5390625 637.30078125 94.3564453125 635.744140625 c 0,39,40
 96.7177734375 631.250976562 96.7177734375 631.250976562 97.84765625 629.896484375 c 0,41,42
 107.094726562 618.810546875 107.094726562 618.810546875 144.912109375 608.396484375 c 0,43,44
 180.663085938 598.5546875 180.663085938 598.5546875 222.768554688 594.270507812 c 0,45,46
 258.579101562 590.629882812 258.579101562 590.629882812 323.27734375 596.69921875 c 0,47,48
 344.552734375 598.6953125 344.552734375 598.6953125 361.8828125 600.735351562 c 128,-1,49
 379.211914062 602.776367188 379.211914062 602.776367188 392.126953125 604.790039062 c 128,-1,50
 405.041992188 606.8046875 405.041992188 606.8046875 413.645507812 608.791992188 c 1,51,52
 421.327148438 628.995117188 421.327148438 628.995117188 428.182617188 634.877929688 c 0,53,54
 433.958984375 639.8359375 433.958984375 639.8359375 440.829101562 642.358398438 c 128,-1,55
 447.69921875 644.879882812 447.69921875 644.879882812 455.606445312 644.950195312 c 0,56,57
 470.973632812 645.087890625 470.973632812 645.087890625 480.298828125 636.352539062 c 0,58,59
 490.465820312 626.833007812 490.465820312 626.833007812 489.921875 613.540039062 c 0,60,61
 489.321289062 598.8828125 489.321289062 598.8828125 475.854492188 586.52734375 c 0,62,63
 472.529296875 583.475585938 472.529296875 583.475585938 467.447265625 580.806640625 c 128,-1,64
 462.365234375 578.137695312 462.365234375 578.137695312 455.888671875 575.970703125 c 128,-1,65
 449.411132812 573.802734375 449.411132812 573.802734375 441.545898438 572.087890625 c 1,66,67
 434.938476562 562.353515625 434.938476562 562.353515625 426.919921875 543.961914062 c 0,68,69
 415.272460938 519.79296875 415.272460938 519.79296875 405.634765625 499.818359375 c 128,-1,70
 395.99609375 479.84375 395.99609375 479.84375 388.338867188 464.005859375 c 0,71,72
 368.483398438 422.939453125 368.483398438 422.939453125 354.805664062 394.875 c 128,-1,73
 341.127929688 366.809570312 341.127929688 366.809570312 334.029296875 352.5625 c 1,74,75
 336.154296875 352.485351562 336.154296875 352.485351562 338.397460938 352.415039062 c 128,-1,76
 340.639648438 352.34375 340.639648438 352.34375 343.153320312 352.274414062 c 128,-1,77
 345.666992188 352.206054688 345.666992188 352.206054688 348.411132812 352.137695312 c 128,-1,78
 351.155273438 352.0703125 351.155273438 352.0703125 354.411132812 351.998046875 c 0,79,80
 368.52734375 351.680664062 368.52734375 351.680664062 386.370117188 351.282226562 c 128,-1,81
 404.217773438 350.8828125 404.217773438 350.8828125 418.0859375 350.443359375 c 0,82,83
 452.7265625 349.34765625 452.7265625 349.34765625 475.091796875 347.545898438 c 128,-1,84
 497.45703125 345.743164062 497.45703125 345.743164062 507.774414062 343.201171875 c 0,85,86
 550.547851562 332.661132812 550.547851562 332.661132812 556.30078125 321.415039062 c 0,87,88
 559.180664062 315.78515625 559.180664062 315.78515625 546.583007812 314.78125 c 0,89,90
 542.994140625 314.495117188 542.994140625 314.495117188 538.094726562 314.581054688 c 0,91,92
 521.491210938 314.959960938 521.491210938 314.959960938 500.602539062 315.489257812 c 128,-1,93
 479.717773438 316.016601562 479.717773438 316.016601562 456.094726562 316.626953125 c 128,-1,94
 432.473632812 317.237304688 432.473632812 317.237304688 417.16796875 317.61328125 c 0,95,96
 350.890625 319.243164062 350.890625 319.243164062 316.702148438 319.5 c 1,97,98
 308.418945312 304.71875 308.418945312 304.71875 300.770507812 291.385742188 c 128,-1,99
 293.122070312 278.051757812 293.122070312 278.051757812 286.040039062 266.046875 c 128,-1,100
 278.958007812 254.041015625 278.958007812 254.041015625 272.341796875 243.190429688 c 0,101,102
 235.978515625 183.556640625 235.978515625 183.556640625 205.221679688 144.57421875 c 1,103,104
 250.348632812 117.666992188 250.348632812 117.666992188 370.009765625 78.3427734375 c 0,105,106
 528.958984375 26.10546875 528.958984375 26.10546875 586.989257812 19.9541015625 c 0,107,108
 591.08203125 19.51953125 591.08203125 19.51953125 596.353515625 16.279296875 c 128,-1,109
 601.51953125 13.1044921875 601.51953125 13.1044921875 604.866210938 9.947265625 c 0,110,111
 608.455078125 6.56640625 608.455078125 6.56640625 608.455078125 5.2451171875 c 128,-1,112
 608.455078125 3.8515625 608.455078125 3.8515625 607.181640625 2.578125 c 0,113,114
 606.919921875 2.31640625 606.919921875 2.31640625 606.551757812 2.2880859375 c 0,115,116
 595.858398438 1.458984375 595.858398438 1.458984375 573.12109375 1.458984375 c 128,-1,117
 550.383789062 1.4599609375 550.383789062 1.4599609375 539.783203125 2.2880859375 c 0,118,119
 519.494140625 3.876953125 519.494140625 3.876953125 492.19140625 9.42578125 c 128,-1,120
 464.888671875 14.974609375 464.888671875 14.974609375 430.6015625 24.4716796875 c 128,-1,121
 396.313476562 33.96875 396.313476562 33.96875 354.963867188 47.4287109375 c 0,122,123
 237.922851562 85.529296875 237.922851562 85.529296875 181.490234375 114.923828125 c 1,124,125
 177.749023438 110.67578125 177.749023438 110.67578125 163.967773438 94.7734375 c 0,126,127
 148.877929688 77.359375 148.877929688 77.359375 139.272460938 66.7783203125 c 0,128,129
 118.344726562 43.7236328125 118.344726562 43.7236328125 102.102539062 28.9482421875 c 0,130,131
 90.8681640625 18.73046875 90.8681640625 18.73046875 85.73046875 14.47265625 c 128,-1,132
 80.5224609375 10.15625 80.5224609375 10.15625 72.1083984375 5.99609375 c 128,-1,133
 63.556640625 1.7666015625 63.556640625 1.7666015625 55.8515625 2.2880859375 c 0,134,135
 52.01171875 2.6708984375 52.01171875 2.6708984375 48.39453125 4.2822265625 c 128,-1,136
 44.7783203125 5.892578125 44.7783203125 5.892578125 41.3662109375 8.720703125 c 0,137,138
 34.2060546875 14.6533203125 34.2060546875 14.6533203125 36.3896484375 20.2998046875 c 0,139,140
 51.3115234375 58.849609375 51.3115234375 58.849609375 59.6611328125 114.995117188 c 0,141,142
 69.5859375 181.724609375 69.5859375 181.724609375 65.7138671875 235.381835938 c 0,143,144
 66.765625 239.091796875 66.765625 239.091796875 70.4375 242.266601562 c 0,145,146
 75.607421875 246.260742188 75.607421875 246.260742188 78.14453125 244.04296875 c 0,147,148
 114.909179688 211.9296875 114.909179688 211.9296875 135.958007812 194.623046875 c 0,149,150
 148.938476562 183.950195312 148.938476562 183.950195312 158.490234375 176.711914062 c 128,-1,151
 168.041992188 169.473632812 168.041992188 169.473632812 173.724609375 165.966796875 c 1,152,153
 204.09375 201.275390625 204.09375 201.275390625 238.930664062 255.913085938 c 0,154,155
 263.73046875 294.80859375 263.73046875 294.80859375 276.413085938 321.438476562 c 1,156,-1
 187.0859375 324.927734375 l 1,157,-1
 186.41015625 325.227539062 l 2,158,159
 180.763671875 331.006835938 180.763671875 331.006835938 180.729492188 342.977539062 c 0,160,161
 180.69140625 355.484375 180.69140625 355.484375 188.118164062 355.962890625 c 0,162,163
 206.799804688 356.313476562 206.799804688 356.313476562 242.555664062 355.684570312 c 0,164,165
 254.18359375 355.479492188 254.18359375 355.479492188 263.994140625 355.368164062 c 128,-1,166
 273.8046875 355.255859375 273.8046875 355.255859375 281.28515625 355.241210938 c 128,-1,167
 288.765625 355.225585938 288.765625 355.225585938 294.217773438 355.297851562 c 1,168,169
 322.810546875 407.733398438 322.810546875 407.733398438 358.02734375 478.751953125 c 0,170,171
 372.916015625 508.780273438 372.916015625 508.780273438 402.76953125 570.374023438 c 1,18,19
EndSplineSet
Validated: 33
EndChar

StartChar: a
Encoding: 97 97 35
Width: 333
VWidth: 965
Flags: W
LayerCount: 2
Fore
SplineSet
278.109375 205.552734375 m 4,0,1
 278.03515625 203.825195312 278.03515625 203.825195312 276.587890625 203.825195312 c 4,2,3
 275.895507812 203.825195312 275.895507812 203.825195312 274.890625 204.219726562 c 5,4,5
 272 214 272 214 246.670898438 249.732421875 c 4,6,7
 228.553710938 275.518554688 228.553710938 275.518554688 193.8125 275.518554688 c 4,8,9
 185.079101562 275.518554688 185.079101562 275.518554688 175.294921875 273.888671875 c 4,10,11
 152 270 152 270 127.926757812 255.4765625 c 4,12,13
 124 253 124 253 120 250.5 c 132,-1,14
 116 248 116 248 112.71875 245.1328125 c 4,15,16
 94 229 94 229 84.171875 213.317382812 c 4,17,18
 66 183 66 183 63.560546875 148.522460938 c 4,19,20
 63.1435546875 141.901367188 63.1435546875 141.901367188 63.1435546875 135.643554688 c 4,21,22
 63.1435546875 88.47265625 63.1435546875 88.47265625 86.8369140625 61.88671875 c 4,23,24
 91 57 91 57 100.58984375 49.5791015625 c 4,25,26
 115.19140625 39.4287109375 115.19140625 39.4287109375 129.88671875 39.4287109375 c 4,27,28
 137.745117188 39.4287109375 137.745117188 39.4287109375 145.629882812 42.3310546875 c 4,29,30
 185 55 185 55 217.133789062 99.44140625 c 4,31,32
 248 143 248 143 250.529296875 179.57421875 c 4,33,34
 251 188 251 188 258.776367188 192.784179688 c 4,35,36
 267 197 267 197 274.891601562 197.02734375 c 4,37,38
 284 197 284 197 290.041992188 193.579101562 c 4,39,40
 291 193 291 193 291.116210938 192.670898438 c 132,-1,41
 291.083984375 192.485351562 291.083984375 192.485351562 291.083984375 192.296875 c 4,42,43
 291.083984375 191.801757812 291.083984375 191.801757812 291.3046875 191.28125 c 4,44,45
 287 173 287 173 284.684570312 158.513671875 c 4,46,47
 284 155 284 155 283.635742188 152.754882812 c 4,48,49
 279 128 279 128 278.38671875 113.162109375 c 4,50,51
 278.157226562 110.69140625 278.157226562 110.69140625 278.157226562 108.563476562 c 4,52,53
 278.157226562 107.108398438 278.157226562 107.108398438 278.264648438 105.813476562 c 4,54,55
 279 81 279 81 284.05078125 70.2685546875 c 4,56,57
 286 66 286 66 287.67578125 61.4755859375 c 4,58,59
 290 57 290 57 291.623046875 53.4365234375 c 4,60,61
 294 50 294 50 295.892578125 46.1533203125 c 4,62,63
 308 27 308 27 315.588867188 14.88671875 c 4,64,65
 323 3 323 3 325.153320312 -1.7568359375 c 4,66,-1
 325.354492188 -2.5986328125 l 6,67,68
 325.775390625 -4.2373046875 325.775390625 -4.2373046875 325.775390625 -5.6787109375 c 4,69,70
 325.775390625 -9.8671875 325.775390625 -9.8671875 322.216796875 -12.3896484375 c 4,71,72
 320.625 -13.681640625 320.625 -13.681640625 317.940429688 -13.681640625 c 132,-1,73
 315.19921875 -13.681640625 315.19921875 -13.681640625 311.319335938 -12.3349609375 c 4,74,75
 303 -9 303 -9 290.7421875 -1.9404296875 c 4,76,77
 277 6 277 6 260.836914062 40.1376953125 c 4,78,79
 244.372070312 74.2294921875 244.372070312 74.2294921875 242.837890625 74.2294921875 c 4,80,81
 242.803710938 74.2294921875 242.803710938 74.2294921875 242.776367188 74.2119140625 c 4,82,83
 218 49 218 49 217.616210938 48.3037109375 c 4,84,85
 178 4 178 4 126.407226562 3.45703125 c 5,86,87
 54 6 54 6 32.1640625 74.9931640625 c 4,88,89
 22.6611328125 105.159179688 22.6611328125 105.159179688 22.6611328125 134.029296875 c 4,90,91
 22.6611328125 166.418945312 22.6611328125 166.418945312 34.62109375 197.178710938 c 4,92,93
 44 221 44 221 57.4443359375 238.225585938 c 4,94,95
 107 300 107 300 187.001953125 302.842773438 c 4,96,97
 189.125 302.909179688 189.125 302.909179688 191.1796875 302.909179688 c 4,98,99
 193.9609375 302.909179688 193.9609375 302.909179688 196.615234375 302.787109375 c 4,100,101
 204 302 204 302 211.854492188 300.756835938 c 4,102,103
 219 299 219 299 226.263671875 296.311523438 c 4,104,105
 278.36328125 275.456054688 278.36328125 275.456054688 278.36328125 214.2890625 c 4,106,107
 278.36328125 210.018554688 278.36328125 210.018554688 278.109375 205.552734375 c 4,0,1
EndSplineSet
Validated: 1
Substitution2: "Single Substitution lookup 5 subtable" a.ss02
Substitution2: "Single Substitution lookup 4 subtable" a.ss02
Substitution2: "Single Substitution lookup 3 subtable" a.ss01
Substitution2: "Single Substitution lookup 2 subtable" a.ss01
EndChar

StartChar: b
Encoding: 98 98 36
Width: 394
VWidth: 965
Flags: W
LayerCount: 2
Fore
SplineSet
87.30078125 295.48828125 m 4,0,1
 159 321 159 321 222.340820312 321.573242188 c 4,2,3
 223.9375 321.596679688 223.9375 321.596679688 225.522460938 321.596679688 c 4,4,5
 253.373046875 321.596679688 253.373046875 321.596679688 277.5 314.5 c 4,6,7
 303 307 303 307 322.83203125 291.6875 c 4,8,9
 363.708984375 260.509765625 363.708984375 260.509765625 363.708984375 211.971679688 c 4,10,11
 363.708984375 208.063476562 363.708984375 208.063476562 363.444335938 204.043945312 c 4,12,13
 363 197 363 197 362.416992188 189.524414062 c 132,-1,14
 362 182 362 182 359.943359375 175.345703125 c 4,15,16
 359 172 359 172 358 168.5 c 132,-1,17
 357 165 357 165 355.578125 161.024414062 c 4,18,19
 353 154 353 154 349.5 147 c 132,-1,20
 346 140 346 140 341.5 132.5 c 132,-1,21
 337 125 337 125 332 118 c 132,-1,22
 327 111 327 111 321 104 c 132,-1,23
 315 97 315 97 307.809570312 89.6875 c 4,24,25
 265 46 265 46 217.534179688 23.0166015625 c 4,26,27
 171.9453125 0.9423828125 171.9453125 0.9423828125 129.9765625 0.9423828125 c 4,28,29
 128.248046875 0.9423828125 128.248046875 0.9423828125 126.526367188 0.9794921875 c 6,30,-1
 126.346679688 0.9833984375 l 6,31,32
 85 2 85 2 63.0869140625 17.439453125 c 132,-1,33
 41 33 41 33 33.5 47 c 4,34,35
 26.4453125 60.16796875 26.4453125 60.16796875 26.4453125 76.2314453125 c 4,36,37
 26.4453125 77.2451171875 26.4453125 77.2451171875 26.4736328125 78.271484375 c 4,38,39
 27 104 27 104 41.087890625 140.65234375 c 4,40,41
 64.9912109375 200.978515625 64.9912109375 200.978515625 81.4326171875 200.978515625 c 4,42,-1
 81.4443359375 200.978515625 l 4,43,-1
 81.5029296875 200.978515625 l 4,44,45
 88.005859375 200.978515625 88.005859375 200.978515625 89.3916015625 196.198242188 c 4,46,47
 89.8291015625 194.6171875 89.8291015625 194.6171875 89.8291015625 193.356445312 c 4,48,49
 89.8291015625 192.864257812 89.8291015625 192.864257812 89.7626953125 192.421875 c 132,-1,50
 89.7890625 191.923828125 89.7890625 191.923828125 89.7890625 191.4296875 c 4,51,52
 89.7890625 187.534179688 89.7890625 187.534179688 88.1298828125 183.8671875 c 4,53,54
 86 179 86 179 84.8203125 174.864257812 c 4,55,56
 67 126 67 126 65.7890625 97.2041015625 c 4,57,58
 65.7353515625 95.638671875 65.7353515625 95.638671875 65.7353515625 94.1142578125 c 4,59,60
 65.7353515625 44.77734375 65.7353515625 44.77734375 121.877929688 37.5771484375 c 4,61,62
 126.079101562 37.064453125 126.079101562 37.064453125 131.009765625 37.064453125 c 4,63,64
 150.866210938 37.064453125 150.866210938 37.064453125 182.546875 45.37890625 c 4,65,66
 202 51 202 51 232.584960938 72.326171875 c 4,67,68
 326 140 326 140 326.444335938 216.978515625 c 4,69,70
 326 285.979492188 326 285.979492188 211.512695312 285.979492188 c 4,71,-1
 211.444335938 285.979492188 l 4,72,-1
 211.319335938 285.979492188 l 4,73,74
 162.954101562 285.979492188 162.954101562 285.979492188 127.166992188 270.146484375 c 4,75,76
 90 254 90 254 74.193359375 253.978515625 c 4,77,78
 66 254 66 254 60 256 c 132,-1,79
 54 258 54 258 50.5 262 c 132,-1,80
 47 266 47 266 45 271.5 c 4,81,82
 43.36328125 276 43.36328125 276 43.36328125 281.192382812 c 4,83,84
 43.36328125 282.345703125 43.36328125 282.345703125 43.4443359375 283.533203125 c 4,85,86
 44 296 44 296 55.4443359375 344.833007812 c 4,87,88
 71 408 71 408 135.260742188 538.301757812 c 5,89,90
 139.969726562 546.944335938 139.969726562 546.944335938 148.625976562 546.944335938 c 4,91,-1
 148.737304688 546.944335938 l 4,92,93
 148.883789062 546.947265625 148.883789062 546.947265625 149.030273438 546.947265625 c 4,94,95
 152.162109375 546.947265625 152.162109375 546.947265625 155.616210938 545.814453125 c 4,96,97
 161 543 161 543 165.838867188 540.91796875 c 4,98,99
 168 540 168 540 170 537 c 4,100,101
 170.877929688 535.682617188 170.877929688 535.682617188 170.877929688 534.940429688 c 4,102,103
 170.877929688 533.990234375 170.877929688 533.990234375 169.444335938 533.978515625 c 4,104,-1
 169.42578125 533.978515625 l 4,105,106
 169 533.978515625 169 533.978515625 169 533 c 132,-1,107
 169 532 169 532 168.5 531 c 132,-1,108
 168 530 168 530 167.5 528.5 c 132,-1,109
 167 527 167 527 166 525 c 132,-1,110
 165 523 165 523 163.775390625 521.37109375 c 4,111,112
 163 520 163 520 161.260742188 516.428710938 c 4,113,114
 160 513 160 513 158.356445312 510.661132812 c 4,115,116
 147 489 147 489 141.991210938 477.827148438 c 4,117,118
 83.8759765625 360.765625 83.8759765625 360.765625 83.8759765625 309.8671875 c 4,119,120
 83.8759765625 309.099609375 83.8759765625 309.099609375 83.8896484375 308.346679688 c 4,121,122
 84 302 84 302 84.673828125 297.075195312 c 4,123,124
 84.958984375 295.258789062 84.958984375 295.258789062 85.98828125 295.258789062 c 4,125,126
 86.134765625 295.258789062 86.134765625 295.258789062 86.296875 295.295898438 c 132,-1,127
 86.5625 295.184570312 86.5625 295.184570312 86.7705078125 295.184570312 c 132,-1,128
 87.11328125 295.184570312 87.11328125 295.184570312 87.30078125 295.48828125 c 4,0,1
EndSplineSet
Validated: 1
EndChar

StartChar: c
Encoding: 99 99 37
Width: 351
VWidth: 965
Flags: W
LayerCount: 2
Fore
SplineSet
165.555664062 317.20703125 m 0,0,1
 208 326 208 326 240.37890625 320.713867188 c 0,2,3
 252 319 252 319 254.926757812 313.801757812 c 0,4,5
 262 302 262 302 258.1484375 289.8828125 c 0,6,7
 257 287 257 287 256.430664062 285.048828125 c 0,8,9
 254 278 254 278 211.522460938 284.037109375 c 0,10,11
 204 285 204 285 195.157226562 285.163085938 c 0,12,13
 190 285 190 285 184.299804688 284.745117188 c 0,14,15
 124 278 124 278 90.1455078125 214.051757812 c 0,16,17
 68 173 68 173 68.251953125 138.897460938 c 0,18,19
 68 96 68 96 100.814453125 69.0478515625 c 0,20,21
 107 64 107 64 114.31640625 59.0078125 c 0,22,23
 145 39 145 39 180.018554688 39.0927734375 c 1,24,25
 228 39 228 39 264 62.2470703125 c 0,26,27
 291 79 291 79 310 112 c 5,28,29
 314 92 314 92 283 54.5 c 0,30,31
 267 36 267 36 247 24.0286499572 c 0,32,33
 198 -6 198 -6 143.59765625 3.4873046875 c 0,34,35
 129 6 129 6 117.791992188 11.14453125 c 0,36,37
 74 31 74 31 51.2255859375 61.478515625 c 0,38,39
 26 96 26 96 27.220703125 145.462890625 c 1,40,41
 45 292 45 292 165.555664062 317.20703125 c 0,0,1
EndSplineSet
Validated: 33
EndChar

StartChar: d
Encoding: 100 100 38
Width: 392
VWidth: 965
Flags: W
LayerCount: 2
Fore
SplineSet
244.453125 331.68359375 m 4,0,1
 261.6015625 422.55078125 261.6015625 422.55078125 290.263671875 506.1328125 c 132,-1,2
 318.924804688 589.715820312 318.924804688 589.715820312 351.055664062 640.430664062 c 4,3,4
 380.2890625 686.575195312 380.2890625 686.575195312 403.296875 686.575195312 c 4,5,6
 405.575195312 686.575195312 405.575195312 686.575195312 407.793945312 686.122070312 c 5,7,8
 419.19140625 679.122070312 419.19140625 679.122070312 419.19140625 655.209960938 c 4,9,10
 419.19140625 633.162109375 419.19140625 633.162109375 409.502929688 596.737304688 c 4,11,12
 389.307617188 520.805664062 389.307617188 520.805664062 356.010742188 440.341796875 c 132,-1,13
 322.715820312 359.877929688 322.715820312 359.877929688 292.250976562 278.723632812 c 4,14,15
 263.090820312 201.044921875 263.090820312 201.044921875 263.090820312 175.819335938 c 4,16,17
 263.090820312 174.690429688 263.090820312 174.690429688 263.149414062 173.666015625 c 4,18,19
 264.618164062 147.92578125 264.618164062 147.92578125 267.771484375 133.8671875 c 132,-1,20
 270.924804688 119.80859375 270.924804688 119.80859375 285.508789062 102.243164062 c 132,-1,21
 300.094726562 84.6787109375 300.094726562 84.6787109375 327.879882812 72.3232421875 c 4,22,23
 336.1796875 68.6318359375 336.1796875 68.6318359375 336.1796875 65.9345703125 c 132,-1,24
 336.1796875 63.19921875 336.1796875 63.19921875 327.639648438 61.4873046875 c 4,25,26
 322.146484375 60.38671875 322.146484375 60.38671875 316.368164062 60.38671875 c 4,27,28
 298.915039062 60.38671875 298.915039062 60.38671875 278.858398438 70.4326171875 c 4,29,30
 251.352539062 84.2109375 251.352539062 84.2109375 233.7265625 136.469726562 c 5,31,-1
 213.357421875 105.009765625 l 6,32,33
 191.142578125 70.6982421875 191.142578125 70.6982421875 177.150390625 56.1884765625 c 4,34,35
 159.497070312 38.154296875 159.497070312 38.154296875 147.544921875 27.7099609375 c 132,-1,36
 135.594726562 17.263671875 135.594726562 17.263671875 113.3046875 7.541015625 c 4,37,38
 98.677734375 1.1611328125 98.677734375 1.1611328125 85.2470703125 1.1611328125 c 4,39,40
 78.212890625 1.1611328125 78.212890625 1.1611328125 71.5078125 2.9111328125 c 4,41,42
 26.90625 20.07421875 26.90625 20.07421875 24.51171875 90.6943359375 c 4,43,44
 24.357421875 95.224609375 24.357421875 95.224609375 24.357421875 99.6435546875 c 4,45,46
 24.357421875 139.219726562 24.357421875 139.219726562 36.681640625 169.897460938 c 4,47,48
 54.5107421875 214.282226562 54.5107421875 214.282226562 89.4658203125 245.307617188 c 132,-1,49
 124.419921875 276.330078125 124.419921875 276.330078125 169.471679688 279.955078125 c 4,50,51
 202.287109375 279.2578125 202.287109375 279.2578125 234.700195312 248.067382812 c 5,52,53
 236.354492188 282.591796875 236.354492188 282.591796875 244.453125 331.68359375 c 4,0,1
392.264648438 648.84375 m 5,54,55
 357.772460938 602.4921875 357.772460938 602.4921875 325.928710938 514.704101562 c 132,-1,56
 294.084960938 426.915039062 294.084960938 426.915039062 278.998046875 361.512695312 c 4,57,58
 267.278320312 310.704101562 267.278320312 310.704101562 267.278320312 298.92578125 c 4,59,60
 267.278320312 295.54296875 267.278320312 295.54296875 268.245117188 295.379882812 c 4,61,62
 392.64453125 603.116210938 392.64453125 603.116210938 392.64453125 645.01953125 c 4,63,64
 392.64453125 647.33984375 392.64453125 647.33984375 392.264648438 648.84375 c 5,54,55
215.569335938 199.884765625 m 4,65,66
 212.399414062 220.514648438 212.399414062 220.514648438 192.428710938 234.831054688 c 4,67,68
 179.024414062 244.442382812 179.024414062 244.442382812 165.016601562 244.442382812 c 4,69,70
 158.15625 244.442382812 158.15625 244.442382812 151.154296875 242.138671875 c 4,71,72
 133.505859375 236.33203125 133.505859375 236.33203125 114.287109375 216.8828125 c 132,-1,73
 95.06640625 197.431640625 95.06640625 197.431640625 83.2255859375 176.901367188 c 4,74,75
 63.47265625 142.65234375 63.47265625 142.65234375 63.0126953125 96.1826171875 c 4,76,77
 63.0009765625 94.9208984375 63.0009765625 94.9208984375 63.0009765625 93.6875 c 4,78,79
 63.0009765625 38.3173828125 63.0009765625 38.3173828125 88.087890625 38.3173828125 c 4,80,81
 98.9501953125 38.3173828125 98.9501953125 38.3173828125 114.517578125 48.6982421875 c 4,82,83
 160.569335938 79.4140625 160.569335938 79.4140625 198.372070312 151.41015625 c 5,84,-1
 212.114257812 183.760742188 l 6,85,86
 215.573242188 195.577148438 215.573242188 195.577148438 215.573242188 199.600585938 c 4,87,88
 215.573242188 199.749023438 215.573242188 199.749023438 215.569335938 199.884765625 c 4,65,66
EndSplineSet
Validated: 1
Substitution2: "Single Substitution lookup 3 subtable" d.ss01
Substitution2: "Single Substitution lookup 2 subtable" d.ss01
EndChar

StartChar: e
Encoding: 101 101 39
Width: 316
VWidth: 965
Flags: W
LayerCount: 2
Fore
SplineSet
188 254 m 4,0,1
 188 264.274414062 188 264.274414062 156.4609375 264.274414062 c 132,-1,2
 124.921875 264.274414062 124.921875 264.274414062 94.150390625 230.90625 c 132,-1,3
 63.3798828125 197.538085938 63.3798828125 197.538085938 63.3798828125 171.452148438 c 4,4,5
 63.3798828125 170.171875 63.3798828125 170.171875 63.447265625 168.904296875 c 5,6,7
 118.795898438 169.041992188 118.795898438 169.041992188 165.458984375 217.159179688 c 4,8,9
 188 240.134765625 188 240.134765625 188 254 c 4,0,1
293.620117188 77.91796875 m 5,10,11
 294 78 294 78 294 77 c 4,12,13
 294 42 294 42 257.6875 20.900390625 c 4,14,15
 221 0 221 0 178.86328125 -0.025390625 c 4,16,17
 53 2 53 2 25.537109375 110.13671875 c 4,18,19
 7 184 7 184 48.955078125 236.341796875 c 4,20,21
 95 294 95 294 157.006835938 300.203125 c 4,22,23
 217 306 217 306 222 266 c 4,24,25
 224 251 224 251 210 224.5 c 4,26,27
 198 201 198 201 177.022460938 182.024414062 c 4,28,29
 127 136 127 136 65 136 c 5,30,31
 66 98 66 98 93.5 66 c 132,-1,32
 121 34 121 34 177.482421875 34.0458984375 c 28,33,-1
 177.663085938 34.0458984375 l 5,34,35
 269 33 269 33 293.620117188 77.91796875 c 5,10,11
EndSplineSet
Validated: 33
Substitution2: "Single Substitution lookup 7 subtable" e.ss03
Substitution2: "Single Substitution lookup 6 subtable" e.ss03
Substitution2: "Single Substitution lookup 5 subtable" e.ss02
Substitution2: "Single Substitution lookup 4 subtable" e.ss02
Substitution2: "Single Substitution lookup 3 subtable" e.ss01
Substitution2: "Single Substitution lookup 2 subtable" e.ss01
EndChar

StartChar: f
Encoding: 102 102 40
Width: 394
VWidth: 965
Flags: W
LayerCount: 2
Fore
SplineSet
362.028320312 667.74609375 m 4,0,1
 377.5859375 667.37890625 377.5859375 667.37890625 387.293945312 655.111328125 c 4,2,3
 397.745117188 641.90234375 397.745117188 641.90234375 404.141601562 625.685546875 c 132,-1,4
 410.532226562 609.489257812 410.532226562 609.489257812 412.875976562 590.328125 c 4,5,6
 414.719726562 575.263671875 414.719726562 575.263671875 414.360351562 560.05859375 c 4,7,8
 413.80859375 536.7265625 413.80859375 536.7265625 408.071289062 513.072265625 c 4,9,10
 406.178710938 505.271484375 406.178710938 505.271484375 403.795898438 497.518554688 c 132,-1,11
 401.4140625 489.766601562 401.4140625 489.766601562 398.54296875 482.06640625 c 132,-1,12
 395.670898438 474.366210938 395.670898438 474.366210938 392.310546875 466.715820312 c 132,-1,13
 388.94921875 459.065429688 388.94921875 459.065429688 385.1015625 451.467773438 c 132,-1,14
 381.252929688 443.870117188 381.252929688 443.870117188 376.915039062 436.32421875 c 4,15,16
 355.213867188 398.563476562 355.213867188 398.563476562 326.455078125 371.205078125 c 4,17,18
 312.02734375 357.479492188 312.02734375 357.479492188 295.40625 347.387695312 c 132,-1,19
 278.786132812 337.294921875 278.786132812 337.294921875 259.991210938 330.84765625 c 4,20,21
 236.295898438 322.717773438 236.295898438 322.717773438 212.508789062 323.279296875 c 4,22,23
 205.626953125 323.442382812 205.626953125 323.442382812 198.631835938 324.358398438 c 4,24,25
 192.138671875 325.209960938 192.138671875 325.209960938 185.513671875 326.712890625 c 4,26,27
 184.6484375 324.518554688 184.6484375 324.518554688 183.37109375 319.065429688 c 4,28,29
 182.555664062 315.591796875 182.555664062 315.591796875 181.581054688 310.854492188 c 132,-1,30
 180.60546875 306.116210938 180.60546875 306.116210938 179.471679688 300.124023438 c 4,31,32
 177.202148438 288.131835938 177.202148438 288.131835938 174.23046875 270.555664062 c 4,33,34
 173.940429688 268.837890625 173.940429688 268.837890625 173.643554688 267.065429688 c 132,-1,35
 173.346679688 265.291992188 173.346679688 265.291992188 173.044921875 263.477539062 c 132,-1,36
 172.743164062 261.663085938 172.743164062 261.663085938 172.434570312 259.799804688 c 132,-1,37
 172.126953125 257.935546875 172.126953125 257.935546875 171.815429688 256.03125 c 132,-1,38
 171.502929688 254.127929688 171.502929688 254.127929688 171.186523438 252.1796875 c 132,-1,39
 170.870117188 250.231445312 170.870117188 250.231445312 170.547851562 248.24609375 c 132,-1,40
 170.227539062 246.259765625 170.227539062 246.259765625 169.90234375 244.236328125 c 132,-1,41
 169.578125 242.211914062 169.578125 242.211914062 169.249023438 240.15234375 c 132,-1,42
 168.919921875 238.092773438 168.919921875 238.092773438 168.588867188 236 c 132,-1,43
 168.256835938 233.907226562 168.256835938 233.907226562 167.920898438 231.78125 c 4,44,45
 177.390625 228.899414062 177.390625 228.899414062 185.583984375 226.354492188 c 132,-1,46
 193.77734375 223.80859375 193.77734375 223.80859375 200.944335938 221.5234375 c 132,-1,47
 208.111328125 219.23828125 208.111328125 219.23828125 214.595703125 217.103515625 c 4,48,49
 234.061523438 210.698242188 234.061523438 210.698242188 245.220703125 206.317382812 c 4,50,51
 252.709960938 203.377929688 252.709960938 203.377929688 261.750976562 199.159179688 c 132,-1,52
 270.791015625 194.94140625 270.791015625 194.94140625 281.374023438 189.448242188 c 132,-1,53
 291.955078125 183.955078125 291.955078125 183.955078125 304.1015625 177.178710938 c 6,54,-1
 304.637695312 176.7421875 l 5,55,-1
 307.380859375 172.030273438 l 6,56,57
 308.529296875 169.192382812 308.529296875 169.192382812 309.403320312 165.1953125 c 4,58,59
 309.401367188 164.725585938 309.401367188 164.725585938 309.350585938 164.602539062 c 6,60,-1
 308.920898438 163.551757812 l 6,61,62
 308.801757812 163.262695312 308.801757812 163.262695312 308.541015625 163.092773438 c 4,63,64
 306.8828125 162.012695312 306.8828125 162.012695312 304.885742188 160.331054688 c 132,-1,65
 302.87109375 158.633789062 302.87109375 158.633789062 300.544921875 156.34765625 c 4,66,67
 293.858398438 149.776367188 293.858398438 149.776367188 288.166015625 149.91015625 c 4,68,69
 286.88671875 149.940429688 286.88671875 149.940429688 285.610351562 150.348632812 c 132,-1,70
 284.33203125 150.756835938 284.33203125 150.756835938 283.072265625 151.526367188 c 4,71,72
 259.287109375 161.30859375 259.287109375 161.30859375 237.91796875 169.015625 c 132,-1,73
 216.514648438 176.735351562 216.514648438 176.735351562 197.66015625 182.329101562 c 132,-1,74
 178.987304688 187.870117188 178.987304688 187.870117188 162.625976562 191.354492188 c 5,75,76
 141.932617188 41.84765625 141.932617188 41.84765625 138.6640625 -96.4384765625 c 4,77,78
 138.123046875 -119.3125 138.123046875 -119.3125 138.060546875 -142.19140625 c 132,-1,79
 137.998046875 -164.901367188 137.998046875 -164.901367188 138.404296875 -187.05078125 c 4,80,81
 139.353515625 -189.250976562 139.353515625 -189.250976562 139.701171875 -190.671875 c 4,82,83
 140.102539062 -192.307617188 140.102539062 -192.307617188 140.0625 -194.009765625 c 4,84,85
 139.8125 -204.595703125 139.8125 -204.595703125 120.530273438 -204.94921875 c 4,86,87
 118.665039062 -204.983398438 118.665039062 -204.983398438 116.966796875 -204.943359375 c 4,88,89
 103.438476562 -204.624023438 103.438476562 -204.624023438 100.381835938 -199.255859375 c 4,90,91
 99.244140625 -196.80859375 99.244140625 -196.80859375 98.765625 -193.924804688 c 132,-1,92
 98.287109375 -191.040039062 98.287109375 -191.040039062 98.369140625 -187.559570312 c 4,93,94
 98.4248046875 -185.188476562 98.4248046875 -185.188476562 98.7412109375 -182.525390625 c 6,95,-1
 100.232421875 -85.3251953125 l 6,96,97
 100.2109375 -70.34765625 100.2109375 -70.34765625 100.58203125 -54.6455078125 c 4,98,99
 101.2109375 -28.060546875 101.2109375 -28.060546875 102.994140625 1.0234375 c 5,100,101
 96.4267578125 40.326171875 96.4267578125 40.326171875 74.4599609375 79.1201171875 c 4,102,103
 69.9794921875 87.033203125 69.9794921875 87.033203125 66.3056640625 93.5703125 c 132,-1,104
 62.6318359375 100.108398438 62.6318359375 100.108398438 59.7138671875 105.358398438 c 132,-1,105
 56.796875 110.608398438 56.796875 110.608398438 54.6689453125 114.513671875 c 132,-1,106
 52.5390625 118.423828125 52.5390625 118.423828125 51.1748046875 121.03125 c 6,107,-1
 49.2080078125 124.96484375 l 6,108,109
 46.365234375 131.20703125 46.365234375 131.20703125 39.8740234375 144.30859375 c 4,110,111
 36.609375 150.896484375 36.609375 150.896484375 34.1416015625 156.181640625 c 4,112,113
 32.9072265625 158.827148438 32.9072265625 158.827148438 31.87109375 161.147460938 c 132,-1,114
 30.833984375 163.46875 30.833984375 163.46875 29.99609375 165.469726562 c 4,115,116
 28.3212890625 169.466796875 28.3212890625 169.466796875 26.5654296875 174.227539062 c 132,-1,117
 24.8115234375 178.989257812 24.8115234375 178.989257812 22.974609375 184.51953125 c 4,118,119
 19.826171875 194.004882812 19.826171875 194.004882812 20.001953125 201.446289062 c 4,120,121
 20.251953125 212.026367188 20.251953125 212.026367188 27.140625 218.45703125 c 4,122,123
 38.4384765625 229.0078125 38.4384765625 229.0078125 68.5810546875 233.473632812 c 4,124,125
 98.263671875 237.872070312 98.263671875 237.872070312 113.583984375 237.688476562 c 4,126,127
 116.48828125 237.653320312 116.48828125 237.653320312 118.896484375 237.696289062 c 132,-1,128
 121.305664062 237.73828125 121.305664062 237.73828125 123.2109375 237.858398438 c 6,129,-1
 127.1875 238.262695312 l 5,130,-1
 147.153320312 340.668945312 l 5,131,-1
 146.559570312 341.166015625 l 6,132,133
 146.162109375 341.478515625 146.162109375 341.478515625 145.639648438 341.830078125 c 132,-1,134
 145.1171875 342.182617188 145.1171875 342.182617188 144.4765625 342.56640625 c 4,135,136
 142.57421875 343.706054688 142.57421875 343.706054688 139.424804688 345.858398438 c 4,137,138
 137.857421875 346.930664062 137.857421875 346.930664062 135.965820312 348.262695312 c 132,-1,139
 134.075195312 349.59375 134.075195312 349.59375 131.860351562 351.186523438 c 4,140,141
 128.814453125 353.376953125 128.814453125 353.376953125 126.6015625 355.401367188 c 6,142,-1
 122.875976562 359.470703125 l 6,143,144
 122.118164062 360.5 122.118164062 360.5 121.576171875 361.514648438 c 132,-1,145
 121.032226562 362.530273438 121.032226562 362.530273438 120.706054688 363.536132812 c 4,146,-1
 120.004882812 368.068359375 l 6,147,148
 120.228515625 378.181640625 120.228515625 378.181640625 129.87890625 390.6640625 c 4,149,150
 131.788085938 393.130859375 131.788085938 393.130859375 134.302734375 393.071289062 c 4,151,152
 137.134765625 392.587890625 137.134765625 392.587890625 143.000976562 388.91796875 c 4,153,154
 145.758789062 387.193359375 145.758789062 387.193359375 148.206054688 385.703125 c 132,-1,155
 150.65234375 384.212890625 150.65234375 384.212890625 152.571289062 383.087890625 c 132,-1,156
 154.489257812 381.961914062 154.489257812 381.961914062 155.952148438 381.147460938 c 132,-1,157
 157.413085938 380.334960938 157.413085938 380.334960938 158.36328125 379.864257812 c 5,158,159
 161.383789062 392.046875 161.383789062 392.046875 164.819335938 403.737304688 c 132,-1,160
 168.254882812 415.427734375 168.254882812 415.427734375 172.239257812 427.096679688 c 4,161,162
 180.36328125 450.888671875 180.36328125 450.888671875 190.606445312 474 c 132,-1,163
 200.850585938 497.11328125 200.850585938 497.11328125 213.340820312 519.872070312 c 4,164,165
 250.977539062 588.454101562 250.977539062 588.454101562 291.353515625 628.104492188 c 4,166,167
 311.625976562 648.01171875 311.625976562 648.01171875 329.23828125 657.942382812 c 132,-1,168
 346.970703125 667.939453125 346.970703125 667.939453125 362.028320312 667.74609375 c 4,0,1
376.993164062 596.4765625 m 4,169,170
 373.823242188 610.333984375 373.823242188 610.333984375 368.522460938 617.116210938 c 132,-1,171
 363.375 623.701171875 363.375 623.701171875 356.279296875 623.869140625 c 4,172,173
 354.4765625 623.911132812 354.4765625 623.911132812 352.498046875 623.548828125 c 132,-1,174
 350.517578125 623.186523438 350.517578125 623.186523438 348.364257812 622.411132812 c 4,175,176
 344.020507812 620.848632812 344.020507812 620.848632812 339.044921875 617.587890625 c 4,177,178
 282.037109375 575.646484375 282.037109375 575.646484375 244.54296875 504.346679688 c 4,179,180
 207.624023438 434.145507812 207.624023438 434.145507812 194.200195312 367.075195312 c 5,181,182
 197.798828125 366.51171875 197.798828125 366.51171875 201.337890625 366.108398438 c 132,-1,183
 204.877929688 365.706054688 204.877929688 365.706054688 208.362304688 365.46484375 c 132,-1,184
 211.846679688 365.22265625 211.846679688 365.22265625 215.284179688 365.141601562 c 4,185,186
 242.010742188 364.509765625 242.010742188 364.509765625 265.737304688 373.573242188 c 4,187,188
 277.602539062 378.10546875 277.602539062 378.10546875 288.741210938 385.072265625 c 132,-1,189
 299.877929688 392.0390625 299.877929688 392.0390625 310.294921875 401.448242188 c 4,190,191
 335.501953125 424.216796875 335.501953125 424.216796875 351.823242188 455.706054688 c 4,192,193
 357.265625 466.208007812 357.265625 466.208007812 361.720703125 477.684570312 c 132,-1,194
 366.17578125 489.162109375 366.17578125 489.162109375 369.646484375 501.624023438 c 132,-1,195
 373.116210938 514.086914062 373.116210938 514.086914062 375.596679688 527.52734375 c 4,196,197
 376.348632812 531.602539062 376.348632812 531.602539062 376.965820312 535.540039062 c 4,198,199
 378.205078125 543.44140625 378.205078125 543.44140625 378.904296875 550.793945312 c 132,-1,200
 379.603515625 558.14453125 379.603515625 558.14453125 379.763671875 564.94140625 c 4,201,202
 379.97265625 573.752929688 379.97265625 573.752929688 379.27734375 581.64453125 c 4,203,204
 378.930664062 585.584960938 378.930664062 585.584960938 378.358398438 589.293945312 c 132,-1,205
 377.788085938 593.001953125 377.788085938 593.001953125 376.993164062 596.4765625 c 4,169,170
339.044921875 617.587890625 m 5,206,-1
 339.044921875 617.587890625 l 5,206,-1
338.473632812 618.409179688 m 1029,207,-1
122.106445312 197.920898438 m 5,208,209
 120.466796875 199.009765625 120.466796875 199.009765625 113.061523438 199.987304688 c 4,210,211
 109.186523438 200.499023438 109.186523438 200.499023438 105.234375 200.537109375 c 132,-1,212
 101.284179688 200.575195312 101.284179688 200.575195312 97.24609375 200.135742188 c 132,-1,213
 93.208984375 199.6953125 93.208984375 199.6953125 89.0869140625 198.778320312 c 132,-1,214
 84.966796875 197.860351562 84.966796875 197.860351562 80.75390625 196.458984375 c 4,215,216
 78.646484375 195.7578125 78.646484375 195.7578125 76.51953125 194.935546875 c 132,-1,217
 74.3916015625 194.114257812 74.3916015625 194.114257812 72.2421875 193.170898438 c 4,218,219
 69.478515625 191.959960938 69.478515625 191.959960938 67.955078125 188.635742188 c 132,-1,220
 66.357421875 185.15234375 66.357421875 185.15234375 66.216796875 179.193359375 c 4,221,222
 65.7197265625 158.16015625 65.7197265625 158.16015625 82.9892578125 108.873046875 c 4,223,224
 92.23046875 82.501953125 92.23046875 82.501953125 98.3232421875 63.599609375 c 4,225,226
 99.4921875 59.9765625 99.4921875 59.9765625 100.557617188 56.5830078125 c 132,-1,227
 101.623046875 53.1884765625 101.623046875 53.1884765625 102.557617188 50.1181640625 c 132,-1,228
 103.4921875 47.048828125 103.4921875 47.048828125 104.303710938 44.28515625 c 132,-1,229
 105.11328125 41.5224609375 105.11328125 41.5224609375 105.796875 39.0791015625 c 5,230,231
 109.578125 82.119140625 109.578125 82.119140625 121.939453125 196.375976562 c 6,232,-1
 122.106445312 197.920898438 l 5,208,209
EndSplineSet
Validated: 33
EndChar

StartChar: g
Encoding: 103 103 41
Width: 307
VWidth: 965
Flags: W
LayerCount: 2
Fore
SplineSet
146 268 m 132,-1,1
 146 255 146 255 156 245 c 132,-1,2
 166 235 166 235 169 235 c 132,-1,3
 172 235 172 235 182 245 c 132,-1,4
 192 255 192 255 192 268 c 132,-1,5
 192 281 192 281 182 291 c 132,-1,6
 172 301 172 301 169 301 c 132,-1,7
 166 301 166 301 156 291 c 132,-1,0
 146 281 146 281 146 268 c 132,-1,1
208 313 m 4,8,9
 225.991210938 296.64453125 225.991210938 296.64453125 225.991210938 275.13671875 c 4,10,11
 225.991210938 257.193359375 225.991210938 257.193359375 213.469726562 235.6640625 c 4,12,13
 203.813476562 219.106445312 203.813476562 219.106445312 183.71875 202.506835938 c 4,14,15
 184 202 184 202 221.265625 65.50390625 c 4,16,17
 255.99609375 -60.7978515625 255.99609375 -60.7978515625 255.99609375 -127.280273438 c 4,18,19
 255.99609375 -178.971679688 255.99609375 -178.971679688 235 -194.5 c 4,20,21
 222.377929688 -203.834960938 222.377929688 -203.834960938 207.024414062 -203.834960938 c 4,22,23
 163.991210938 -203.834960938 163.991210938 -203.834960938 99.5 -130.5 c 4,24,25
 24.873046875 -45.638671875 24.873046875 -45.638671875 24.873046875 19.5810546875 c 4,26,27
 24.873046875 30.8310546875 24.873046875 30.8310546875 27.09375 41.4970703125 c 4,28,29
 33.8720703125 76.34375 33.8720703125 76.34375 66.150390625 76.34375 c 4,30,31
 66.7587890625 76.34375 66.7587890625 76.34375 67.3759765625 76.3310546875 c 4,32,33
 83 76 83 76 83.333984375 62.6826171875 c 4,34,35
 83 54 83 54 72.5 40 c 4,36,37
 62.2734375 26.3642578125 62.2734375 26.3642578125 62.2734375 8.6904296875 c 4,38,39
 62.2734375 8.21875 62.2734375 8.21875 62.2802734375 7.744140625 c 4,40,41
 62.279296875 7.5380859375 62.279296875 7.5380859375 62.279296875 7.3310546875 c 4,42,43
 62.279296875 -36.3232421875 62.279296875 -36.3232421875 121.08984375 -104.399414062 c 4,44,45
 176.21484375 -164.876953125 176.21484375 -164.876953125 199.512695312 -164.876953125 c 4,46,47
 205.337890625 -164.876953125 205.337890625 -164.876953125 209.173828125 -161.094726562 c 4,48,49
 219.993164062 -151.265625 219.993164062 -151.265625 219.993164062 -122.069335938 c 4,50,51
 219.993164062 -70.7822265625 219.993164062 -70.7822265625 186.606445312 40.267578125 c 4,52,53
 148 168 148 168 143.5 183.5 c 132,-1,54
 139 199 139 199 133.434570312 210.672851562 c 4,55,56
 113.880859375 247.583007812 113.880859375 247.583007812 113.880859375 273.26953125 c 4,57,58
 113.880859375 300.700195312 113.880859375 300.700195312 136.180664062 315.331054688 c 4,59,60
 153.975585938 327.25390625 153.975585938 327.25390625 171.158203125 327.25390625 c 4,61,62
 189.9453125 327.25390625 189.9453125 327.25390625 208 313 c 4,8,9
EndSplineSet
Validated: 1
Substitution2: "Single Substitution lookup 3 subtable" g.ss01
Substitution2: "Single Substitution lookup 2 subtable" g.ss01
EndChar

StartChar: h
Encoding: 104 104 42
Width: 375
VWidth: 965
Flags: W
LayerCount: 2
Fore
SplineSet
211.504882812 139.977539062 m 4,0,1
 163 68 163 68 123.60546875 35.095703125 c 132,-1,2
 84.2109375 2.1904296875 84.2109375 2.1904296875 59.4423828125 1.5107421875 c 4,3,4
 50.787109375 1.2724609375 50.787109375 1.2724609375 41.0966796875 12.4169921875 c 4,5,6
 32.3095703125 22.525390625 32.3095703125 22.525390625 32.3095703125 67.6416015625 c 4,7,8
 32.3095703125 196.571289062 32.3095703125 196.571289062 167.396484375 610.049804688 c 4,9,10
 170.673828125 620.077148438 170.673828125 620.077148438 173.09765625 627.240234375 c 4,11,12
 186.759765625 667.600585938 186.759765625 667.600585938 192.836914062 667.600585938 c 4,13,14
 215.864257812 667.5 215.864257812 667.5 218.883789062 649.485351562 c 4,15,16
 218.883789062 646.4375 218.883789062 646.4375 211.827148438 625.319335938 c 4,17,18
 190.012695312 560.038085938 190.012695312 560.038085938 163.306640625 477.0390625 c 4,19,20
 128.93359375 370.201171875 128.93359375 370.201171875 100.815429688 248.615234375 c 4,21,22
 72.056640625 124.282226562 72.056640625 124.282226562 74.3056640625 71.830078125 c 4,23,24
 77 6 77 6 198.823242188 191.166015625 c 4,25,26
 199.295898438 192.0078125 199.295898438 192.0078125 203.407226562 199.637695312 c 4,27,28
 210.22265625 212.28125 210.22265625 212.28125 222.318359375 212.28125 c 4,29,30
 226.541992188 212.28125 226.541992188 212.28125 231.48046875 210.77734375 c 4,31,32
 239.022460938 208.553710938 239.022460938 208.553710938 242.133789062 189.825195312 c 4,33,34
 253 132 253 132 286.03125 86.0625 c 4,35,36
 339.737304688 15.0244140625 339.737304688 15.0244140625 339.737304688 7.5166015625 c 4,37,38
 339.737304688 -2.966796875 339.737304688 -2.966796875 322.34765625 -4.306640625 c 4,39,40
 320.786132812 -4.021484375 320.786132812 -4.021484375 310.620117188 -1.3359375 c 4,41,42
 299.3828125 1.6318359375 299.3828125 1.6318359375 297.349609375 4.2421875 c 4,43,44
 239.168945312 78.8857421875 239.168945312 78.8857421875 214.96875 139.526367188 c 4,45,46
 214.16796875 141.537109375 214.16796875 141.537109375 212.2265625 140.579101562 c 4,47,48
 211.888671875 140.546875 211.888671875 140.546875 211.504882812 139.977539062 c 4,0,1
EndSplineSet
Validated: 33
Substitution2: "Single Substitution lookup 3 subtable" h.ss01
Substitution2: "Single Substitution lookup 2 subtable" h.ss01
EndChar

StartChar: i
Encoding: 105 105 43
Width: 149
VWidth: 965
Flags: W
LayerCount: 2
Fore
SplineSet
74.0062385829 426.362110729 m 2,0,1
 80.7063917272 422.416792619 80.7063917272 422.416792619 87.773479142 416.22442104 c 2,2,-1
 91.7581830323 412.641464481 l 2,3,4
 108.337833636 397.456436743 108.337833636 397.456436743 112.50892842 392.568555959 c 0,5,6
 115.541731793 389.015418673 115.541731793 389.015418673 111.556732264 384.329656206 c 0,7,8
 109.963234986 382.457624335 109.963234986 382.457624335 107.424917735 381.544337296 c 0,9,10
 95.4894233454 378.653413427 95.4894233454 378.653413427 83.3228949433 381.187029864 c 0,11,12
 77.1315925441 382.475565293 77.1315925441 382.475565293 71.506434445 385.054601973 c 0,13,14
 60.2485884122 390.213488814 60.2485884122 390.213488814 51.6738187342 400.362412558 c 0,15,16
 49.486434227 402.949746681 49.486434227 402.949746681 48.404349926 405.868916839 c 128,-1,17
 47.322265625 408.788086998 47.322265625 408.788086998 47.322265625 412.09375 c 0,18,19
 47.322265625 418.741864405 47.322265625 418.741864405 51.7032545661 423.670361554 c 0,20,21
 57.822794238 430.550475212 57.822794238 430.550475212 68.1063896014 428.555800344 c 0,22,23
 68.8151964482 428.41680056 68.8151964482 428.41680056 69.539219017 428.207311797 c 128,-1,24
 70.2430675552 428.001152289 70.2430675552 428.001152289 70.9654349541 427.726280778 c 2,25,-1
 74.0062385829 426.362110729 l 2,0,1
89.5454177724 312.723726471 m 2,26,27
 91.1157888314 311.208178582 91.1157888314 311.208178582 92.0435529618 308.624336355 c 128,-1,28
 92.9713170921 306.040494129 92.9713170921 306.040494129 93.2857519631 302.569457302 c 128,-1,29
 93.6001868341 299.098420475 93.6001868341 299.098420475 93.3930988805 294.499397841 c 0,30,31
 92.1929346002 275.677082424 92.1929346002 275.677082424 89.5028700276 254.04453445 c 128,-1,32
 86.8128054551 232.411986475 86.8128054551 232.411986475 82.6292662517 207.930190798 c 0,33,34
 81.3072589351 200.379560904 81.3072589351 200.379560904 79.7993310067 192.040088994 c 128,-1,35
 78.2914030783 183.700617083 78.2914030783 183.700617083 76.6025869602 174.599828839 c 0,36,37
 61.2841423343 79.394400946 61.2841423343 79.394400946 81.2228198957 36.653161913 c 0,38,39
 84.2049878005 31.6759326255 84.2049878005 31.6759326255 84.8528185159 25.5411597791 c 128,-1,40
 85.5006492313 19.4063869326 85.5006492313 19.4063869326 83.8583512098 10.7731017855 c 0,41,42
 83.6583901855 10.2772112838 83.6583901855 10.2772112838 83.1798317777 9.74510787933 c 0,43,44
 80.7909477773 5.36160085491 80.7909477773 5.36160085491 78.6412212971 3.79232639935 c 0,45,46
 74.3377950625 -0.00893623483934 74.3377950625 -0.00893623483934 67.4051545097 0.167796264801 c 0,47,48
 54.5143413925 -0.00666434233951 54.5143413925 -0.00666434233951 46.1225129124 10.8451177257 c 0,49,50
 42.0754961212 16.2368142449 42.0754961212 16.2368142449 38.9218249896 23.9441249487 c 128,-1,51
 35.768153858 31.6514356526 35.768153858 31.6514356526 33.4675246023 41.7166270271 c 0,52,53
 27.9961475489 65.9053562285 27.9961475489 65.9053562285 28.9019597275 92.2062948913 c 0,54,55
 30.004956511 125.111626398 30.004956511 125.111626398 36.6293667275 165.546439696 c 2,56,-1
 45.602588027 221.225548128 l 2,57,58
 51.3510661999 255.954543101 51.3510661999 255.954543101 54.9303321788 275.322807617 c 128,-1,59
 58.5095981576 294.691072133 58.5095981576 294.691072133 60.0715233091 299.371390676 c 0,60,61
 69.6519519309 323.322462231 69.6519519309 323.322462231 82.0462812832 318.307041922 c 2,62,-1
 89.5454177724 312.723726471 l 2,26,27
EndSplineSet
Validated: 33
Substitution2: "Single Substitution lookup 5 subtable" i.ss02
Substitution2: "Single Substitution lookup 4 subtable" i.ss02
Substitution2: "Single Substitution lookup 3 subtable" i.ss01
Substitution2: "Single Substitution lookup 2 subtable" i.ss01
EndChar

StartChar: j
Encoding: 106 106 44
Width: 328
VWidth: 965
Flags: W
LayerCount: 2
Fore
SplineSet
240.505859375 510.590820312 m 0,0,1
 253.505343006 510.0058882 253.505343006 510.0058882 273.87109375 495.401367188 c 0,2,3
 294.461673384 480.633987902 294.461673384 480.633987902 298.041992188 475.720703125 c 0,4,5
 300.76171875 471.991976587 300.76171875 471.991976587 300.76171875 468.643554688 c 0,6,7
 300.760243682 467.942897182 300.760243682 467.942897182 300.645507812 467.264648438 c 0,8,9
 299.588132354 451.678710938 299.588132354 451.678710938 274.88671875 451.678710938 c 0,10,11
 273.521922144 451.678710938 273.521922144 451.678710938 272.194335938 451.721679688 c 0,12,13
 258.622418777 452.717110219 258.622418777 452.717110219 249.166992188 453.641601562 c 0,14,15
 240.567774821 454.483331536 240.567774821 454.483331536 236.303710938 460.092773438 c 0,16,17
 213.236213931 492.532713743 213.236213931 492.532713743 213.208007812 496.383789062 c 0,18,19
 213.100627135 510.67436761 213.100627135 510.67436761 236.868164062 510.67578125 c 0,20,21
 238.621582031 510.674316406 238.621582031 510.674316406 240.505859375 510.590820312 c 0,0,1
54.322265625 37.470703125 m 0,22,23
 65.158203125 37.470703125 65.158203125 37.470703125 65.158203125 28.3017578125 c 0,24,25
 65.158203125 26.9183067909 65.158203125 26.9183067909 64.9638671875 25.37109375 c 0,26,27
 62.2055889279 8.00524393031 62.2055889279 8.00524393031 52.8154296875 -7.609375 c 1,28,-1
 52.5302734375 -8.6484375 l 1,29,30
 52.6195102791 -31.2512658928 52.6195102791 -31.2512658928 91.0986328125 -85.3076171875 c 0,31,32
 147.569802593 -163.874023438 147.569802593 -163.874023438 181.064453125 -163.874023438 c 0,33,34
 191.833994566 -163.874023438 191.833994566 -163.874023438 200.189453125 -155.98046875 c 0,35,36
 220.264164809 -136.348320002 220.264164809 -136.348320002 220.262695312 29.65625 c 0,37,38
 220.264160156 68.6049804688 220.264160156 68.6049804688 219.182617188 115.658203125 c 0,39,40
 218.00146644 166.870674817 218.00146644 166.870674817 218 207.178710938 c 0,41,42
 218 346.418710806 218 346.418710806 231.263671875 352.877929688 c 0,43,44
 236.24009322 355.38981028 236.24009322 355.38981028 239.7421875 355.400390625 c 0,45,46
 244.595333767 355.116032312 244.595333767 355.116032312 247.49609375 354.987304688 c 0,47,48
 255.633290285 354.622620204 255.633290285 354.622620204 257.616210938 351.458007812 c 0,49,50
 259.067382812 349.143877313 259.067382812 349.143877313 259.067382812 334.795898438 c 0,51,52
 259.067382812 328.197294469 259.067382812 328.197294469 258.719726562 319.137695312 c 2,53,-1
 255.286132812 252.759765625 l 1,54,-1
 254.857421875 239.955078125 l 1,55,-1
 255.528320312 76.7822265625 l 2,56,57
 257.059570312 29.2491260372 257.059570312 29.2491260372 257.059570312 -3.9404296875 c 0,58,59
 257.059570312 -27.924597592 257.059570312 -27.924597592 256.2578125 -44.2998046875 c 2,60,-1
 254.329101562 -83.69140625 l 2,61,62
 250.952095988 -158.824672456 250.952095988 -158.824672456 221.8203125 -185.219726562 c 0,63,64
 205.790440923 -199.194335938 205.790440923 -199.194335938 181.89453125 -199.194335938 c 0,65,66
 179.684975229 -199.194335938 179.684975229 -199.194335938 177.411132812 -199.075195312 c 0,67,68
 133.961967488 -197.123438031 133.961967488 -197.123438031 65.96875 -109.1640625 c 0,69,70
 46.5446595415 -83.7855154278 46.5446595415 -83.7855154278 35.326171875 -65.3974609375 c 128,-1,71
 24.1569019122 -47.0900784455 24.1569019122 -47.0900784455 21.251953125 -36.0205078125 c 0,72,73
 15.638671875 -14.639221636 15.638671875 -14.639221636 15.638671875 -5.2431640625 c 2,74,-1
 15.6533203125 -4.3291015625 l 2,75,76
 17.580408028 36.2733441329 17.580408028 36.2733441329 54.322265625 37.470703125 c 0,22,23
239.7421875 355.400390625 m 1,77,-1
 239.7421875 355.400390625 l 1,77,-1
EndSplineSet
Validated: 33
EndChar

StartChar: k
Encoding: 107 107 45
Width: 398
VWidth: 965
Flags: W
LayerCount: 2
Fore
SplineSet
263.856844578 323.94921875 m 2,0,1
 276.729872905 323.635911415 276.729872905 323.635911415 284.324831218 315.794004418 c 128,-1,2
 291.91978953 307.952097421 291.91978953 307.952097421 294.851516384 292.548244868 c 0,3,4
 295.482942566 289.229666949 295.482942566 289.229666949 295.798600189 285.833439524 c 128,-1,5
 296.114257812 282.437212098 296.114257812 282.437212098 296.114257812 278.96484375 c 0,6,7
 296.114257812 254.146862257 296.114257812 254.146862257 279.990327399 225.405316457 c 0,8,9
 256.79708567 184.056822148 256.79708567 184.056822148 197.788249238 158.709117296 c 0,10,11
 144.31701506 135.739461086 144.31701506 135.739461086 142.369490179 116.954906808 c 0,12,13
 142.328115646 116.12869297 142.328115646 116.12869297 142.328125 115.307617188 c 0,14,15
 142.328125 100.646297503 142.328125 100.646297503 155.56013304 87.6177118891 c 0,16,17
 169.727279805 73.6634157896 169.727279805 73.6634157896 191.129779695 64.3703652736 c 0,18,19
 196.503257923 62.036798819 196.503257923 62.036798819 202.272987358 59.821353664 c 128,-1,20
 208.042716793 57.6059085091 208.042716793 57.6059085091 214.209909003 55.5081877959 c 128,-1,21
 220.377101212 53.4104670826 220.377101212 53.4104670826 226.942460121 51.4306831763 c 128,-1,22
 233.507819031 49.45089927 233.507819031 49.45089927 240.468228992 47.5900967328 c 0,23,24
 301.561936944 31.2574300664 301.561936944 31.2574300664 339.80742203 29.4334341006 c 0,25,26
 368.11959141 28.082643116 368.11959141 28.082643116 380.200344594 27.1282502993 c 128,-1,27
 392.281097778 26.1738574827 392.281097778 26.1738574827 393.615496011 24.8387565645 c 0,28,29
 395.762695312 22.6904265634 395.762695312 22.6904265634 395.762695312 20.84765625 c 0,30,31
 394.434627739 0.5595703125 394.434627739 0.5595703125 325.077148438 0.5595703125 c 0,32,33
 302.1933247 0.5595703125 302.1933247 0.5595703125 271.850131931 2.71051490449 c 0,34,35
 244.496149212 4.65112599512 244.496149212 4.65112599512 202.544822055 18.6933374759 c 128,-1,36
 160.527315142 32.7609678921 160.527315142 32.7609678921 125.588378438 62.634513925 c 0,37,38
 99.4296875 85.0032234943 99.4296875 85.0032234943 99.4296875 109.821289062 c 0,39,40
 99.4296875 118.469024811 99.4296875 118.469024811 102.611893569 127.383976606 c 0,41,42
 105.600923221 135.759193189 105.600923221 135.759193189 109.841272635 142.40990348 c 128,-1,43
 114.081622049 149.060613771 114.081622049 149.060613771 119.576186491 153.968607091 c 0,44,45
 130.472371186 163.696955931 130.472371186 163.696955931 152.256787523 173.979538414 c 128,-1,46
 173.862677917 184.176474239 173.862677917 184.176474239 178.178772461 186.835876271 c 128,-1,47
 182.548964791 189.527030734 182.548964791 189.527030734 190.97623673 194.627899746 c 128,-1,48
 199.380196221 199.715865484 199.380196221 199.715865484 201.618481129 201.224821602 c 128,-1,49
 203.877705011 202.752803829 203.877705011 202.752803829 211.450515592 207.811113065 c 128,-1,50
 218.937540572 212.810834558 218.937540572 212.810834558 221.699389677 215.57649311 c 0,51,52
 223.131133934 217.011198576 223.131133934 217.011198576 225.330493373 219.063636077 c 128,-1,53
 227.529852811 221.116073579 227.529852811 221.116073579 230.51049337 223.799728248 c 0,54,55
 232.458981846 225.554456776 232.458981846 225.554456776 234.047958552 227.218562701 c 128,-1,56
 235.636935257 228.882668626 235.636935257 228.882668626 236.842266214 230.423910412 c 128,-1,57
 238.047597172 231.965152198 238.047597172 231.965152198 238.888193842 233.399129586 c 0,58,59
 240.203179896 235.643203111 240.203179896 235.643203111 241.746038911 238.26144739 c 128,-1,60
 243.288897926 240.879691669 243.288897926 240.879691669 245.059117871 243.871241291 c 0,61,62
 251.073980945 254.044646351 251.073980945 254.044646351 251.706670012 265.195074357 c 0,63,64
 251.770673436 266.328030484 251.770673436 266.328030484 251.770507812 267.336914062 c 0,65,66
 251.770507812 275.532416785 251.770507812 275.532416785 247.63671875 275.533203125 c 0,67,68
 239.40596549 275.533203125 239.40596549 275.533203125 212.195442361 254.721344893 c 0,69,70
 184.744623385 233.723975612 184.744623385 233.723975612 174.176084662 224.404295461 c 0,71,72
 160.862765711 212.663102365 160.862765711 212.663102365 144.165726361 191.651238491 c 128,-1,73
 127.468687011 170.639374617 127.468687011 170.639374617 107.453849343 140.418534045 c 0,74,75
 106.907708438 139.593903963 106.907708438 139.593903963 106.148446079 140.080185945 c 1,76,77
 73.2419509286 34.6893178021 73.2419509286 34.6893178021 61.6142655934 4.42586672173 c 0,78,79
 59.303672304 -1.59449435491 59.303672304 -1.59449435491 48.8285851278 -2.11304240796 c 0,80,81
 47.7556537855 -2.1659896716 47.7556537855 -2.1659896716 46.7021484375 -2.166015625 c 0,82,83
 37.8499772713 -2.166015625 37.8499772713 -2.166015625 30.3848413656 1.59921920775 c 0,84,85
 23.3583984375 5.14104651603 23.3583984375 5.14104651603 23.3583984375 10.0625 c 0,86,87
 23.3583984375 11.3308904567 23.3583984375 11.3308904567 23.8354270107 12.6549791132 c 0,88,89
 98.1004804396 219.047694261 98.1004804396 219.047694261 146.800572027 386.400509681 c 0,90,91
 194.715393891 551.05247523 194.715393891 551.05247523 211.956911632 645.444130989 c 1,92,93
 210.853905351 644.16763041 210.853905351 644.16763041 209.183183196 642.116905236 c 128,-1,94
 207.512461041 640.066180063 207.512461041 640.066180063 205.299535677 637.271704506 c 0,95,96
 196.138569813 625.70513326 196.138569813 625.70513326 184.45368279 607.7982461 c 2,97,-1
 171.125434673 590.068940195 l 2,98,99
 170.47529767 589.20430432 170.47529767 589.20430432 169.664334896 589.920274082 c 0,100,101
 169.447010343 590.112142086 169.447010343 590.112142086 169.371131163 590.409054248 c 128,-1,102
 169.295251983 590.70596641 169.295251983 590.70596641 169.365924465 590.949072214 c 0,103,104
 174.353946474 608.107336235 174.353946474 608.107336235 185.544933901 625.765581256 c 128,-1,105
 196.735921329 643.423826276 196.735921329 643.423826276 214.118108458 661.601305711 c 0,106,107
 220.683445406 668.465889172 220.683445406 668.465889172 223.843064503 671.303745367 c 128,-1,108
 227.002683599 674.141601562 227.002683599 674.141601562 228.583984375 674.141601562 c 0,109,110
 230.941057483 673.980504491 230.941057483 673.980504491 234.698337118 671.269977366 c 128,-1,111
 238.639648438 668.42668853 238.639648438 668.42668853 238.639648438 632.204101562 c 0,112,113
 238.639648438 614.231225821 238.639648438 614.231225821 232.872475541 581.082340233 c 128,-1,114
 227.105302645 547.933454644 227.105302645 547.933454644 215.555811922 499.427550318 c 0,115,116
 192.49009675 402.555454383 192.49009675 402.555454383 165.769960572 324.008015553 c 0,117,118
 141.430817055 252.461935361 141.430817055 252.461935361 111.930389346 158.543842715 c 1,119,120
 150.059346792 255.852793389 150.059346792 255.852793389 239.946816888 316.649881779 c 0,121,122
 251.438752363 323.94921875 251.438752363 323.94921875 263.397460938 323.94921875 c 2,123,-1
 263.856844578 323.94921875 l 2,0,1
EndSplineSet
Validated: 1
EndChar

